%TF.GenerationSoftware,KiCad,Pcbnew,(5.1.9)-1*%
%TF.CreationDate,2021-02-11T09:32:34-08:00*%
%TF.ProjectId,KNH002rev4,4b4e4830-3032-4726-9576-342e6b696361,rev?*%
%TF.SameCoordinates,Original*%
%TF.FileFunction,Soldermask,Bot*%
%TF.FilePolarity,Negative*%
%FSLAX46Y46*%
G04 Gerber Fmt 4.6, Leading zero omitted, Abs format (unit mm)*
G04 Created by KiCad (PCBNEW (5.1.9)-1) date 2021-02-11 09:32:34*
%MOMM*%
%LPD*%
G01*
G04 APERTURE LIST*
%ADD10C,1.727200*%
%ADD11C,1.473200*%
%ADD12O,1.451600X1.451600*%
%ADD13C,2.501600*%
%ADD14C,1.422400*%
%ADD15C,1.778000*%
%ADD16C,2.082800*%
G04 APERTURE END LIST*
D10*
%TO.C,U2*%
X149326500Y-108757800D03*
X149326500Y-106217800D03*
X149326500Y-103677800D03*
%TD*%
D11*
%TO.C,J1*%
X133601100Y-98775600D03*
X135601100Y-98775600D03*
X137601100Y-98775600D03*
G36*
G01*
X140337700Y-98140600D02*
X140337700Y-99410600D01*
G75*
G02*
X140236100Y-99512200I-101600J0D01*
G01*
X138966100Y-99512200D01*
G75*
G02*
X138864500Y-99410600I0J101600D01*
G01*
X138864500Y-98140600D01*
G75*
G02*
X138966100Y-98039000I101600J0D01*
G01*
X140236100Y-98039000D01*
G75*
G02*
X140337700Y-98140600I0J-101600D01*
G01*
G37*
%TD*%
D12*
%TO.C,J10*%
X166275000Y-115506500D03*
G36*
G01*
X167600000Y-114780700D02*
X168950000Y-114780700D01*
G75*
G02*
X169000800Y-114831500I0J-50800D01*
G01*
X169000800Y-116181500D01*
G75*
G02*
X168950000Y-116232300I-50800J0D01*
G01*
X167600000Y-116232300D01*
G75*
G02*
X167549200Y-116181500I0J50800D01*
G01*
X167549200Y-114831500D01*
G75*
G02*
X167600000Y-114780700I50800J0D01*
G01*
G37*
%TD*%
D13*
%TO.C,J11*%
X168833700Y-93924200D03*
%TD*%
D14*
%TO.C,J9*%
X128244500Y-97937400D03*
X128244500Y-99937402D03*
%TD*%
D15*
%TO.C,C1*%
X143078100Y-103728600D03*
X143078100Y-106268600D03*
%TD*%
D14*
%TO.C,J8*%
X131089300Y-113006199D03*
X131089300Y-115006201D03*
%TD*%
D11*
%TO.C,J2*%
X145539100Y-98775600D03*
X147539100Y-98775600D03*
X149539100Y-98775600D03*
G36*
G01*
X152275700Y-98140600D02*
X152275700Y-99410600D01*
G75*
G02*
X152174100Y-99512200I-101600J0D01*
G01*
X150904100Y-99512200D01*
G75*
G02*
X150802500Y-99410600I0J101600D01*
G01*
X150802500Y-98140600D01*
G75*
G02*
X150904100Y-98039000I101600J0D01*
G01*
X152174100Y-98039000D01*
G75*
G02*
X152275700Y-98140600I0J-101600D01*
G01*
G37*
%TD*%
D16*
%TO.C,J4*%
X159842100Y-115666600D03*
X159842100Y-113126600D03*
X157302100Y-115666600D03*
X157302100Y-113126600D03*
X154762100Y-115666600D03*
X154762100Y-113126600D03*
X152222100Y-115666600D03*
X152222100Y-113126600D03*
X149682100Y-115666600D03*
X149682100Y-113126600D03*
X147142100Y-115666600D03*
X147142100Y-113126600D03*
X144602100Y-115666600D03*
X144602100Y-113126600D03*
X142062100Y-115666600D03*
X142062100Y-113126600D03*
X139522100Y-115666600D03*
X139522100Y-113126600D03*
X136982100Y-115666600D03*
X136982100Y-113126600D03*
%TD*%
D11*
%TO.C,J3*%
X157477100Y-98775600D03*
X159477100Y-98775600D03*
X161477100Y-98775600D03*
G36*
G01*
X164213700Y-98140600D02*
X164213700Y-99410600D01*
G75*
G02*
X164112100Y-99512200I-101600J0D01*
G01*
X162842100Y-99512200D01*
G75*
G02*
X162740500Y-99410600I0J101600D01*
G01*
X162740500Y-98140600D01*
G75*
G02*
X162842100Y-98039000I101600J0D01*
G01*
X164112100Y-98039000D01*
G75*
G02*
X164213700Y-98140600I0J-101600D01*
G01*
G37*
%TD*%
D10*
%TO.C,J5*%
X132791100Y-95854600D03*
X135331100Y-95854600D03*
X137871100Y-95854600D03*
X140411100Y-95854600D03*
%TD*%
%TO.C,J6*%
X144729100Y-95854600D03*
X147269100Y-95854600D03*
X149809100Y-95854600D03*
X152349100Y-95854600D03*
%TD*%
%TO.C,J7*%
X156667100Y-95854600D03*
X159207100Y-95854600D03*
X161747100Y-95854600D03*
X164287100Y-95854600D03*
%TD*%
%TO.C,JP1*%
G36*
G01*
X152857100Y-106281300D02*
X151587100Y-106281300D01*
G75*
G02*
X151485500Y-106179700I0J101600D01*
G01*
X151485500Y-105544700D01*
G75*
G02*
X151587100Y-105443100I101600J0D01*
G01*
X152857100Y-105443100D01*
G75*
G02*
X152958700Y-105544700I0J-101600D01*
G01*
X152958700Y-106179700D01*
G75*
G02*
X152857100Y-106281300I-101600J0D01*
G01*
G37*
G36*
G01*
X152857100Y-107094100D02*
X151587100Y-107094100D01*
G75*
G02*
X151485500Y-106992500I0J101600D01*
G01*
X151485500Y-106357500D01*
G75*
G02*
X151587100Y-106255900I101600J0D01*
G01*
X152857100Y-106255900D01*
G75*
G02*
X152958700Y-106357500I0J-101600D01*
G01*
X152958700Y-106992500D01*
G75*
G02*
X152857100Y-107094100I-101600J0D01*
G01*
G37*
%TD*%
M02*
