%TF.GenerationSoftware,KiCad,Pcbnew,(5.1.9)-1*%
%TF.CreationDate,2021-02-11T09:32:34-08:00*%
%TF.ProjectId,KNH002rev4,4b4e4830-3032-4726-9576-342e6b696361,rev?*%
%TF.SameCoordinates,Original*%
%TF.FileFunction,Paste,Top*%
%TF.FilePolarity,Positive*%
%FSLAX46Y46*%
G04 Gerber Fmt 4.6, Leading zero omitted, Abs format (unit mm)*
G04 Created by KiCad (PCBNEW (5.1.9)-1) date 2021-02-11 09:32:34*
%MOMM*%
%LPD*%
G01*
G04 APERTURE LIST*
%ADD10R,0.332740X0.424180*%
%ADD11R,0.152400X0.711200*%
%ADD12R,1.498400X0.698400*%
%ADD13R,0.748401X0.298399*%
%ADD14R,1.371600X0.457200*%
%ADD15R,0.548400X0.298400*%
G04 APERTURE END LIST*
D10*
%TO.C,U5*%
X129540000Y-107429300D03*
D11*
X130039999Y-108877100D03*
X129540000Y-108877100D03*
X129040001Y-108877100D03*
X129040001Y-105981500D03*
X129540000Y-105981500D03*
X130039999Y-105981500D03*
%TD*%
%TO.C,R8*%
G36*
G01*
X148737400Y-110849500D02*
X148737400Y-110425300D01*
G75*
G02*
X148949500Y-110213200I212100J0D01*
G01*
X149398700Y-110213200D01*
G75*
G02*
X149610800Y-110425300I0J-212100D01*
G01*
X149610800Y-110849500D01*
G75*
G02*
X149398700Y-111061600I-212100J0D01*
G01*
X148949500Y-111061600D01*
G75*
G02*
X148737400Y-110849500I0J212100D01*
G01*
G37*
G36*
G01*
X146912400Y-110849500D02*
X146912400Y-110425300D01*
G75*
G02*
X147124500Y-110213200I212100J0D01*
G01*
X147573700Y-110213200D01*
G75*
G02*
X147785800Y-110425300I0J-212100D01*
G01*
X147785800Y-110849500D01*
G75*
G02*
X147573700Y-111061600I-212100J0D01*
G01*
X147124500Y-111061600D01*
G75*
G02*
X146912400Y-110849500I0J212100D01*
G01*
G37*
%TD*%
D12*
%TO.C,LED1*%
X154990900Y-110931000D03*
X158190900Y-109531000D03*
X154990900Y-109531000D03*
X158190900Y-110931000D03*
%TD*%
%TO.C,R7*%
G36*
G01*
X152545500Y-108411100D02*
X152545500Y-107986900D01*
G75*
G02*
X152757600Y-107774800I212100J0D01*
G01*
X153206800Y-107774800D01*
G75*
G02*
X153418900Y-107986900I0J-212100D01*
G01*
X153418900Y-108411100D01*
G75*
G02*
X153206800Y-108623200I-212100J0D01*
G01*
X152757600Y-108623200D01*
G75*
G02*
X152545500Y-108411100I0J212100D01*
G01*
G37*
G36*
G01*
X150720500Y-108411100D02*
X150720500Y-107986900D01*
G75*
G02*
X150932600Y-107774800I212100J0D01*
G01*
X151381800Y-107774800D01*
G75*
G02*
X151593900Y-107986900I0J-212100D01*
G01*
X151593900Y-108411100D01*
G75*
G02*
X151381800Y-108623200I-212100J0D01*
G01*
X150932600Y-108623200D01*
G75*
G02*
X150720500Y-108411100I0J212100D01*
G01*
G37*
%TD*%
%TO.C,R6*%
G36*
G01*
X152141000Y-111103500D02*
X152141000Y-110679300D01*
G75*
G02*
X152353100Y-110467200I212100J0D01*
G01*
X152802300Y-110467200D01*
G75*
G02*
X153014400Y-110679300I0J-212100D01*
G01*
X153014400Y-111103500D01*
G75*
G02*
X152802300Y-111315600I-212100J0D01*
G01*
X152353100Y-111315600D01*
G75*
G02*
X152141000Y-111103500I0J212100D01*
G01*
G37*
G36*
G01*
X150316000Y-111103500D02*
X150316000Y-110679300D01*
G75*
G02*
X150528100Y-110467200I212100J0D01*
G01*
X150977300Y-110467200D01*
G75*
G02*
X151189400Y-110679300I0J-212100D01*
G01*
X151189400Y-111103500D01*
G75*
G02*
X150977300Y-111315600I-212100J0D01*
G01*
X150528100Y-111315600D01*
G75*
G02*
X150316000Y-111103500I0J212100D01*
G01*
G37*
%TD*%
%TO.C,C7*%
G36*
G01*
X145039200Y-108741400D02*
X145039200Y-109190600D01*
G75*
G02*
X144839600Y-109390200I-199600J0D01*
G01*
X144440400Y-109390200D01*
G75*
G02*
X144240800Y-109190600I0J199600D01*
G01*
X144240800Y-108741400D01*
G75*
G02*
X144440400Y-108541800I199600J0D01*
G01*
X144839600Y-108541800D01*
G75*
G02*
X145039200Y-108741400I0J-199600D01*
G01*
G37*
G36*
G01*
X146589200Y-108741400D02*
X146589200Y-109190600D01*
G75*
G02*
X146389600Y-109390200I-199600J0D01*
G01*
X145990400Y-109390200D01*
G75*
G02*
X145790800Y-109190600I0J199600D01*
G01*
X145790800Y-108741400D01*
G75*
G02*
X145990400Y-108541800I199600J0D01*
G01*
X146389600Y-108541800D01*
G75*
G02*
X146589200Y-108741400I0J-199600D01*
G01*
G37*
%TD*%
D13*
%TO.C,U4*%
X143002000Y-108252499D03*
X143002000Y-108902500D03*
X143002000Y-109552499D03*
X140751999Y-109552499D03*
X140751999Y-108902500D03*
X140751999Y-108252499D03*
%TD*%
%TO.C,C6*%
G36*
G01*
X130055800Y-104047100D02*
X130055800Y-103597900D01*
G75*
G02*
X130255400Y-103398300I199600J0D01*
G01*
X130654600Y-103398300D01*
G75*
G02*
X130854200Y-103597900I0J-199600D01*
G01*
X130854200Y-104047100D01*
G75*
G02*
X130654600Y-104246700I-199600J0D01*
G01*
X130255400Y-104246700D01*
G75*
G02*
X130055800Y-104047100I0J199600D01*
G01*
G37*
G36*
G01*
X128505800Y-104047100D02*
X128505800Y-103597900D01*
G75*
G02*
X128705400Y-103398300I199600J0D01*
G01*
X129104600Y-103398300D01*
G75*
G02*
X129304200Y-103597900I0J-199600D01*
G01*
X129304200Y-104047100D01*
G75*
G02*
X129104600Y-104246700I-199600J0D01*
G01*
X128705400Y-104246700D01*
G75*
G02*
X128505800Y-104047100I0J199600D01*
G01*
G37*
%TD*%
%TO.C,R5*%
G36*
G01*
X132800100Y-106926200D02*
X132375900Y-106926200D01*
G75*
G02*
X132163800Y-106714100I0J212100D01*
G01*
X132163800Y-106264900D01*
G75*
G02*
X132375900Y-106052800I212100J0D01*
G01*
X132800100Y-106052800D01*
G75*
G02*
X133012200Y-106264900I0J-212100D01*
G01*
X133012200Y-106714100D01*
G75*
G02*
X132800100Y-106926200I-212100J0D01*
G01*
G37*
G36*
G01*
X132800100Y-108751200D02*
X132375900Y-108751200D01*
G75*
G02*
X132163800Y-108539100I0J212100D01*
G01*
X132163800Y-108089900D01*
G75*
G02*
X132375900Y-107877800I212100J0D01*
G01*
X132800100Y-107877800D01*
G75*
G02*
X133012200Y-108089900I0J-212100D01*
G01*
X133012200Y-108539100D01*
G75*
G02*
X132800100Y-108751200I-212100J0D01*
G01*
G37*
%TD*%
%TO.C,C5*%
G36*
G01*
X166907400Y-101835800D02*
X167356600Y-101835800D01*
G75*
G02*
X167556200Y-102035400I0J-199600D01*
G01*
X167556200Y-102434600D01*
G75*
G02*
X167356600Y-102634200I-199600J0D01*
G01*
X166907400Y-102634200D01*
G75*
G02*
X166707800Y-102434600I0J199600D01*
G01*
X166707800Y-102035400D01*
G75*
G02*
X166907400Y-101835800I199600J0D01*
G01*
G37*
G36*
G01*
X166907400Y-100285800D02*
X167356600Y-100285800D01*
G75*
G02*
X167556200Y-100485400I0J-199600D01*
G01*
X167556200Y-100884600D01*
G75*
G02*
X167356600Y-101084200I-199600J0D01*
G01*
X166907400Y-101084200D01*
G75*
G02*
X166707800Y-100884600I0J199600D01*
G01*
X166707800Y-100485400D01*
G75*
G02*
X166907400Y-100285800I199600J0D01*
G01*
G37*
%TD*%
%TO.C,C4*%
G36*
G01*
X164014900Y-110608000D02*
X164014900Y-110158800D01*
G75*
G02*
X164214500Y-109959200I199600J0D01*
G01*
X164613700Y-109959200D01*
G75*
G02*
X164813300Y-110158800I0J-199600D01*
G01*
X164813300Y-110608000D01*
G75*
G02*
X164613700Y-110807600I-199600J0D01*
G01*
X164214500Y-110807600D01*
G75*
G02*
X164014900Y-110608000I0J199600D01*
G01*
G37*
G36*
G01*
X162464900Y-110608000D02*
X162464900Y-110158800D01*
G75*
G02*
X162664500Y-109959200I199600J0D01*
G01*
X163063700Y-109959200D01*
G75*
G02*
X163263300Y-110158800I0J-199600D01*
G01*
X163263300Y-110608000D01*
G75*
G02*
X163063700Y-110807600I-199600J0D01*
G01*
X162664500Y-110807600D01*
G75*
G02*
X162464900Y-110608000I0J199600D01*
G01*
G37*
%TD*%
%TO.C,C3*%
G36*
G01*
X137178200Y-106074400D02*
X137178200Y-106523600D01*
G75*
G02*
X136978600Y-106723200I-199600J0D01*
G01*
X136579400Y-106723200D01*
G75*
G02*
X136379800Y-106523600I0J199600D01*
G01*
X136379800Y-106074400D01*
G75*
G02*
X136579400Y-105874800I199600J0D01*
G01*
X136978600Y-105874800D01*
G75*
G02*
X137178200Y-106074400I0J-199600D01*
G01*
G37*
G36*
G01*
X138728200Y-106074400D02*
X138728200Y-106523600D01*
G75*
G02*
X138528600Y-106723200I-199600J0D01*
G01*
X138129400Y-106723200D01*
G75*
G02*
X137929800Y-106523600I0J199600D01*
G01*
X137929800Y-106074400D01*
G75*
G02*
X138129400Y-105874800I199600J0D01*
G01*
X138528600Y-105874800D01*
G75*
G02*
X138728200Y-106074400I0J-199600D01*
G01*
G37*
%TD*%
%TO.C,C2*%
G36*
G01*
X133760400Y-104274800D02*
X134209600Y-104274800D01*
G75*
G02*
X134409200Y-104474400I0J-199600D01*
G01*
X134409200Y-104873600D01*
G75*
G02*
X134209600Y-105073200I-199600J0D01*
G01*
X133760400Y-105073200D01*
G75*
G02*
X133560800Y-104873600I0J199600D01*
G01*
X133560800Y-104474400D01*
G75*
G02*
X133760400Y-104274800I199600J0D01*
G01*
G37*
G36*
G01*
X133760400Y-102724800D02*
X134209600Y-102724800D01*
G75*
G02*
X134409200Y-102924400I0J-199600D01*
G01*
X134409200Y-103323600D01*
G75*
G02*
X134209600Y-103523200I-199600J0D01*
G01*
X133760400Y-103523200D01*
G75*
G02*
X133560800Y-103323600I0J199600D01*
G01*
X133560800Y-102924400D01*
G75*
G02*
X133760400Y-102724800I199600J0D01*
G01*
G37*
%TD*%
%TO.C,R4*%
G36*
G01*
X163554400Y-115561300D02*
X163978600Y-115561300D01*
G75*
G02*
X164190700Y-115773400I0J-212100D01*
G01*
X164190700Y-116222600D01*
G75*
G02*
X163978600Y-116434700I-212100J0D01*
G01*
X163554400Y-116434700D01*
G75*
G02*
X163342300Y-116222600I0J212100D01*
G01*
X163342300Y-115773400D01*
G75*
G02*
X163554400Y-115561300I212100J0D01*
G01*
G37*
G36*
G01*
X163554400Y-113736300D02*
X163978600Y-113736300D01*
G75*
G02*
X164190700Y-113948400I0J-212100D01*
G01*
X164190700Y-114397600D01*
G75*
G02*
X163978600Y-114609700I-212100J0D01*
G01*
X163554400Y-114609700D01*
G75*
G02*
X163342300Y-114397600I0J212100D01*
G01*
X163342300Y-113948400D01*
G75*
G02*
X163554400Y-113736300I212100J0D01*
G01*
G37*
%TD*%
%TO.C,R3*%
G36*
G01*
X167812900Y-113419900D02*
X167812900Y-112995700D01*
G75*
G02*
X168025000Y-112783600I212100J0D01*
G01*
X168474200Y-112783600D01*
G75*
G02*
X168686300Y-112995700I0J-212100D01*
G01*
X168686300Y-113419900D01*
G75*
G02*
X168474200Y-113632000I-212100J0D01*
G01*
X168025000Y-113632000D01*
G75*
G02*
X167812900Y-113419900I0J212100D01*
G01*
G37*
G36*
G01*
X165987900Y-113419900D02*
X165987900Y-112995700D01*
G75*
G02*
X166200000Y-112783600I212100J0D01*
G01*
X166649200Y-112783600D01*
G75*
G02*
X166861300Y-112995700I0J-212100D01*
G01*
X166861300Y-113419900D01*
G75*
G02*
X166649200Y-113632000I-212100J0D01*
G01*
X166200000Y-113632000D01*
G75*
G02*
X165987900Y-113419900I0J212100D01*
G01*
G37*
%TD*%
%TO.C,R2*%
G36*
G01*
X167861800Y-111248200D02*
X167861800Y-110824000D01*
G75*
G02*
X168073900Y-110611900I212100J0D01*
G01*
X168523100Y-110611900D01*
G75*
G02*
X168735200Y-110824000I0J-212100D01*
G01*
X168735200Y-111248200D01*
G75*
G02*
X168523100Y-111460300I-212100J0D01*
G01*
X168073900Y-111460300D01*
G75*
G02*
X167861800Y-111248200I0J212100D01*
G01*
G37*
G36*
G01*
X166036800Y-111248200D02*
X166036800Y-110824000D01*
G75*
G02*
X166248900Y-110611900I212100J0D01*
G01*
X166698100Y-110611900D01*
G75*
G02*
X166910200Y-110824000I0J-212100D01*
G01*
X166910200Y-111248200D01*
G75*
G02*
X166698100Y-111460300I-212100J0D01*
G01*
X166248900Y-111460300D01*
G75*
G02*
X166036800Y-111248200I0J212100D01*
G01*
G37*
%TD*%
D14*
%TO.C,U1*%
X166497000Y-104140000D03*
X166497000Y-105410000D03*
X166497000Y-106680000D03*
X166497000Y-107950000D03*
X159181800Y-107950000D03*
X159181800Y-106680000D03*
X159181800Y-105410000D03*
X159181800Y-104140000D03*
%TD*%
D15*
%TO.C,U3*%
X136718000Y-104663000D03*
X136718000Y-103363000D03*
X138618000Y-104013000D03*
X136718000Y-104013000D03*
X138618000Y-103363000D03*
X138618000Y-104663000D03*
%TD*%
%TO.C,R1*%
G36*
G01*
X153518700Y-103800900D02*
X153518700Y-104225100D01*
G75*
G02*
X153306600Y-104437200I-212100J0D01*
G01*
X152857400Y-104437200D01*
G75*
G02*
X152645300Y-104225100I0J212100D01*
G01*
X152645300Y-103800900D01*
G75*
G02*
X152857400Y-103588800I212100J0D01*
G01*
X153306600Y-103588800D01*
G75*
G02*
X153518700Y-103800900I0J-212100D01*
G01*
G37*
G36*
G01*
X151693700Y-103800900D02*
X151693700Y-104225100D01*
G75*
G02*
X151481600Y-104437200I-212100J0D01*
G01*
X151032400Y-104437200D01*
G75*
G02*
X150820300Y-104225100I0J212100D01*
G01*
X150820300Y-103800900D01*
G75*
G02*
X151032400Y-103588800I212100J0D01*
G01*
X151481600Y-103588800D01*
G75*
G02*
X151693700Y-103800900I0J-212100D01*
G01*
G37*
%TD*%
M02*
