%TF.GenerationSoftware,KiCad,Pcbnew,(5.1.9)-1*%
%TF.CreationDate,2021-02-11T09:32:34-08:00*%
%TF.ProjectId,KNH002rev4,4b4e4830-3032-4726-9576-342e6b696361,rev?*%
%TF.SameCoordinates,Original*%
%TF.FileFunction,Legend,Top*%
%TF.FilePolarity,Positive*%
%FSLAX46Y46*%
G04 Gerber Fmt 4.6, Leading zero omitted, Abs format (unit mm)*
G04 Created by KiCad (PCBNEW (5.1.9)-1) date 2021-02-11 09:32:34*
%MOMM*%
%LPD*%
G01*
G04 APERTURE LIST*
%ADD10C,0.300000*%
%ADD11C,0.250000*%
%ADD12C,0.152400*%
%ADD13C,0.120000*%
%ADD14C,0.127000*%
%ADD15C,0.254000*%
%ADD16C,0.100000*%
%ADD17C,0.150000*%
G04 APERTURE END LIST*
D10*
X128035757Y-116111171D02*
X128035757Y-117254028D01*
X127464328Y-116682600D02*
X128607185Y-116682600D01*
X126968957Y-102141171D02*
X126968957Y-103284028D01*
X126397528Y-102712600D02*
X127540385Y-102712600D01*
X153593700Y-109968371D02*
X153593700Y-110325514D01*
X153236557Y-110182657D02*
X153593700Y-110325514D01*
X153950842Y-110182657D01*
X153379414Y-110611228D02*
X153593700Y-110325514D01*
X153807985Y-110611228D01*
X128097642Y-111821800D02*
X128026214Y-112036085D01*
X127954785Y-112107514D01*
X127811928Y-112178942D01*
X127597642Y-112178942D01*
X127454785Y-112107514D01*
X127383357Y-112036085D01*
X127311928Y-111893228D01*
X127311928Y-111321800D01*
X128811928Y-111321800D01*
X128811928Y-111821800D01*
X128740500Y-111964657D01*
X128669071Y-112036085D01*
X128526214Y-112107514D01*
X128383357Y-112107514D01*
X128240500Y-112036085D01*
X128169071Y-111964657D01*
X128097642Y-111821800D01*
X128097642Y-111321800D01*
X127311928Y-113464657D02*
X128097642Y-113464657D01*
X128240500Y-113393228D01*
X128311928Y-113250371D01*
X128311928Y-112964657D01*
X128240500Y-112821800D01*
X127383357Y-113464657D02*
X127311928Y-113321800D01*
X127311928Y-112964657D01*
X127383357Y-112821800D01*
X127526214Y-112750371D01*
X127669071Y-112750371D01*
X127811928Y-112821800D01*
X127883357Y-112964657D01*
X127883357Y-113321800D01*
X127954785Y-113464657D01*
X128311928Y-113964657D02*
X128311928Y-114536085D01*
X128811928Y-114178942D02*
X127526214Y-114178942D01*
X127383357Y-114250371D01*
X127311928Y-114393228D01*
X127311928Y-114536085D01*
X131064000Y-105922071D02*
X131064000Y-106279214D01*
X130706857Y-106136357D02*
X131064000Y-106279214D01*
X131421142Y-106136357D01*
X130849714Y-106564928D02*
X131064000Y-106279214D01*
X131278285Y-106564928D01*
X140335000Y-106874571D02*
X140335000Y-107231714D01*
X139977857Y-107088857D02*
X140335000Y-107231714D01*
X140692142Y-107088857D01*
X140120714Y-107517428D02*
X140335000Y-107231714D01*
X140549285Y-107517428D01*
X139700000Y-105223571D02*
X139700000Y-105580714D01*
X139342857Y-105437857D02*
X139700000Y-105580714D01*
X140057142Y-105437857D01*
X139485714Y-105866428D02*
X139700000Y-105580714D01*
X139914285Y-105866428D01*
D11*
X138487490Y-111191380D02*
X138487490Y-110191380D01*
X139058919Y-111191380D02*
X138630347Y-110619952D01*
X139058919Y-110191380D02*
X138487490Y-110762809D01*
X139487490Y-111191380D02*
X139487490Y-110191380D01*
X140058919Y-111191380D01*
X140058919Y-110191380D01*
X140535109Y-111191380D02*
X140535109Y-110191380D01*
X140535109Y-110667571D02*
X141106538Y-110667571D01*
X141106538Y-111191380D02*
X141106538Y-110191380D01*
X141773204Y-110191380D02*
X141868442Y-110191380D01*
X141963680Y-110239000D01*
X142011300Y-110286619D01*
X142058919Y-110381857D01*
X142106538Y-110572333D01*
X142106538Y-110810428D01*
X142058919Y-111000904D01*
X142011300Y-111096142D01*
X141963680Y-111143761D01*
X141868442Y-111191380D01*
X141773204Y-111191380D01*
X141677966Y-111143761D01*
X141630347Y-111096142D01*
X141582728Y-111000904D01*
X141535109Y-110810428D01*
X141535109Y-110572333D01*
X141582728Y-110381857D01*
X141630347Y-110286619D01*
X141677966Y-110239000D01*
X141773204Y-110191380D01*
X142725585Y-110191380D02*
X142820823Y-110191380D01*
X142916061Y-110239000D01*
X142963680Y-110286619D01*
X143011300Y-110381857D01*
X143058919Y-110572333D01*
X143058919Y-110810428D01*
X143011300Y-111000904D01*
X142963680Y-111096142D01*
X142916061Y-111143761D01*
X142820823Y-111191380D01*
X142725585Y-111191380D01*
X142630347Y-111143761D01*
X142582728Y-111096142D01*
X142535109Y-111000904D01*
X142487490Y-110810428D01*
X142487490Y-110572333D01*
X142535109Y-110381857D01*
X142582728Y-110286619D01*
X142630347Y-110239000D01*
X142725585Y-110191380D01*
X143439871Y-110286619D02*
X143487490Y-110239000D01*
X143582728Y-110191380D01*
X143820823Y-110191380D01*
X143916061Y-110239000D01*
X143963680Y-110286619D01*
X144011300Y-110381857D01*
X144011300Y-110477095D01*
X143963680Y-110619952D01*
X143392252Y-111191380D01*
X144011300Y-111191380D01*
X144439871Y-111191380D02*
X144439871Y-110524714D01*
X144439871Y-110715190D02*
X144487490Y-110619952D01*
X144535109Y-110572333D01*
X144630347Y-110524714D01*
X144725585Y-110524714D01*
X145487490Y-110524714D02*
X145487490Y-111191380D01*
X145249395Y-110143761D02*
X145011300Y-110858047D01*
X145630347Y-110858047D01*
D10*
X145550357Y-101358000D02*
X145407500Y-101286571D01*
X145193214Y-101286571D01*
X144978928Y-101358000D01*
X144836071Y-101500857D01*
X144764642Y-101643714D01*
X144693214Y-101929428D01*
X144693214Y-102143714D01*
X144764642Y-102429428D01*
X144836071Y-102572285D01*
X144978928Y-102715142D01*
X145193214Y-102786571D01*
X145336071Y-102786571D01*
X145550357Y-102715142D01*
X145621785Y-102643714D01*
X145621785Y-102143714D01*
X145336071Y-102143714D01*
X147193214Y-101286571D02*
X147693214Y-102786571D01*
X148193214Y-101286571D01*
X150336071Y-102000857D02*
X150550357Y-102072285D01*
X150621785Y-102143714D01*
X150693214Y-102286571D01*
X150693214Y-102500857D01*
X150621785Y-102643714D01*
X150550357Y-102715142D01*
X150407500Y-102786571D01*
X149836071Y-102786571D01*
X149836071Y-101286571D01*
X150336071Y-101286571D01*
X150478928Y-101358000D01*
X150550357Y-101429428D01*
X150621785Y-101572285D01*
X150621785Y-101715142D01*
X150550357Y-101858000D01*
X150478928Y-101929428D01*
X150336071Y-102000857D01*
X149836071Y-102000857D01*
X152407500Y-102358000D02*
X153121785Y-102358000D01*
X152264642Y-102786571D02*
X152764642Y-101286571D01*
X153264642Y-102786571D01*
X160528000Y-103382071D02*
X160528000Y-103739214D01*
X160170857Y-103596357D02*
X160528000Y-103739214D01*
X160885142Y-103596357D01*
X160313714Y-104024928D02*
X160528000Y-103739214D01*
X160742285Y-104024928D01*
X157678857Y-101612000D02*
X157536000Y-101540571D01*
X157321714Y-101540571D01*
X157107428Y-101612000D01*
X156964571Y-101754857D01*
X156893142Y-101897714D01*
X156821714Y-102183428D01*
X156821714Y-102397714D01*
X156893142Y-102683428D01*
X156964571Y-102826285D01*
X157107428Y-102969142D01*
X157321714Y-103040571D01*
X157464571Y-103040571D01*
X157678857Y-102969142D01*
X157750285Y-102897714D01*
X157750285Y-102397714D01*
X157464571Y-102397714D01*
X159321714Y-101540571D02*
X159821714Y-103040571D01*
X160321714Y-101540571D01*
X162464571Y-102254857D02*
X162678857Y-102326285D01*
X162750285Y-102397714D01*
X162821714Y-102540571D01*
X162821714Y-102754857D01*
X162750285Y-102897714D01*
X162678857Y-102969142D01*
X162536000Y-103040571D01*
X161964571Y-103040571D01*
X161964571Y-101540571D01*
X162464571Y-101540571D01*
X162607428Y-101612000D01*
X162678857Y-101683428D01*
X162750285Y-101826285D01*
X162750285Y-101969142D01*
X162678857Y-102112000D01*
X162607428Y-102183428D01*
X162464571Y-102254857D01*
X161964571Y-102254857D01*
X164536000Y-102612000D02*
X165250285Y-102612000D01*
X164393142Y-103040571D02*
X164893142Y-101540571D01*
X165393142Y-103040571D01*
X157107357Y-93039500D02*
X156964500Y-92968071D01*
X156750214Y-92968071D01*
X156535928Y-93039500D01*
X156393071Y-93182357D01*
X156321642Y-93325214D01*
X156250214Y-93610928D01*
X156250214Y-93825214D01*
X156321642Y-94110928D01*
X156393071Y-94253785D01*
X156535928Y-94396642D01*
X156750214Y-94468071D01*
X156893071Y-94468071D01*
X157107357Y-94396642D01*
X157178785Y-94325214D01*
X157178785Y-93825214D01*
X156893071Y-93825214D01*
X158750214Y-92968071D02*
X159250214Y-94468071D01*
X159750214Y-92968071D01*
X161893071Y-93682357D02*
X162107357Y-93753785D01*
X162178785Y-93825214D01*
X162250214Y-93968071D01*
X162250214Y-94182357D01*
X162178785Y-94325214D01*
X162107357Y-94396642D01*
X161964500Y-94468071D01*
X161393071Y-94468071D01*
X161393071Y-92968071D01*
X161893071Y-92968071D01*
X162035928Y-93039500D01*
X162107357Y-93110928D01*
X162178785Y-93253785D01*
X162178785Y-93396642D01*
X162107357Y-93539500D01*
X162035928Y-93610928D01*
X161893071Y-93682357D01*
X161393071Y-93682357D01*
X163964500Y-94039500D02*
X164678785Y-94039500D01*
X163821642Y-94468071D02*
X164321642Y-92968071D01*
X164821642Y-94468071D01*
X144915357Y-92722000D02*
X144772500Y-92650571D01*
X144558214Y-92650571D01*
X144343928Y-92722000D01*
X144201071Y-92864857D01*
X144129642Y-93007714D01*
X144058214Y-93293428D01*
X144058214Y-93507714D01*
X144129642Y-93793428D01*
X144201071Y-93936285D01*
X144343928Y-94079142D01*
X144558214Y-94150571D01*
X144701071Y-94150571D01*
X144915357Y-94079142D01*
X144986785Y-94007714D01*
X144986785Y-93507714D01*
X144701071Y-93507714D01*
X146558214Y-92650571D02*
X147058214Y-94150571D01*
X147558214Y-92650571D01*
X149701071Y-93364857D02*
X149915357Y-93436285D01*
X149986785Y-93507714D01*
X150058214Y-93650571D01*
X150058214Y-93864857D01*
X149986785Y-94007714D01*
X149915357Y-94079142D01*
X149772500Y-94150571D01*
X149201071Y-94150571D01*
X149201071Y-92650571D01*
X149701071Y-92650571D01*
X149843928Y-92722000D01*
X149915357Y-92793428D01*
X149986785Y-92936285D01*
X149986785Y-93079142D01*
X149915357Y-93222000D01*
X149843928Y-93293428D01*
X149701071Y-93364857D01*
X149201071Y-93364857D01*
X151772500Y-93722000D02*
X152486785Y-93722000D01*
X151629642Y-94150571D02*
X152129642Y-92650571D01*
X152629642Y-94150571D01*
X132532857Y-101421500D02*
X132390000Y-101350071D01*
X132175714Y-101350071D01*
X131961428Y-101421500D01*
X131818571Y-101564357D01*
X131747142Y-101707214D01*
X131675714Y-101992928D01*
X131675714Y-102207214D01*
X131747142Y-102492928D01*
X131818571Y-102635785D01*
X131961428Y-102778642D01*
X132175714Y-102850071D01*
X132318571Y-102850071D01*
X132532857Y-102778642D01*
X132604285Y-102707214D01*
X132604285Y-102207214D01*
X132318571Y-102207214D01*
X134175714Y-101350071D02*
X134675714Y-102850071D01*
X135175714Y-101350071D01*
X137318571Y-102064357D02*
X137532857Y-102135785D01*
X137604285Y-102207214D01*
X137675714Y-102350071D01*
X137675714Y-102564357D01*
X137604285Y-102707214D01*
X137532857Y-102778642D01*
X137390000Y-102850071D01*
X136818571Y-102850071D01*
X136818571Y-101350071D01*
X137318571Y-101350071D01*
X137461428Y-101421500D01*
X137532857Y-101492928D01*
X137604285Y-101635785D01*
X137604285Y-101778642D01*
X137532857Y-101921500D01*
X137461428Y-101992928D01*
X137318571Y-102064357D01*
X136818571Y-102064357D01*
X139390000Y-102421500D02*
X140104285Y-102421500D01*
X139247142Y-102850071D02*
X139747142Y-101350071D01*
X140247142Y-102850071D01*
X132659857Y-92785500D02*
X132517000Y-92714071D01*
X132302714Y-92714071D01*
X132088428Y-92785500D01*
X131945571Y-92928357D01*
X131874142Y-93071214D01*
X131802714Y-93356928D01*
X131802714Y-93571214D01*
X131874142Y-93856928D01*
X131945571Y-93999785D01*
X132088428Y-94142642D01*
X132302714Y-94214071D01*
X132445571Y-94214071D01*
X132659857Y-94142642D01*
X132731285Y-94071214D01*
X132731285Y-93571214D01*
X132445571Y-93571214D01*
X134302714Y-92714071D02*
X134802714Y-94214071D01*
X135302714Y-92714071D01*
X137445571Y-93428357D02*
X137659857Y-93499785D01*
X137731285Y-93571214D01*
X137802714Y-93714071D01*
X137802714Y-93928357D01*
X137731285Y-94071214D01*
X137659857Y-94142642D01*
X137517000Y-94214071D01*
X136945571Y-94214071D01*
X136945571Y-92714071D01*
X137445571Y-92714071D01*
X137588428Y-92785500D01*
X137659857Y-92856928D01*
X137731285Y-92999785D01*
X137731285Y-93142642D01*
X137659857Y-93285500D01*
X137588428Y-93356928D01*
X137445571Y-93428357D01*
X136945571Y-93428357D01*
X139517000Y-93785500D02*
X140231285Y-93785500D01*
X139374142Y-94214071D02*
X139874142Y-92714071D01*
X140374142Y-94214071D01*
D12*
%TO.C,U5*%
X128358900Y-105752900D02*
X128358900Y-109105700D01*
X128358900Y-109105700D02*
X128580261Y-109105700D01*
X130721100Y-109105700D02*
X130721100Y-105752900D01*
X130721100Y-105752900D02*
X130499739Y-105752900D01*
X128580261Y-105752900D02*
X128358900Y-105752900D01*
X130499739Y-109105700D02*
X130721100Y-109105700D01*
X129973136Y-105186954D02*
G75*
G03*
X130116200Y-105223500I66864J-36546D01*
G01*
D13*
%TO.C,R8*%
X148006876Y-111159900D02*
X148516324Y-111159900D01*
X148006876Y-110114900D02*
X148516324Y-110114900D01*
D14*
%TO.C,J1*%
X141601100Y-99775600D02*
X141601100Y-97775600D01*
D15*
X131601100Y-100275600D02*
X131601100Y-97275600D01*
X141601100Y-100975600D02*
X141601100Y-96575600D01*
X141601100Y-96575600D02*
X139801100Y-96575600D01*
X131601100Y-96575600D02*
X131601100Y-100975600D01*
X141601100Y-100975600D02*
X131601100Y-100975600D01*
X141601100Y-96575600D02*
X141601100Y-95975600D01*
X141601100Y-95975600D02*
X139801100Y-95975600D01*
X139801100Y-95975600D02*
X139801100Y-96575600D01*
X139801100Y-96575600D02*
X133401100Y-96575600D01*
X133401100Y-96575600D02*
X131601100Y-96575600D01*
X133401100Y-96575600D02*
X133401100Y-95975600D01*
X133401100Y-95975600D02*
X131601100Y-95975600D01*
X131601100Y-95975600D02*
X131601100Y-96575600D01*
D13*
%TO.C,LED1*%
X154880900Y-111586000D02*
X154880900Y-111741000D01*
X154880900Y-110326000D02*
X154880900Y-110136000D01*
X158300900Y-108876000D02*
X158300900Y-108721000D01*
X158300900Y-110326000D02*
X158300900Y-110136000D01*
X154880900Y-108876000D02*
X154880900Y-108721000D01*
X158300900Y-108721000D02*
X154880900Y-108721000D01*
X158590900Y-111741000D02*
X154880900Y-111741000D01*
%TO.C,R7*%
X151814976Y-107676500D02*
X152324424Y-107676500D01*
X151814976Y-108721500D02*
X152324424Y-108721500D01*
%TO.C,R6*%
X151410476Y-110368900D02*
X151919924Y-110368900D01*
X151410476Y-111413900D02*
X151919924Y-111413900D01*
%TO.C,J10*%
X165215000Y-114446500D02*
X165215000Y-116566500D01*
X167275000Y-114446500D02*
X165215000Y-114446500D01*
X167275000Y-116566500D02*
X165215000Y-116566500D01*
X167275000Y-114446500D02*
X167275000Y-116566500D01*
X168275000Y-114446500D02*
X169335000Y-114446500D01*
X169335000Y-114446500D02*
X169335000Y-115506500D01*
%TO.C,C7*%
X145555580Y-108456000D02*
X145274420Y-108456000D01*
X145555580Y-109476000D02*
X145274420Y-109476000D01*
D12*
%TO.C,U4*%
X140378398Y-107810300D02*
X142257998Y-107810300D01*
X141368998Y-109994700D02*
X142384998Y-109994700D01*
D13*
%TO.C,C6*%
X129539420Y-103312500D02*
X129820580Y-103312500D01*
X129539420Y-104332500D02*
X129820580Y-104332500D01*
%TO.C,R5*%
X132065500Y-107656724D02*
X132065500Y-107147276D01*
X133110500Y-107656724D02*
X133110500Y-107147276D01*
%TO.C,C5*%
X167642000Y-101319420D02*
X167642000Y-101600580D01*
X166622000Y-101319420D02*
X166622000Y-101600580D01*
%TO.C,C4*%
X163498520Y-109873400D02*
X163779680Y-109873400D01*
X163498520Y-110893400D02*
X163779680Y-110893400D01*
%TO.C,C3*%
X137694580Y-106809000D02*
X137413420Y-106809000D01*
X137694580Y-105789000D02*
X137413420Y-105789000D01*
%TO.C,C2*%
X134495000Y-103758420D02*
X134495000Y-104039580D01*
X133475000Y-103758420D02*
X133475000Y-104039580D01*
%TO.C,R4*%
X163244000Y-114830776D02*
X163244000Y-115340224D01*
X164289000Y-114830776D02*
X164289000Y-115340224D01*
%TO.C,R3*%
X167082376Y-113730300D02*
X167591824Y-113730300D01*
X167082376Y-112685300D02*
X167591824Y-112685300D01*
%TO.C,R2*%
X167131276Y-111558600D02*
X167640724Y-111558600D01*
X167131276Y-110513600D02*
X167640724Y-110513600D01*
%TO.C,J11*%
X170334533Y-93924200D02*
G75*
G03*
X170334533Y-93924200I-1500833J0D01*
G01*
D12*
%TO.C,J9*%
X126421699Y-95864001D02*
X126421699Y-102010801D01*
X126421699Y-102010801D02*
X131171499Y-102010801D01*
X131171499Y-102010801D02*
X131171499Y-95864001D01*
X131171499Y-95864001D02*
X126421699Y-95864001D01*
X128625500Y-102645801D02*
G75*
G03*
X128625500Y-102645801I-381000J0D01*
G01*
%TO.C,J8*%
X129266499Y-110932800D02*
X129266499Y-117079600D01*
X129266499Y-117079600D02*
X134016299Y-117079600D01*
X134016299Y-117079600D02*
X134016299Y-110932800D01*
X134016299Y-110932800D02*
X129266499Y-110932800D01*
X131470300Y-117714600D02*
G75*
G03*
X131470300Y-117714600I-381000J0D01*
G01*
%TO.C,U1*%
X160007300Y-108902500D02*
X165671500Y-108902500D01*
X165671500Y-108902500D02*
X165671500Y-108550044D01*
X165671500Y-103187500D02*
X160007300Y-103187500D01*
X160007300Y-103187500D02*
X160007300Y-103539956D01*
X160007300Y-108550044D02*
X160007300Y-108902500D01*
X165671500Y-103539956D02*
X165671500Y-103187500D01*
D13*
%TO.C,U3*%
X136968000Y-105173000D02*
X138868000Y-105173000D01*
X138368000Y-102853000D02*
X136968000Y-102853000D01*
D14*
%TO.C,J2*%
X153539100Y-99775600D02*
X153539100Y-97775600D01*
D15*
X143539100Y-100275600D02*
X143539100Y-97275600D01*
X153539100Y-100975600D02*
X153539100Y-96575600D01*
X153539100Y-96575600D02*
X151739100Y-96575600D01*
X143539100Y-96575600D02*
X143539100Y-100975600D01*
X153539100Y-100975600D02*
X143539100Y-100975600D01*
X153539100Y-96575600D02*
X153539100Y-95975600D01*
X153539100Y-95975600D02*
X151739100Y-95975600D01*
X151739100Y-95975600D02*
X151739100Y-96575600D01*
X151739100Y-96575600D02*
X145339100Y-96575600D01*
X145339100Y-96575600D02*
X143539100Y-96575600D01*
X145339100Y-96575600D02*
X145339100Y-95975600D01*
X145339100Y-95975600D02*
X143539100Y-95975600D01*
X143539100Y-95975600D02*
X143539100Y-96575600D01*
D14*
%TO.C,J3*%
X165477100Y-99775600D02*
X165477100Y-97775600D01*
D15*
X155477100Y-100275600D02*
X155477100Y-97275600D01*
X165477100Y-100975600D02*
X165477100Y-96575600D01*
X165477100Y-96575600D02*
X163677100Y-96575600D01*
X155477100Y-96575600D02*
X155477100Y-100975600D01*
X165477100Y-100975600D02*
X155477100Y-100975600D01*
X165477100Y-96575600D02*
X165477100Y-95975600D01*
X165477100Y-95975600D02*
X163677100Y-95975600D01*
X163677100Y-95975600D02*
X163677100Y-96575600D01*
X163677100Y-96575600D02*
X157277100Y-96575600D01*
X157277100Y-96575600D02*
X155477100Y-96575600D01*
X157277100Y-96575600D02*
X157277100Y-95975600D01*
X157277100Y-95975600D02*
X155477100Y-95975600D01*
X155477100Y-95975600D02*
X155477100Y-96575600D01*
D16*
%TO.C,LOGO1*%
G36*
X137888600Y-110027631D02*
G01*
X137888600Y-109707632D01*
X137528600Y-109647632D01*
X137528600Y-109607632D01*
X137518600Y-109597632D01*
X137518600Y-109577632D01*
X137508600Y-109567632D01*
X137498600Y-109547632D01*
X137498600Y-109527632D01*
X137488600Y-109517632D01*
X137488600Y-109497632D01*
X137478600Y-109487632D01*
X137468600Y-109467632D01*
X137458600Y-109457632D01*
X137458600Y-109437632D01*
X137448600Y-109427632D01*
X137438600Y-109407632D01*
X137428600Y-109397632D01*
X137638600Y-109107632D01*
X137408600Y-108887632D01*
X137118600Y-109087632D01*
X137108600Y-109077632D01*
X137088600Y-109067632D01*
X137078600Y-109067632D01*
X137058600Y-109057632D01*
X137048600Y-109047632D01*
X137028600Y-109037632D01*
X137018600Y-109037632D01*
X136998600Y-109027632D01*
X136988600Y-109017632D01*
X136968600Y-109017632D01*
X136948600Y-109007632D01*
X136938600Y-109007632D01*
X136918600Y-108997632D01*
X136908600Y-108997632D01*
X136888600Y-108987632D01*
X136868600Y-108987632D01*
X136808600Y-108637632D01*
X136488600Y-108637632D01*
X136428600Y-108987632D01*
X136418600Y-108987632D01*
X136398600Y-108997632D01*
X136378600Y-108997632D01*
X136368600Y-109007632D01*
X136348600Y-109007632D01*
X136328600Y-109017632D01*
X136318600Y-109017632D01*
X136298600Y-109027632D01*
X136288600Y-109037632D01*
X136268600Y-109037632D01*
X136258600Y-109047632D01*
X136238600Y-109057632D01*
X136228600Y-109067632D01*
X136208600Y-109067632D01*
X136198600Y-109077632D01*
X136178600Y-109087632D01*
X135888600Y-108887632D01*
X135668600Y-109107632D01*
X135868600Y-109397632D01*
X135858600Y-109407632D01*
X135858600Y-109427632D01*
X135848600Y-109437632D01*
X135838600Y-109457632D01*
X135828600Y-109467632D01*
X135828600Y-109487632D01*
X135818600Y-109497632D01*
X135808600Y-109517632D01*
X135808600Y-109527632D01*
X135788600Y-109567632D01*
X135788600Y-109577632D01*
X135778600Y-109597632D01*
X135778600Y-109607632D01*
X135768600Y-109627632D01*
X135768600Y-109647632D01*
X135418600Y-109707632D01*
X135418600Y-110027631D01*
X135768600Y-110087631D01*
X135768600Y-110097631D01*
X135778600Y-110117631D01*
X135778600Y-110137631D01*
X135788600Y-110147631D01*
X135788600Y-110167631D01*
X135798600Y-110177631D01*
X135808600Y-110197631D01*
X135808600Y-110217631D01*
X135818600Y-110227631D01*
X135818600Y-110247631D01*
X135828600Y-110257631D01*
X135838600Y-110277631D01*
X135848600Y-110287631D01*
X135858600Y-110307631D01*
X135858600Y-110317631D01*
X135868600Y-110337631D01*
X135668600Y-110617631D01*
X135888600Y-110847631D01*
X136178600Y-110647631D01*
X136188600Y-110647631D01*
X136198600Y-110657631D01*
X136208600Y-110657631D01*
X136218600Y-110667631D01*
X136228600Y-110667631D01*
X136238600Y-110677631D01*
X136248600Y-110677631D01*
X136258600Y-110687631D01*
X136268600Y-110687631D01*
X136278600Y-110697631D01*
X136288600Y-110697631D01*
X136298600Y-110707631D01*
X136318600Y-110707631D01*
X136328600Y-110717631D01*
X136528600Y-110177631D01*
X136498600Y-110167631D01*
X136458600Y-110147631D01*
X136438600Y-110127631D01*
X136418600Y-110117631D01*
X136398600Y-110097631D01*
X136388600Y-110077631D01*
X136368600Y-110057631D01*
X136348600Y-110017631D01*
X136338600Y-109987631D01*
X136318600Y-109947631D01*
X136318600Y-109917631D01*
X136308600Y-109887631D01*
X136308600Y-109827632D01*
X136348600Y-109707632D01*
X136388600Y-109647632D01*
X136408600Y-109627632D01*
X136438600Y-109607632D01*
X136458600Y-109587632D01*
X136488600Y-109567632D01*
X136518600Y-109557632D01*
X136548600Y-109537632D01*
X136578600Y-109537632D01*
X136618600Y-109527632D01*
X136688600Y-109527632D01*
X136718600Y-109537632D01*
X136748600Y-109537632D01*
X136778600Y-109557632D01*
X136808600Y-109567632D01*
X136868600Y-109607632D01*
X136908600Y-109647632D01*
X136948600Y-109707632D01*
X136958600Y-109737632D01*
X136978600Y-109767632D01*
X136978600Y-109797632D01*
X136988600Y-109827632D01*
X136988600Y-109917631D01*
X136978600Y-109947631D01*
X136978600Y-109967631D01*
X136968600Y-109987631D01*
X136958600Y-110017631D01*
X136948600Y-110037631D01*
X136928600Y-110057631D01*
X136918600Y-110077631D01*
X136878600Y-110117631D01*
X136858600Y-110127631D01*
X136838600Y-110147631D01*
X136778600Y-110177631D01*
X136978600Y-110717631D01*
X136978600Y-110707631D01*
X136998600Y-110707631D01*
X137008600Y-110697631D01*
X137018600Y-110697631D01*
X137028600Y-110687631D01*
X137038600Y-110687631D01*
X137048600Y-110677631D01*
X137068600Y-110677631D01*
X137078600Y-110667631D01*
X137088600Y-110667631D01*
X137108600Y-110647631D01*
X137118600Y-110647631D01*
X137408600Y-110847631D01*
X137638600Y-110617631D01*
X137428600Y-110337631D01*
X137438600Y-110317631D01*
X137448600Y-110307631D01*
X137458600Y-110287631D01*
X137458600Y-110277631D01*
X137468600Y-110257631D01*
X137478600Y-110247631D01*
X137488600Y-110227631D01*
X137488600Y-110217631D01*
X137508600Y-110177631D01*
X137508600Y-110167631D01*
X137518600Y-110147631D01*
X137518600Y-110137631D01*
X137528600Y-110117631D01*
X137528600Y-110097631D01*
X137538600Y-110087631D01*
X137888600Y-110027631D01*
G37*
D13*
%TO.C,R1*%
X152424224Y-103490500D02*
X151914776Y-103490500D01*
X152424224Y-104535500D02*
X151914776Y-104535500D01*
%TO.C,U5*%
D17*
X126833380Y-108191204D02*
X127642904Y-108191204D01*
X127738142Y-108143585D01*
X127785761Y-108095966D01*
X127833380Y-108000728D01*
X127833380Y-107810252D01*
X127785761Y-107715014D01*
X127738142Y-107667395D01*
X127642904Y-107619776D01*
X126833380Y-107619776D01*
X126833380Y-106667395D02*
X126833380Y-107143585D01*
X127309571Y-107191204D01*
X127261952Y-107143585D01*
X127214333Y-107048347D01*
X127214333Y-106810252D01*
X127261952Y-106715014D01*
X127309571Y-106667395D01*
X127404809Y-106619776D01*
X127642904Y-106619776D01*
X127738142Y-106667395D01*
X127785761Y-106715014D01*
X127833380Y-106810252D01*
X127833380Y-107048347D01*
X127785761Y-107143585D01*
X127738142Y-107191204D01*
%TO.C,R8*%
X147534233Y-109870580D02*
X147200900Y-109394390D01*
X146962804Y-109870580D02*
X146962804Y-108870580D01*
X147343757Y-108870580D01*
X147438995Y-108918200D01*
X147486614Y-108965819D01*
X147534233Y-109061057D01*
X147534233Y-109203914D01*
X147486614Y-109299152D01*
X147438995Y-109346771D01*
X147343757Y-109394390D01*
X146962804Y-109394390D01*
X148105661Y-109299152D02*
X148010423Y-109251533D01*
X147962804Y-109203914D01*
X147915185Y-109108676D01*
X147915185Y-109061057D01*
X147962804Y-108965819D01*
X148010423Y-108918200D01*
X148105661Y-108870580D01*
X148296138Y-108870580D01*
X148391376Y-108918200D01*
X148438995Y-108965819D01*
X148486614Y-109061057D01*
X148486614Y-109108676D01*
X148438995Y-109203914D01*
X148391376Y-109251533D01*
X148296138Y-109299152D01*
X148105661Y-109299152D01*
X148010423Y-109346771D01*
X147962804Y-109394390D01*
X147915185Y-109489628D01*
X147915185Y-109680104D01*
X147962804Y-109775342D01*
X148010423Y-109822961D01*
X148105661Y-109870580D01*
X148296138Y-109870580D01*
X148391376Y-109822961D01*
X148438995Y-109775342D01*
X148486614Y-109680104D01*
X148486614Y-109489628D01*
X148438995Y-109394390D01*
X148391376Y-109346771D01*
X148296138Y-109299152D01*
%TO.C,LED1*%
X154887852Y-108357780D02*
X154411661Y-108357780D01*
X154411661Y-107357780D01*
X155221185Y-107833971D02*
X155554519Y-107833971D01*
X155697376Y-108357780D02*
X155221185Y-108357780D01*
X155221185Y-107357780D01*
X155697376Y-107357780D01*
X156125947Y-108357780D02*
X156125947Y-107357780D01*
X156364042Y-107357780D01*
X156506900Y-107405400D01*
X156602138Y-107500638D01*
X156649757Y-107595876D01*
X156697376Y-107786352D01*
X156697376Y-107929209D01*
X156649757Y-108119685D01*
X156602138Y-108214923D01*
X156506900Y-108310161D01*
X156364042Y-108357780D01*
X156125947Y-108357780D01*
X157649757Y-108357780D02*
X157078328Y-108357780D01*
X157364042Y-108357780D02*
X157364042Y-107357780D01*
X157268804Y-107500638D01*
X157173566Y-107595876D01*
X157078328Y-107643495D01*
X154050900Y-109429380D02*
X154050900Y-109667476D01*
X153812804Y-109572238D02*
X154050900Y-109667476D01*
X154288995Y-109572238D01*
X153908042Y-109857952D02*
X154050900Y-109667476D01*
X154193757Y-109857952D01*
%TO.C,R7*%
X151697933Y-107381380D02*
X151364600Y-106905190D01*
X151126504Y-107381380D02*
X151126504Y-106381380D01*
X151507457Y-106381380D01*
X151602695Y-106429000D01*
X151650314Y-106476619D01*
X151697933Y-106571857D01*
X151697933Y-106714714D01*
X151650314Y-106809952D01*
X151602695Y-106857571D01*
X151507457Y-106905190D01*
X151126504Y-106905190D01*
X152031266Y-106381380D02*
X152697933Y-106381380D01*
X152269361Y-107381380D01*
%TO.C,R6*%
X151344233Y-109921380D02*
X151010900Y-109445190D01*
X150772804Y-109921380D02*
X150772804Y-108921380D01*
X151153757Y-108921380D01*
X151248995Y-108969000D01*
X151296614Y-109016619D01*
X151344233Y-109111857D01*
X151344233Y-109254714D01*
X151296614Y-109349952D01*
X151248995Y-109397571D01*
X151153757Y-109445190D01*
X150772804Y-109445190D01*
X152201376Y-108921380D02*
X152010900Y-108921380D01*
X151915661Y-108969000D01*
X151868042Y-109016619D01*
X151772804Y-109159476D01*
X151725185Y-109349952D01*
X151725185Y-109730904D01*
X151772804Y-109826142D01*
X151820423Y-109873761D01*
X151915661Y-109921380D01*
X152106138Y-109921380D01*
X152201376Y-109873761D01*
X152248995Y-109826142D01*
X152296614Y-109730904D01*
X152296614Y-109492809D01*
X152248995Y-109397571D01*
X152201376Y-109349952D01*
X152106138Y-109302333D01*
X151915661Y-109302333D01*
X151820423Y-109349952D01*
X151772804Y-109397571D01*
X151725185Y-109492809D01*
%TO.C,J10*%
X167592476Y-116482880D02*
X167592476Y-117197166D01*
X167544857Y-117340023D01*
X167449619Y-117435261D01*
X167306761Y-117482880D01*
X167211523Y-117482880D01*
X168592476Y-117482880D02*
X168021047Y-117482880D01*
X168306761Y-117482880D02*
X168306761Y-116482880D01*
X168211523Y-116625738D01*
X168116285Y-116720976D01*
X168021047Y-116768595D01*
X169211523Y-116482880D02*
X169306761Y-116482880D01*
X169402000Y-116530500D01*
X169449619Y-116578119D01*
X169497238Y-116673357D01*
X169544857Y-116863833D01*
X169544857Y-117101928D01*
X169497238Y-117292404D01*
X169449619Y-117387642D01*
X169402000Y-117435261D01*
X169306761Y-117482880D01*
X169211523Y-117482880D01*
X169116285Y-117435261D01*
X169068666Y-117387642D01*
X169021047Y-117292404D01*
X168973428Y-117101928D01*
X168973428Y-116863833D01*
X169021047Y-116673357D01*
X169068666Y-116578119D01*
X169116285Y-116530500D01*
X169211523Y-116482880D01*
%TO.C,C7*%
X146137333Y-107799142D02*
X146089714Y-107846761D01*
X145946857Y-107894380D01*
X145851619Y-107894380D01*
X145708761Y-107846761D01*
X145613523Y-107751523D01*
X145565904Y-107656285D01*
X145518285Y-107465809D01*
X145518285Y-107322952D01*
X145565904Y-107132476D01*
X145613523Y-107037238D01*
X145708761Y-106942000D01*
X145851619Y-106894380D01*
X145946857Y-106894380D01*
X146089714Y-106942000D01*
X146137333Y-106989619D01*
X146470666Y-106894380D02*
X147137333Y-106894380D01*
X146708761Y-107894380D01*
%TO.C,U4*%
X138366595Y-108418380D02*
X138366595Y-109227904D01*
X138414214Y-109323142D01*
X138461833Y-109370761D01*
X138557071Y-109418380D01*
X138747547Y-109418380D01*
X138842785Y-109370761D01*
X138890404Y-109323142D01*
X138938023Y-109227904D01*
X138938023Y-108418380D01*
X139842785Y-108751714D02*
X139842785Y-109418380D01*
X139604690Y-108370761D02*
X139366595Y-109085047D01*
X139985642Y-109085047D01*
%TO.C,C6*%
X130071833Y-103100142D02*
X130024214Y-103147761D01*
X129881357Y-103195380D01*
X129786119Y-103195380D01*
X129643261Y-103147761D01*
X129548023Y-103052523D01*
X129500404Y-102957285D01*
X129452785Y-102766809D01*
X129452785Y-102623952D01*
X129500404Y-102433476D01*
X129548023Y-102338238D01*
X129643261Y-102243000D01*
X129786119Y-102195380D01*
X129881357Y-102195380D01*
X130024214Y-102243000D01*
X130071833Y-102290619D01*
X130928976Y-102195380D02*
X130738500Y-102195380D01*
X130643261Y-102243000D01*
X130595642Y-102290619D01*
X130500404Y-102433476D01*
X130452785Y-102623952D01*
X130452785Y-103004904D01*
X130500404Y-103100142D01*
X130548023Y-103147761D01*
X130643261Y-103195380D01*
X130833738Y-103195380D01*
X130928976Y-103147761D01*
X130976595Y-103100142D01*
X131024214Y-103004904D01*
X131024214Y-102766809D01*
X130976595Y-102671571D01*
X130928976Y-102623952D01*
X130833738Y-102576333D01*
X130643261Y-102576333D01*
X130548023Y-102623952D01*
X130500404Y-102671571D01*
X130452785Y-102766809D01*
%TO.C,R5*%
X134691380Y-107719166D02*
X134215190Y-108052500D01*
X134691380Y-108290595D02*
X133691380Y-108290595D01*
X133691380Y-107909642D01*
X133739000Y-107814404D01*
X133786619Y-107766785D01*
X133881857Y-107719166D01*
X134024714Y-107719166D01*
X134119952Y-107766785D01*
X134167571Y-107814404D01*
X134215190Y-107909642D01*
X134215190Y-108290595D01*
X133691380Y-106814404D02*
X133691380Y-107290595D01*
X134167571Y-107338214D01*
X134119952Y-107290595D01*
X134072333Y-107195357D01*
X134072333Y-106957261D01*
X134119952Y-106862023D01*
X134167571Y-106814404D01*
X134262809Y-106766785D01*
X134500904Y-106766785D01*
X134596142Y-106814404D01*
X134643761Y-106862023D01*
X134691380Y-106957261D01*
X134691380Y-107195357D01*
X134643761Y-107290595D01*
X134596142Y-107338214D01*
%TO.C,C5*%
X169013142Y-101258666D02*
X169060761Y-101306285D01*
X169108380Y-101449142D01*
X169108380Y-101544380D01*
X169060761Y-101687238D01*
X168965523Y-101782476D01*
X168870285Y-101830095D01*
X168679809Y-101877714D01*
X168536952Y-101877714D01*
X168346476Y-101830095D01*
X168251238Y-101782476D01*
X168156000Y-101687238D01*
X168108380Y-101544380D01*
X168108380Y-101449142D01*
X168156000Y-101306285D01*
X168203619Y-101258666D01*
X168108380Y-100353904D02*
X168108380Y-100830095D01*
X168584571Y-100877714D01*
X168536952Y-100830095D01*
X168489333Y-100734857D01*
X168489333Y-100496761D01*
X168536952Y-100401523D01*
X168584571Y-100353904D01*
X168679809Y-100306285D01*
X168917904Y-100306285D01*
X169013142Y-100353904D01*
X169060761Y-100401523D01*
X169108380Y-100496761D01*
X169108380Y-100734857D01*
X169060761Y-100830095D01*
X169013142Y-100877714D01*
%TO.C,C4*%
X163079033Y-112112142D02*
X163031414Y-112159761D01*
X162888557Y-112207380D01*
X162793319Y-112207380D01*
X162650461Y-112159761D01*
X162555223Y-112064523D01*
X162507604Y-111969285D01*
X162459985Y-111778809D01*
X162459985Y-111635952D01*
X162507604Y-111445476D01*
X162555223Y-111350238D01*
X162650461Y-111255000D01*
X162793319Y-111207380D01*
X162888557Y-111207380D01*
X163031414Y-111255000D01*
X163079033Y-111302619D01*
X163936176Y-111540714D02*
X163936176Y-112207380D01*
X163698080Y-111159761D02*
X163459985Y-111874047D01*
X164079033Y-111874047D01*
%TO.C,C3*%
X137387333Y-108086142D02*
X137339714Y-108133761D01*
X137196857Y-108181380D01*
X137101619Y-108181380D01*
X136958761Y-108133761D01*
X136863523Y-108038523D01*
X136815904Y-107943285D01*
X136768285Y-107752809D01*
X136768285Y-107609952D01*
X136815904Y-107419476D01*
X136863523Y-107324238D01*
X136958761Y-107229000D01*
X137101619Y-107181380D01*
X137196857Y-107181380D01*
X137339714Y-107229000D01*
X137387333Y-107276619D01*
X137720666Y-107181380D02*
X138339714Y-107181380D01*
X138006380Y-107562333D01*
X138149238Y-107562333D01*
X138244476Y-107609952D01*
X138292095Y-107657571D01*
X138339714Y-107752809D01*
X138339714Y-107990904D01*
X138292095Y-108086142D01*
X138244476Y-108133761D01*
X138149238Y-108181380D01*
X137863523Y-108181380D01*
X137768285Y-108133761D01*
X137720666Y-108086142D01*
%TO.C,C2*%
X133072142Y-104116166D02*
X133119761Y-104163785D01*
X133167380Y-104306642D01*
X133167380Y-104401880D01*
X133119761Y-104544738D01*
X133024523Y-104639976D01*
X132929285Y-104687595D01*
X132738809Y-104735214D01*
X132595952Y-104735214D01*
X132405476Y-104687595D01*
X132310238Y-104639976D01*
X132215000Y-104544738D01*
X132167380Y-104401880D01*
X132167380Y-104306642D01*
X132215000Y-104163785D01*
X132262619Y-104116166D01*
X132262619Y-103735214D02*
X132215000Y-103687595D01*
X132167380Y-103592357D01*
X132167380Y-103354261D01*
X132215000Y-103259023D01*
X132262619Y-103211404D01*
X132357857Y-103163785D01*
X132453095Y-103163785D01*
X132595952Y-103211404D01*
X133167380Y-103782833D01*
X133167380Y-103163785D01*
%TO.C,R4*%
X162631380Y-115292166D02*
X162155190Y-115625500D01*
X162631380Y-115863595D02*
X161631380Y-115863595D01*
X161631380Y-115482642D01*
X161679000Y-115387404D01*
X161726619Y-115339785D01*
X161821857Y-115292166D01*
X161964714Y-115292166D01*
X162059952Y-115339785D01*
X162107571Y-115387404D01*
X162155190Y-115482642D01*
X162155190Y-115863595D01*
X161964714Y-114435023D02*
X162631380Y-114435023D01*
X161583761Y-114673119D02*
X162298047Y-114911214D01*
X162298047Y-114292166D01*
%TO.C,R3*%
X164615833Y-113609380D02*
X164282500Y-113133190D01*
X164044404Y-113609380D02*
X164044404Y-112609380D01*
X164425357Y-112609380D01*
X164520595Y-112657000D01*
X164568214Y-112704619D01*
X164615833Y-112799857D01*
X164615833Y-112942714D01*
X164568214Y-113037952D01*
X164520595Y-113085571D01*
X164425357Y-113133190D01*
X164044404Y-113133190D01*
X164949166Y-112609380D02*
X165568214Y-112609380D01*
X165234880Y-112990333D01*
X165377738Y-112990333D01*
X165472976Y-113037952D01*
X165520595Y-113085571D01*
X165568214Y-113180809D01*
X165568214Y-113418904D01*
X165520595Y-113514142D01*
X165472976Y-113561761D01*
X165377738Y-113609380D01*
X165092023Y-113609380D01*
X164996785Y-113561761D01*
X164949166Y-113514142D01*
%TO.C,R2*%
X168971833Y-110276980D02*
X168638500Y-109800790D01*
X168400404Y-110276980D02*
X168400404Y-109276980D01*
X168781357Y-109276980D01*
X168876595Y-109324600D01*
X168924214Y-109372219D01*
X168971833Y-109467457D01*
X168971833Y-109610314D01*
X168924214Y-109705552D01*
X168876595Y-109753171D01*
X168781357Y-109800790D01*
X168400404Y-109800790D01*
X169352785Y-109372219D02*
X169400404Y-109324600D01*
X169495642Y-109276980D01*
X169733738Y-109276980D01*
X169828976Y-109324600D01*
X169876595Y-109372219D01*
X169924214Y-109467457D01*
X169924214Y-109562695D01*
X169876595Y-109705552D01*
X169305166Y-110276980D01*
X169924214Y-110276980D01*
%TO.C,J11*%
X167668576Y-96018180D02*
X167668576Y-96732466D01*
X167620957Y-96875323D01*
X167525719Y-96970561D01*
X167382861Y-97018180D01*
X167287623Y-97018180D01*
X168668576Y-97018180D02*
X168097147Y-97018180D01*
X168382861Y-97018180D02*
X168382861Y-96018180D01*
X168287623Y-96161038D01*
X168192385Y-96256276D01*
X168097147Y-96303895D01*
X169620957Y-97018180D02*
X169049528Y-97018180D01*
X169335242Y-97018180D02*
X169335242Y-96018180D01*
X169240004Y-96161038D01*
X169144766Y-96256276D01*
X169049528Y-96303895D01*
%TO.C,J9*%
X130451166Y-94373281D02*
X130451166Y-95087567D01*
X130403547Y-95230424D01*
X130308309Y-95325662D01*
X130165452Y-95373281D01*
X130070214Y-95373281D01*
X130974976Y-95373281D02*
X131165452Y-95373281D01*
X131260690Y-95325662D01*
X131308309Y-95278043D01*
X131403547Y-95135186D01*
X131451166Y-94944710D01*
X131451166Y-94563758D01*
X131403547Y-94468520D01*
X131355928Y-94420901D01*
X131260690Y-94373281D01*
X131070214Y-94373281D01*
X130974976Y-94420901D01*
X130927357Y-94468520D01*
X130879738Y-94563758D01*
X130879738Y-94801853D01*
X130927357Y-94897091D01*
X130974976Y-94944710D01*
X131070214Y-94992329D01*
X131260690Y-94992329D01*
X131355928Y-94944710D01*
X131403547Y-94897091D01*
X131451166Y-94801853D01*
%TO.C,J8*%
X131619566Y-109276980D02*
X131619566Y-109991266D01*
X131571947Y-110134123D01*
X131476709Y-110229361D01*
X131333852Y-110276980D01*
X131238614Y-110276980D01*
X132238614Y-109705552D02*
X132143376Y-109657933D01*
X132095757Y-109610314D01*
X132048138Y-109515076D01*
X132048138Y-109467457D01*
X132095757Y-109372219D01*
X132143376Y-109324600D01*
X132238614Y-109276980D01*
X132429090Y-109276980D01*
X132524328Y-109324600D01*
X132571947Y-109372219D01*
X132619566Y-109467457D01*
X132619566Y-109515076D01*
X132571947Y-109610314D01*
X132524328Y-109657933D01*
X132429090Y-109705552D01*
X132238614Y-109705552D01*
X132143376Y-109753171D01*
X132095757Y-109800790D01*
X132048138Y-109896028D01*
X132048138Y-110086504D01*
X132095757Y-110181742D01*
X132143376Y-110229361D01*
X132238614Y-110276980D01*
X132429090Y-110276980D01*
X132524328Y-110229361D01*
X132571947Y-110181742D01*
X132619566Y-110086504D01*
X132619566Y-109896028D01*
X132571947Y-109800790D01*
X132524328Y-109753171D01*
X132429090Y-109705552D01*
X130541680Y-115006200D02*
X130779776Y-115006200D01*
X130684538Y-115244295D02*
X130779776Y-115006200D01*
X130684538Y-114768104D01*
X130970252Y-115149057D02*
X130779776Y-115006200D01*
X130970252Y-114863342D01*
%TO.C,U1*%
X156590995Y-104603380D02*
X156590995Y-105412904D01*
X156638614Y-105508142D01*
X156686233Y-105555761D01*
X156781471Y-105603380D01*
X156971947Y-105603380D01*
X157067185Y-105555761D01*
X157114804Y-105508142D01*
X157162423Y-105412904D01*
X157162423Y-104603380D01*
X158162423Y-105603380D02*
X157590995Y-105603380D01*
X157876709Y-105603380D02*
X157876709Y-104603380D01*
X157781471Y-104746238D01*
X157686233Y-104841476D01*
X157590995Y-104889095D01*
X157708600Y-103871780D02*
X157708600Y-104109876D01*
X157470504Y-104014638D02*
X157708600Y-104109876D01*
X157946695Y-104014638D01*
X157565742Y-104300352D02*
X157708600Y-104109876D01*
X157851457Y-104300352D01*
%TO.C,U3*%
X140081095Y-103592380D02*
X140081095Y-104401904D01*
X140128714Y-104497142D01*
X140176333Y-104544761D01*
X140271571Y-104592380D01*
X140462047Y-104592380D01*
X140557285Y-104544761D01*
X140604904Y-104497142D01*
X140652523Y-104401904D01*
X140652523Y-103592380D01*
X141033476Y-103592380D02*
X141652523Y-103592380D01*
X141319190Y-103973333D01*
X141462047Y-103973333D01*
X141557285Y-104020952D01*
X141604904Y-104068571D01*
X141652523Y-104163809D01*
X141652523Y-104401904D01*
X141604904Y-104497142D01*
X141557285Y-104544761D01*
X141462047Y-104592380D01*
X141176333Y-104592380D01*
X141081095Y-104544761D01*
X141033476Y-104497142D01*
%TO.C,R1*%
X154646333Y-103576380D02*
X154313000Y-103100190D01*
X154074904Y-103576380D02*
X154074904Y-102576380D01*
X154455857Y-102576380D01*
X154551095Y-102624000D01*
X154598714Y-102671619D01*
X154646333Y-102766857D01*
X154646333Y-102909714D01*
X154598714Y-103004952D01*
X154551095Y-103052571D01*
X154455857Y-103100190D01*
X154074904Y-103100190D01*
X155598714Y-103576380D02*
X155027285Y-103576380D01*
X155313000Y-103576380D02*
X155313000Y-102576380D01*
X155217761Y-102719238D01*
X155122523Y-102814476D01*
X155027285Y-102862095D01*
%TD*%
M02*
