%TF.GenerationSoftware,KiCad,Pcbnew,(5.1.9)-1*%
%TF.CreationDate,2021-02-11T09:32:34-08:00*%
%TF.ProjectId,KNH002rev4,4b4e4830-3032-4726-9576-342e6b696361,rev?*%
%TF.SameCoordinates,Original*%
%TF.FileFunction,Soldermask,Top*%
%TF.FilePolarity,Negative*%
%FSLAX46Y46*%
G04 Gerber Fmt 4.6, Leading zero omitted, Abs format (unit mm)*
G04 Created by KiCad (PCBNEW (5.1.9)-1) date 2021-02-11 09:32:34*
%MOMM*%
%LPD*%
G01*
G04 APERTURE LIST*
%ADD10C,0.077216*%
%ADD11C,1.727200*%
%ADD12C,1.473200*%
%ADD13O,1.451600X1.451600*%
%ADD14C,2.501600*%
%ADD15C,1.422400*%
%ADD16C,1.778000*%
%ADD17C,2.082800*%
%ADD18C,0.100000*%
G04 APERTURE END LIST*
%TO.C,J1*%
D10*
X142377155Y-98759070D02*
X142377155Y-99310613D01*
X142340385Y-99420921D01*
X142266846Y-99494460D01*
X142156538Y-99531230D01*
X142082998Y-99531230D01*
X143149315Y-99531230D02*
X142708080Y-99531230D01*
X142928698Y-99531230D02*
X142928698Y-98759070D01*
X142855158Y-98869379D01*
X142781619Y-98942918D01*
X142708080Y-98979687D01*
X142377155Y-98759070D02*
X142377155Y-99310613D01*
X142340385Y-99420921D01*
X142266846Y-99494460D01*
X142156538Y-99531230D01*
X142082998Y-99531230D01*
X143149315Y-99531230D02*
X142708080Y-99531230D01*
X142928698Y-99531230D02*
X142928698Y-98759070D01*
X142855158Y-98869379D01*
X142781619Y-98942918D01*
X142708080Y-98979687D01*
X142377155Y-98759070D02*
X142377155Y-99310613D01*
X142340385Y-99420921D01*
X142266846Y-99494460D01*
X142156538Y-99531230D01*
X142082998Y-99531230D01*
X143149315Y-99531230D02*
X142708080Y-99531230D01*
X142928698Y-99531230D02*
X142928698Y-98759070D01*
X142855158Y-98869379D01*
X142781619Y-98942918D01*
X142708080Y-98979687D01*
X142377155Y-98759070D02*
X142377155Y-99310613D01*
X142340385Y-99420921D01*
X142266846Y-99494460D01*
X142156538Y-99531230D01*
X142082998Y-99531230D01*
X143149315Y-99531230D02*
X142708080Y-99531230D01*
X142928698Y-99531230D02*
X142928698Y-98759070D01*
X142855158Y-98869379D01*
X142781619Y-98942918D01*
X142708080Y-98979687D01*
X142377155Y-98759070D02*
X142377155Y-99310613D01*
X142340385Y-99420921D01*
X142266846Y-99494460D01*
X142156538Y-99531230D01*
X142082998Y-99531230D01*
X143149315Y-99531230D02*
X142708080Y-99531230D01*
X142928698Y-99531230D02*
X142928698Y-98759070D01*
X142855158Y-98869379D01*
X142781619Y-98942918D01*
X142708080Y-98979687D01*
X142377155Y-98759070D02*
X142377155Y-99310613D01*
X142340385Y-99420921D01*
X142266846Y-99494460D01*
X142156538Y-99531230D01*
X142082998Y-99531230D01*
X143149315Y-99531230D02*
X142708080Y-99531230D01*
X142928698Y-99531230D02*
X142928698Y-98759070D01*
X142855158Y-98869379D01*
X142781619Y-98942918D01*
X142708080Y-98979687D01*
X142377155Y-98759070D02*
X142377155Y-99310613D01*
X142340385Y-99420921D01*
X142266846Y-99494460D01*
X142156538Y-99531230D01*
X142082998Y-99531230D01*
X143149315Y-99531230D02*
X142708080Y-99531230D01*
X142928698Y-99531230D02*
X142928698Y-98759070D01*
X142855158Y-98869379D01*
X142781619Y-98942918D01*
X142708080Y-98979687D01*
X142377155Y-98759070D02*
X142377155Y-99310613D01*
X142340385Y-99420921D01*
X142266846Y-99494460D01*
X142156538Y-99531230D01*
X142082998Y-99531230D01*
X143149315Y-99531230D02*
X142708080Y-99531230D01*
X142928698Y-99531230D02*
X142928698Y-98759070D01*
X142855158Y-98869379D01*
X142781619Y-98942918D01*
X142708080Y-98979687D01*
X142377155Y-98759070D02*
X142377155Y-99310613D01*
X142340385Y-99420921D01*
X142266846Y-99494460D01*
X142156538Y-99531230D01*
X142082998Y-99531230D01*
X143149315Y-99531230D02*
X142708080Y-99531230D01*
X142928698Y-99531230D02*
X142928698Y-98759070D01*
X142855158Y-98869379D01*
X142781619Y-98942918D01*
X142708080Y-98979687D01*
X142377155Y-98759070D02*
X142377155Y-99310613D01*
X142340385Y-99420921D01*
X142266846Y-99494460D01*
X142156538Y-99531230D01*
X142082998Y-99531230D01*
X143149315Y-99531230D02*
X142708080Y-99531230D01*
X142928698Y-99531230D02*
X142928698Y-98759070D01*
X142855158Y-98869379D01*
X142781619Y-98942918D01*
X142708080Y-98979687D01*
X142377155Y-98759070D02*
X142377155Y-99310613D01*
X142340385Y-99420921D01*
X142266846Y-99494460D01*
X142156538Y-99531230D01*
X142082998Y-99531230D01*
X143149315Y-99531230D02*
X142708080Y-99531230D01*
X142928698Y-99531230D02*
X142928698Y-98759070D01*
X142855158Y-98869379D01*
X142781619Y-98942918D01*
X142708080Y-98979687D01*
X142377155Y-98759070D02*
X142377155Y-99310613D01*
X142340385Y-99420921D01*
X142266846Y-99494460D01*
X142156538Y-99531230D01*
X142082998Y-99531230D01*
X143149315Y-99531230D02*
X142708080Y-99531230D01*
X142928698Y-99531230D02*
X142928698Y-98759070D01*
X142855158Y-98869379D01*
X142781619Y-98942918D01*
X142708080Y-98979687D01*
X142377155Y-98759070D02*
X142377155Y-99310613D01*
X142340385Y-99420921D01*
X142266846Y-99494460D01*
X142156538Y-99531230D01*
X142082998Y-99531230D01*
X143149315Y-99531230D02*
X142708080Y-99531230D01*
X142928698Y-99531230D02*
X142928698Y-98759070D01*
X142855158Y-98869379D01*
X142781619Y-98942918D01*
X142708080Y-98979687D01*
X142377155Y-98759070D02*
X142377155Y-99310613D01*
X142340385Y-99420921D01*
X142266846Y-99494460D01*
X142156538Y-99531230D01*
X142082998Y-99531230D01*
X143149315Y-99531230D02*
X142708080Y-99531230D01*
X142928698Y-99531230D02*
X142928698Y-98759070D01*
X142855158Y-98869379D01*
X142781619Y-98942918D01*
X142708080Y-98979687D01*
X142377155Y-98759070D02*
X142377155Y-99310613D01*
X142340385Y-99420921D01*
X142266846Y-99494460D01*
X142156538Y-99531230D01*
X142082998Y-99531230D01*
X143149315Y-99531230D02*
X142708080Y-99531230D01*
X142928698Y-99531230D02*
X142928698Y-98759070D01*
X142855158Y-98869379D01*
X142781619Y-98942918D01*
X142708080Y-98979687D01*
X142377155Y-98759070D02*
X142377155Y-99310613D01*
X142340385Y-99420921D01*
X142266846Y-99494460D01*
X142156538Y-99531230D01*
X142082998Y-99531230D01*
X143149315Y-99531230D02*
X142708080Y-99531230D01*
X142928698Y-99531230D02*
X142928698Y-98759070D01*
X142855158Y-98869379D01*
X142781619Y-98942918D01*
X142708080Y-98979687D01*
X142377155Y-98759070D02*
X142377155Y-99310613D01*
X142340385Y-99420921D01*
X142266846Y-99494460D01*
X142156538Y-99531230D01*
X142082998Y-99531230D01*
X143149315Y-99531230D02*
X142708080Y-99531230D01*
X142928698Y-99531230D02*
X142928698Y-98759070D01*
X142855158Y-98869379D01*
X142781619Y-98942918D01*
X142708080Y-98979687D01*
X142377155Y-98759070D02*
X142377155Y-99310613D01*
X142340385Y-99420921D01*
X142266846Y-99494460D01*
X142156538Y-99531230D01*
X142082998Y-99531230D01*
X143149315Y-99531230D02*
X142708080Y-99531230D01*
X142928698Y-99531230D02*
X142928698Y-98759070D01*
X142855158Y-98869379D01*
X142781619Y-98942918D01*
X142708080Y-98979687D01*
X142377155Y-98759070D02*
X142377155Y-99310613D01*
X142340385Y-99420921D01*
X142266846Y-99494460D01*
X142156538Y-99531230D01*
X142082998Y-99531230D01*
X143149315Y-99531230D02*
X142708080Y-99531230D01*
X142928698Y-99531230D02*
X142928698Y-98759070D01*
X142855158Y-98869379D01*
X142781619Y-98942918D01*
X142708080Y-98979687D01*
X142377155Y-98759070D02*
X142377155Y-99310613D01*
X142340385Y-99420921D01*
X142266846Y-99494460D01*
X142156538Y-99531230D01*
X142082998Y-99531230D01*
X143149315Y-99531230D02*
X142708080Y-99531230D01*
X142928698Y-99531230D02*
X142928698Y-98759070D01*
X142855158Y-98869379D01*
X142781619Y-98942918D01*
X142708080Y-98979687D01*
X142377155Y-98759070D02*
X142377155Y-99310613D01*
X142340385Y-99420921D01*
X142266846Y-99494460D01*
X142156538Y-99531230D01*
X142082998Y-99531230D01*
X143149315Y-99531230D02*
X142708080Y-99531230D01*
X142928698Y-99531230D02*
X142928698Y-98759070D01*
X142855158Y-98869379D01*
X142781619Y-98942918D01*
X142708080Y-98979687D01*
X142377155Y-98759070D02*
X142377155Y-99310613D01*
X142340385Y-99420921D01*
X142266846Y-99494460D01*
X142156538Y-99531230D01*
X142082998Y-99531230D01*
X143149315Y-99531230D02*
X142708080Y-99531230D01*
X142928698Y-99531230D02*
X142928698Y-98759070D01*
X142855158Y-98869379D01*
X142781619Y-98942918D01*
X142708080Y-98979687D01*
X142377155Y-98759070D02*
X142377155Y-99310613D01*
X142340385Y-99420921D01*
X142266846Y-99494460D01*
X142156538Y-99531230D01*
X142082998Y-99531230D01*
X143149315Y-99531230D02*
X142708080Y-99531230D01*
X142928698Y-99531230D02*
X142928698Y-98759070D01*
X142855158Y-98869379D01*
X142781619Y-98942918D01*
X142708080Y-98979687D01*
X142377155Y-98759070D02*
X142377155Y-99310613D01*
X142340385Y-99420921D01*
X142266846Y-99494460D01*
X142156538Y-99531230D01*
X142082998Y-99531230D01*
X143149315Y-99531230D02*
X142708080Y-99531230D01*
X142928698Y-99531230D02*
X142928698Y-98759070D01*
X142855158Y-98869379D01*
X142781619Y-98942918D01*
X142708080Y-98979687D01*
X142377155Y-98759070D02*
X142377155Y-99310613D01*
X142340385Y-99420921D01*
X142266846Y-99494460D01*
X142156538Y-99531230D01*
X142082998Y-99531230D01*
X143149315Y-99531230D02*
X142708080Y-99531230D01*
X142928698Y-99531230D02*
X142928698Y-98759070D01*
X142855158Y-98869379D01*
X142781619Y-98942918D01*
X142708080Y-98979687D01*
X142377155Y-98759070D02*
X142377155Y-99310613D01*
X142340385Y-99420921D01*
X142266846Y-99494460D01*
X142156538Y-99531230D01*
X142082998Y-99531230D01*
X143149315Y-99531230D02*
X142708080Y-99531230D01*
X142928698Y-99531230D02*
X142928698Y-98759070D01*
X142855158Y-98869379D01*
X142781619Y-98942918D01*
X142708080Y-98979687D01*
%TO.C,J2*%
X154188155Y-98759070D02*
X154188155Y-99310613D01*
X154151385Y-99420921D01*
X154077846Y-99494460D01*
X153967538Y-99531230D01*
X153893998Y-99531230D01*
X154519080Y-98832609D02*
X154555850Y-98795840D01*
X154629389Y-98759070D01*
X154813237Y-98759070D01*
X154886776Y-98795840D01*
X154923545Y-98832609D01*
X154960315Y-98906148D01*
X154960315Y-98979687D01*
X154923545Y-99089996D01*
X154482311Y-99531230D01*
X154960315Y-99531230D01*
X154188155Y-98759070D02*
X154188155Y-99310613D01*
X154151385Y-99420921D01*
X154077846Y-99494460D01*
X153967538Y-99531230D01*
X153893998Y-99531230D01*
X154519080Y-98832609D02*
X154555850Y-98795840D01*
X154629389Y-98759070D01*
X154813237Y-98759070D01*
X154886776Y-98795840D01*
X154923545Y-98832609D01*
X154960315Y-98906148D01*
X154960315Y-98979687D01*
X154923545Y-99089996D01*
X154482311Y-99531230D01*
X154960315Y-99531230D01*
X154188155Y-98759070D02*
X154188155Y-99310613D01*
X154151385Y-99420921D01*
X154077846Y-99494460D01*
X153967538Y-99531230D01*
X153893998Y-99531230D01*
X154519080Y-98832609D02*
X154555850Y-98795840D01*
X154629389Y-98759070D01*
X154813237Y-98759070D01*
X154886776Y-98795840D01*
X154923545Y-98832609D01*
X154960315Y-98906148D01*
X154960315Y-98979687D01*
X154923545Y-99089996D01*
X154482311Y-99531230D01*
X154960315Y-99531230D01*
X154188155Y-98759070D02*
X154188155Y-99310613D01*
X154151385Y-99420921D01*
X154077846Y-99494460D01*
X153967538Y-99531230D01*
X153893998Y-99531230D01*
X154519080Y-98832609D02*
X154555850Y-98795840D01*
X154629389Y-98759070D01*
X154813237Y-98759070D01*
X154886776Y-98795840D01*
X154923545Y-98832609D01*
X154960315Y-98906148D01*
X154960315Y-98979687D01*
X154923545Y-99089996D01*
X154482311Y-99531230D01*
X154960315Y-99531230D01*
X154188155Y-98759070D02*
X154188155Y-99310613D01*
X154151385Y-99420921D01*
X154077846Y-99494460D01*
X153967538Y-99531230D01*
X153893998Y-99531230D01*
X154519080Y-98832609D02*
X154555850Y-98795840D01*
X154629389Y-98759070D01*
X154813237Y-98759070D01*
X154886776Y-98795840D01*
X154923545Y-98832609D01*
X154960315Y-98906148D01*
X154960315Y-98979687D01*
X154923545Y-99089996D01*
X154482311Y-99531230D01*
X154960315Y-99531230D01*
X154188155Y-98759070D02*
X154188155Y-99310613D01*
X154151385Y-99420921D01*
X154077846Y-99494460D01*
X153967538Y-99531230D01*
X153893998Y-99531230D01*
X154519080Y-98832609D02*
X154555850Y-98795840D01*
X154629389Y-98759070D01*
X154813237Y-98759070D01*
X154886776Y-98795840D01*
X154923545Y-98832609D01*
X154960315Y-98906148D01*
X154960315Y-98979687D01*
X154923545Y-99089996D01*
X154482311Y-99531230D01*
X154960315Y-99531230D01*
X154188155Y-98759070D02*
X154188155Y-99310613D01*
X154151385Y-99420921D01*
X154077846Y-99494460D01*
X153967538Y-99531230D01*
X153893998Y-99531230D01*
X154519080Y-98832609D02*
X154555850Y-98795840D01*
X154629389Y-98759070D01*
X154813237Y-98759070D01*
X154886776Y-98795840D01*
X154923545Y-98832609D01*
X154960315Y-98906148D01*
X154960315Y-98979687D01*
X154923545Y-99089996D01*
X154482311Y-99531230D01*
X154960315Y-99531230D01*
X154188155Y-98759070D02*
X154188155Y-99310613D01*
X154151385Y-99420921D01*
X154077846Y-99494460D01*
X153967538Y-99531230D01*
X153893998Y-99531230D01*
X154519080Y-98832609D02*
X154555850Y-98795840D01*
X154629389Y-98759070D01*
X154813237Y-98759070D01*
X154886776Y-98795840D01*
X154923545Y-98832609D01*
X154960315Y-98906148D01*
X154960315Y-98979687D01*
X154923545Y-99089996D01*
X154482311Y-99531230D01*
X154960315Y-99531230D01*
X154188155Y-98759070D02*
X154188155Y-99310613D01*
X154151385Y-99420921D01*
X154077846Y-99494460D01*
X153967538Y-99531230D01*
X153893998Y-99531230D01*
X154519080Y-98832609D02*
X154555850Y-98795840D01*
X154629389Y-98759070D01*
X154813237Y-98759070D01*
X154886776Y-98795840D01*
X154923545Y-98832609D01*
X154960315Y-98906148D01*
X154960315Y-98979687D01*
X154923545Y-99089996D01*
X154482311Y-99531230D01*
X154960315Y-99531230D01*
X154188155Y-98759070D02*
X154188155Y-99310613D01*
X154151385Y-99420921D01*
X154077846Y-99494460D01*
X153967538Y-99531230D01*
X153893998Y-99531230D01*
X154519080Y-98832609D02*
X154555850Y-98795840D01*
X154629389Y-98759070D01*
X154813237Y-98759070D01*
X154886776Y-98795840D01*
X154923545Y-98832609D01*
X154960315Y-98906148D01*
X154960315Y-98979687D01*
X154923545Y-99089996D01*
X154482311Y-99531230D01*
X154960315Y-99531230D01*
X154188155Y-98759070D02*
X154188155Y-99310613D01*
X154151385Y-99420921D01*
X154077846Y-99494460D01*
X153967538Y-99531230D01*
X153893998Y-99531230D01*
X154519080Y-98832609D02*
X154555850Y-98795840D01*
X154629389Y-98759070D01*
X154813237Y-98759070D01*
X154886776Y-98795840D01*
X154923545Y-98832609D01*
X154960315Y-98906148D01*
X154960315Y-98979687D01*
X154923545Y-99089996D01*
X154482311Y-99531230D01*
X154960315Y-99531230D01*
X154188155Y-98759070D02*
X154188155Y-99310613D01*
X154151385Y-99420921D01*
X154077846Y-99494460D01*
X153967538Y-99531230D01*
X153893998Y-99531230D01*
X154519080Y-98832609D02*
X154555850Y-98795840D01*
X154629389Y-98759070D01*
X154813237Y-98759070D01*
X154886776Y-98795840D01*
X154923545Y-98832609D01*
X154960315Y-98906148D01*
X154960315Y-98979687D01*
X154923545Y-99089996D01*
X154482311Y-99531230D01*
X154960315Y-99531230D01*
X154188155Y-98759070D02*
X154188155Y-99310613D01*
X154151385Y-99420921D01*
X154077846Y-99494460D01*
X153967538Y-99531230D01*
X153893998Y-99531230D01*
X154519080Y-98832609D02*
X154555850Y-98795840D01*
X154629389Y-98759070D01*
X154813237Y-98759070D01*
X154886776Y-98795840D01*
X154923545Y-98832609D01*
X154960315Y-98906148D01*
X154960315Y-98979687D01*
X154923545Y-99089996D01*
X154482311Y-99531230D01*
X154960315Y-99531230D01*
X154188155Y-98759070D02*
X154188155Y-99310613D01*
X154151385Y-99420921D01*
X154077846Y-99494460D01*
X153967538Y-99531230D01*
X153893998Y-99531230D01*
X154519080Y-98832609D02*
X154555850Y-98795840D01*
X154629389Y-98759070D01*
X154813237Y-98759070D01*
X154886776Y-98795840D01*
X154923545Y-98832609D01*
X154960315Y-98906148D01*
X154960315Y-98979687D01*
X154923545Y-99089996D01*
X154482311Y-99531230D01*
X154960315Y-99531230D01*
X154188155Y-98759070D02*
X154188155Y-99310613D01*
X154151385Y-99420921D01*
X154077846Y-99494460D01*
X153967538Y-99531230D01*
X153893998Y-99531230D01*
X154519080Y-98832609D02*
X154555850Y-98795840D01*
X154629389Y-98759070D01*
X154813237Y-98759070D01*
X154886776Y-98795840D01*
X154923545Y-98832609D01*
X154960315Y-98906148D01*
X154960315Y-98979687D01*
X154923545Y-99089996D01*
X154482311Y-99531230D01*
X154960315Y-99531230D01*
X154188155Y-98759070D02*
X154188155Y-99310613D01*
X154151385Y-99420921D01*
X154077846Y-99494460D01*
X153967538Y-99531230D01*
X153893998Y-99531230D01*
X154519080Y-98832609D02*
X154555850Y-98795840D01*
X154629389Y-98759070D01*
X154813237Y-98759070D01*
X154886776Y-98795840D01*
X154923545Y-98832609D01*
X154960315Y-98906148D01*
X154960315Y-98979687D01*
X154923545Y-99089996D01*
X154482311Y-99531230D01*
X154960315Y-99531230D01*
X154188155Y-98759070D02*
X154188155Y-99310613D01*
X154151385Y-99420921D01*
X154077846Y-99494460D01*
X153967538Y-99531230D01*
X153893998Y-99531230D01*
X154519080Y-98832609D02*
X154555850Y-98795840D01*
X154629389Y-98759070D01*
X154813237Y-98759070D01*
X154886776Y-98795840D01*
X154923545Y-98832609D01*
X154960315Y-98906148D01*
X154960315Y-98979687D01*
X154923545Y-99089996D01*
X154482311Y-99531230D01*
X154960315Y-99531230D01*
X154188155Y-98759070D02*
X154188155Y-99310613D01*
X154151385Y-99420921D01*
X154077846Y-99494460D01*
X153967538Y-99531230D01*
X153893998Y-99531230D01*
X154519080Y-98832609D02*
X154555850Y-98795840D01*
X154629389Y-98759070D01*
X154813237Y-98759070D01*
X154886776Y-98795840D01*
X154923545Y-98832609D01*
X154960315Y-98906148D01*
X154960315Y-98979687D01*
X154923545Y-99089996D01*
X154482311Y-99531230D01*
X154960315Y-99531230D01*
X154188155Y-98759070D02*
X154188155Y-99310613D01*
X154151385Y-99420921D01*
X154077846Y-99494460D01*
X153967538Y-99531230D01*
X153893998Y-99531230D01*
X154519080Y-98832609D02*
X154555850Y-98795840D01*
X154629389Y-98759070D01*
X154813237Y-98759070D01*
X154886776Y-98795840D01*
X154923545Y-98832609D01*
X154960315Y-98906148D01*
X154960315Y-98979687D01*
X154923545Y-99089996D01*
X154482311Y-99531230D01*
X154960315Y-99531230D01*
X154188155Y-98759070D02*
X154188155Y-99310613D01*
X154151385Y-99420921D01*
X154077846Y-99494460D01*
X153967538Y-99531230D01*
X153893998Y-99531230D01*
X154519080Y-98832609D02*
X154555850Y-98795840D01*
X154629389Y-98759070D01*
X154813237Y-98759070D01*
X154886776Y-98795840D01*
X154923545Y-98832609D01*
X154960315Y-98906148D01*
X154960315Y-98979687D01*
X154923545Y-99089996D01*
X154482311Y-99531230D01*
X154960315Y-99531230D01*
X154188155Y-98759070D02*
X154188155Y-99310613D01*
X154151385Y-99420921D01*
X154077846Y-99494460D01*
X153967538Y-99531230D01*
X153893998Y-99531230D01*
X154519080Y-98832609D02*
X154555850Y-98795840D01*
X154629389Y-98759070D01*
X154813237Y-98759070D01*
X154886776Y-98795840D01*
X154923545Y-98832609D01*
X154960315Y-98906148D01*
X154960315Y-98979687D01*
X154923545Y-99089996D01*
X154482311Y-99531230D01*
X154960315Y-99531230D01*
X154188155Y-98759070D02*
X154188155Y-99310613D01*
X154151385Y-99420921D01*
X154077846Y-99494460D01*
X153967538Y-99531230D01*
X153893998Y-99531230D01*
X154519080Y-98832609D02*
X154555850Y-98795840D01*
X154629389Y-98759070D01*
X154813237Y-98759070D01*
X154886776Y-98795840D01*
X154923545Y-98832609D01*
X154960315Y-98906148D01*
X154960315Y-98979687D01*
X154923545Y-99089996D01*
X154482311Y-99531230D01*
X154960315Y-99531230D01*
X154188155Y-98759070D02*
X154188155Y-99310613D01*
X154151385Y-99420921D01*
X154077846Y-99494460D01*
X153967538Y-99531230D01*
X153893998Y-99531230D01*
X154519080Y-98832609D02*
X154555850Y-98795840D01*
X154629389Y-98759070D01*
X154813237Y-98759070D01*
X154886776Y-98795840D01*
X154923545Y-98832609D01*
X154960315Y-98906148D01*
X154960315Y-98979687D01*
X154923545Y-99089996D01*
X154482311Y-99531230D01*
X154960315Y-99531230D01*
X154188155Y-98759070D02*
X154188155Y-99310613D01*
X154151385Y-99420921D01*
X154077846Y-99494460D01*
X153967538Y-99531230D01*
X153893998Y-99531230D01*
X154519080Y-98832609D02*
X154555850Y-98795840D01*
X154629389Y-98759070D01*
X154813237Y-98759070D01*
X154886776Y-98795840D01*
X154923545Y-98832609D01*
X154960315Y-98906148D01*
X154960315Y-98979687D01*
X154923545Y-99089996D01*
X154482311Y-99531230D01*
X154960315Y-99531230D01*
X154188155Y-98759070D02*
X154188155Y-99310613D01*
X154151385Y-99420921D01*
X154077846Y-99494460D01*
X153967538Y-99531230D01*
X153893998Y-99531230D01*
X154519080Y-98832609D02*
X154555850Y-98795840D01*
X154629389Y-98759070D01*
X154813237Y-98759070D01*
X154886776Y-98795840D01*
X154923545Y-98832609D01*
X154960315Y-98906148D01*
X154960315Y-98979687D01*
X154923545Y-99089996D01*
X154482311Y-99531230D01*
X154960315Y-99531230D01*
X154188155Y-98759070D02*
X154188155Y-99310613D01*
X154151385Y-99420921D01*
X154077846Y-99494460D01*
X153967538Y-99531230D01*
X153893998Y-99531230D01*
X154519080Y-98832609D02*
X154555850Y-98795840D01*
X154629389Y-98759070D01*
X154813237Y-98759070D01*
X154886776Y-98795840D01*
X154923545Y-98832609D01*
X154960315Y-98906148D01*
X154960315Y-98979687D01*
X154923545Y-99089996D01*
X154482311Y-99531230D01*
X154960315Y-99531230D01*
%TO.C,J3*%
X166507155Y-98251070D02*
X166507155Y-98802613D01*
X166470385Y-98912921D01*
X166396846Y-98986460D01*
X166286538Y-99023230D01*
X166212998Y-99023230D01*
X166801311Y-98251070D02*
X167279315Y-98251070D01*
X167021928Y-98545226D01*
X167132237Y-98545226D01*
X167205776Y-98581996D01*
X167242545Y-98618765D01*
X167279315Y-98692304D01*
X167279315Y-98876152D01*
X167242545Y-98949691D01*
X167205776Y-98986460D01*
X167132237Y-99023230D01*
X166911619Y-99023230D01*
X166838080Y-98986460D01*
X166801311Y-98949691D01*
X166507155Y-98251070D02*
X166507155Y-98802613D01*
X166470385Y-98912921D01*
X166396846Y-98986460D01*
X166286538Y-99023230D01*
X166212998Y-99023230D01*
X166801311Y-98251070D02*
X167279315Y-98251070D01*
X167021928Y-98545226D01*
X167132237Y-98545226D01*
X167205776Y-98581996D01*
X167242545Y-98618765D01*
X167279315Y-98692304D01*
X167279315Y-98876152D01*
X167242545Y-98949691D01*
X167205776Y-98986460D01*
X167132237Y-99023230D01*
X166911619Y-99023230D01*
X166838080Y-98986460D01*
X166801311Y-98949691D01*
X166507155Y-98251070D02*
X166507155Y-98802613D01*
X166470385Y-98912921D01*
X166396846Y-98986460D01*
X166286538Y-99023230D01*
X166212998Y-99023230D01*
X166801311Y-98251070D02*
X167279315Y-98251070D01*
X167021928Y-98545226D01*
X167132237Y-98545226D01*
X167205776Y-98581996D01*
X167242545Y-98618765D01*
X167279315Y-98692304D01*
X167279315Y-98876152D01*
X167242545Y-98949691D01*
X167205776Y-98986460D01*
X167132237Y-99023230D01*
X166911619Y-99023230D01*
X166838080Y-98986460D01*
X166801311Y-98949691D01*
X166507155Y-98251070D02*
X166507155Y-98802613D01*
X166470385Y-98912921D01*
X166396846Y-98986460D01*
X166286538Y-99023230D01*
X166212998Y-99023230D01*
X166801311Y-98251070D02*
X167279315Y-98251070D01*
X167021928Y-98545226D01*
X167132237Y-98545226D01*
X167205776Y-98581996D01*
X167242545Y-98618765D01*
X167279315Y-98692304D01*
X167279315Y-98876152D01*
X167242545Y-98949691D01*
X167205776Y-98986460D01*
X167132237Y-99023230D01*
X166911619Y-99023230D01*
X166838080Y-98986460D01*
X166801311Y-98949691D01*
X166507155Y-98251070D02*
X166507155Y-98802613D01*
X166470385Y-98912921D01*
X166396846Y-98986460D01*
X166286538Y-99023230D01*
X166212998Y-99023230D01*
X166801311Y-98251070D02*
X167279315Y-98251070D01*
X167021928Y-98545226D01*
X167132237Y-98545226D01*
X167205776Y-98581996D01*
X167242545Y-98618765D01*
X167279315Y-98692304D01*
X167279315Y-98876152D01*
X167242545Y-98949691D01*
X167205776Y-98986460D01*
X167132237Y-99023230D01*
X166911619Y-99023230D01*
X166838080Y-98986460D01*
X166801311Y-98949691D01*
X166507155Y-98251070D02*
X166507155Y-98802613D01*
X166470385Y-98912921D01*
X166396846Y-98986460D01*
X166286538Y-99023230D01*
X166212998Y-99023230D01*
X166801311Y-98251070D02*
X167279315Y-98251070D01*
X167021928Y-98545226D01*
X167132237Y-98545226D01*
X167205776Y-98581996D01*
X167242545Y-98618765D01*
X167279315Y-98692304D01*
X167279315Y-98876152D01*
X167242545Y-98949691D01*
X167205776Y-98986460D01*
X167132237Y-99023230D01*
X166911619Y-99023230D01*
X166838080Y-98986460D01*
X166801311Y-98949691D01*
X166507155Y-98251070D02*
X166507155Y-98802613D01*
X166470385Y-98912921D01*
X166396846Y-98986460D01*
X166286538Y-99023230D01*
X166212998Y-99023230D01*
X166801311Y-98251070D02*
X167279315Y-98251070D01*
X167021928Y-98545226D01*
X167132237Y-98545226D01*
X167205776Y-98581996D01*
X167242545Y-98618765D01*
X167279315Y-98692304D01*
X167279315Y-98876152D01*
X167242545Y-98949691D01*
X167205776Y-98986460D01*
X167132237Y-99023230D01*
X166911619Y-99023230D01*
X166838080Y-98986460D01*
X166801311Y-98949691D01*
X166507155Y-98251070D02*
X166507155Y-98802613D01*
X166470385Y-98912921D01*
X166396846Y-98986460D01*
X166286538Y-99023230D01*
X166212998Y-99023230D01*
X166801311Y-98251070D02*
X167279315Y-98251070D01*
X167021928Y-98545226D01*
X167132237Y-98545226D01*
X167205776Y-98581996D01*
X167242545Y-98618765D01*
X167279315Y-98692304D01*
X167279315Y-98876152D01*
X167242545Y-98949691D01*
X167205776Y-98986460D01*
X167132237Y-99023230D01*
X166911619Y-99023230D01*
X166838080Y-98986460D01*
X166801311Y-98949691D01*
X166507155Y-98251070D02*
X166507155Y-98802613D01*
X166470385Y-98912921D01*
X166396846Y-98986460D01*
X166286538Y-99023230D01*
X166212998Y-99023230D01*
X166801311Y-98251070D02*
X167279315Y-98251070D01*
X167021928Y-98545226D01*
X167132237Y-98545226D01*
X167205776Y-98581996D01*
X167242545Y-98618765D01*
X167279315Y-98692304D01*
X167279315Y-98876152D01*
X167242545Y-98949691D01*
X167205776Y-98986460D01*
X167132237Y-99023230D01*
X166911619Y-99023230D01*
X166838080Y-98986460D01*
X166801311Y-98949691D01*
X166507155Y-98251070D02*
X166507155Y-98802613D01*
X166470385Y-98912921D01*
X166396846Y-98986460D01*
X166286538Y-99023230D01*
X166212998Y-99023230D01*
X166801311Y-98251070D02*
X167279315Y-98251070D01*
X167021928Y-98545226D01*
X167132237Y-98545226D01*
X167205776Y-98581996D01*
X167242545Y-98618765D01*
X167279315Y-98692304D01*
X167279315Y-98876152D01*
X167242545Y-98949691D01*
X167205776Y-98986460D01*
X167132237Y-99023230D01*
X166911619Y-99023230D01*
X166838080Y-98986460D01*
X166801311Y-98949691D01*
X166507155Y-98251070D02*
X166507155Y-98802613D01*
X166470385Y-98912921D01*
X166396846Y-98986460D01*
X166286538Y-99023230D01*
X166212998Y-99023230D01*
X166801311Y-98251070D02*
X167279315Y-98251070D01*
X167021928Y-98545226D01*
X167132237Y-98545226D01*
X167205776Y-98581996D01*
X167242545Y-98618765D01*
X167279315Y-98692304D01*
X167279315Y-98876152D01*
X167242545Y-98949691D01*
X167205776Y-98986460D01*
X167132237Y-99023230D01*
X166911619Y-99023230D01*
X166838080Y-98986460D01*
X166801311Y-98949691D01*
X166507155Y-98251070D02*
X166507155Y-98802613D01*
X166470385Y-98912921D01*
X166396846Y-98986460D01*
X166286538Y-99023230D01*
X166212998Y-99023230D01*
X166801311Y-98251070D02*
X167279315Y-98251070D01*
X167021928Y-98545226D01*
X167132237Y-98545226D01*
X167205776Y-98581996D01*
X167242545Y-98618765D01*
X167279315Y-98692304D01*
X167279315Y-98876152D01*
X167242545Y-98949691D01*
X167205776Y-98986460D01*
X167132237Y-99023230D01*
X166911619Y-99023230D01*
X166838080Y-98986460D01*
X166801311Y-98949691D01*
X166507155Y-98251070D02*
X166507155Y-98802613D01*
X166470385Y-98912921D01*
X166396846Y-98986460D01*
X166286538Y-99023230D01*
X166212998Y-99023230D01*
X166801311Y-98251070D02*
X167279315Y-98251070D01*
X167021928Y-98545226D01*
X167132237Y-98545226D01*
X167205776Y-98581996D01*
X167242545Y-98618765D01*
X167279315Y-98692304D01*
X167279315Y-98876152D01*
X167242545Y-98949691D01*
X167205776Y-98986460D01*
X167132237Y-99023230D01*
X166911619Y-99023230D01*
X166838080Y-98986460D01*
X166801311Y-98949691D01*
X166507155Y-98251070D02*
X166507155Y-98802613D01*
X166470385Y-98912921D01*
X166396846Y-98986460D01*
X166286538Y-99023230D01*
X166212998Y-99023230D01*
X166801311Y-98251070D02*
X167279315Y-98251070D01*
X167021928Y-98545226D01*
X167132237Y-98545226D01*
X167205776Y-98581996D01*
X167242545Y-98618765D01*
X167279315Y-98692304D01*
X167279315Y-98876152D01*
X167242545Y-98949691D01*
X167205776Y-98986460D01*
X167132237Y-99023230D01*
X166911619Y-99023230D01*
X166838080Y-98986460D01*
X166801311Y-98949691D01*
X166507155Y-98251070D02*
X166507155Y-98802613D01*
X166470385Y-98912921D01*
X166396846Y-98986460D01*
X166286538Y-99023230D01*
X166212998Y-99023230D01*
X166801311Y-98251070D02*
X167279315Y-98251070D01*
X167021928Y-98545226D01*
X167132237Y-98545226D01*
X167205776Y-98581996D01*
X167242545Y-98618765D01*
X167279315Y-98692304D01*
X167279315Y-98876152D01*
X167242545Y-98949691D01*
X167205776Y-98986460D01*
X167132237Y-99023230D01*
X166911619Y-99023230D01*
X166838080Y-98986460D01*
X166801311Y-98949691D01*
X166507155Y-98251070D02*
X166507155Y-98802613D01*
X166470385Y-98912921D01*
X166396846Y-98986460D01*
X166286538Y-99023230D01*
X166212998Y-99023230D01*
X166801311Y-98251070D02*
X167279315Y-98251070D01*
X167021928Y-98545226D01*
X167132237Y-98545226D01*
X167205776Y-98581996D01*
X167242545Y-98618765D01*
X167279315Y-98692304D01*
X167279315Y-98876152D01*
X167242545Y-98949691D01*
X167205776Y-98986460D01*
X167132237Y-99023230D01*
X166911619Y-99023230D01*
X166838080Y-98986460D01*
X166801311Y-98949691D01*
X166507155Y-98251070D02*
X166507155Y-98802613D01*
X166470385Y-98912921D01*
X166396846Y-98986460D01*
X166286538Y-99023230D01*
X166212998Y-99023230D01*
X166801311Y-98251070D02*
X167279315Y-98251070D01*
X167021928Y-98545226D01*
X167132237Y-98545226D01*
X167205776Y-98581996D01*
X167242545Y-98618765D01*
X167279315Y-98692304D01*
X167279315Y-98876152D01*
X167242545Y-98949691D01*
X167205776Y-98986460D01*
X167132237Y-99023230D01*
X166911619Y-99023230D01*
X166838080Y-98986460D01*
X166801311Y-98949691D01*
X166507155Y-98251070D02*
X166507155Y-98802613D01*
X166470385Y-98912921D01*
X166396846Y-98986460D01*
X166286538Y-99023230D01*
X166212998Y-99023230D01*
X166801311Y-98251070D02*
X167279315Y-98251070D01*
X167021928Y-98545226D01*
X167132237Y-98545226D01*
X167205776Y-98581996D01*
X167242545Y-98618765D01*
X167279315Y-98692304D01*
X167279315Y-98876152D01*
X167242545Y-98949691D01*
X167205776Y-98986460D01*
X167132237Y-99023230D01*
X166911619Y-99023230D01*
X166838080Y-98986460D01*
X166801311Y-98949691D01*
X166507155Y-98251070D02*
X166507155Y-98802613D01*
X166470385Y-98912921D01*
X166396846Y-98986460D01*
X166286538Y-99023230D01*
X166212998Y-99023230D01*
X166801311Y-98251070D02*
X167279315Y-98251070D01*
X167021928Y-98545226D01*
X167132237Y-98545226D01*
X167205776Y-98581996D01*
X167242545Y-98618765D01*
X167279315Y-98692304D01*
X167279315Y-98876152D01*
X167242545Y-98949691D01*
X167205776Y-98986460D01*
X167132237Y-99023230D01*
X166911619Y-99023230D01*
X166838080Y-98986460D01*
X166801311Y-98949691D01*
X166507155Y-98251070D02*
X166507155Y-98802613D01*
X166470385Y-98912921D01*
X166396846Y-98986460D01*
X166286538Y-99023230D01*
X166212998Y-99023230D01*
X166801311Y-98251070D02*
X167279315Y-98251070D01*
X167021928Y-98545226D01*
X167132237Y-98545226D01*
X167205776Y-98581996D01*
X167242545Y-98618765D01*
X167279315Y-98692304D01*
X167279315Y-98876152D01*
X167242545Y-98949691D01*
X167205776Y-98986460D01*
X167132237Y-99023230D01*
X166911619Y-99023230D01*
X166838080Y-98986460D01*
X166801311Y-98949691D01*
X166507155Y-98251070D02*
X166507155Y-98802613D01*
X166470385Y-98912921D01*
X166396846Y-98986460D01*
X166286538Y-99023230D01*
X166212998Y-99023230D01*
X166801311Y-98251070D02*
X167279315Y-98251070D01*
X167021928Y-98545226D01*
X167132237Y-98545226D01*
X167205776Y-98581996D01*
X167242545Y-98618765D01*
X167279315Y-98692304D01*
X167279315Y-98876152D01*
X167242545Y-98949691D01*
X167205776Y-98986460D01*
X167132237Y-99023230D01*
X166911619Y-99023230D01*
X166838080Y-98986460D01*
X166801311Y-98949691D01*
X166507155Y-98251070D02*
X166507155Y-98802613D01*
X166470385Y-98912921D01*
X166396846Y-98986460D01*
X166286538Y-99023230D01*
X166212998Y-99023230D01*
X166801311Y-98251070D02*
X167279315Y-98251070D01*
X167021928Y-98545226D01*
X167132237Y-98545226D01*
X167205776Y-98581996D01*
X167242545Y-98618765D01*
X167279315Y-98692304D01*
X167279315Y-98876152D01*
X167242545Y-98949691D01*
X167205776Y-98986460D01*
X167132237Y-99023230D01*
X166911619Y-99023230D01*
X166838080Y-98986460D01*
X166801311Y-98949691D01*
X166507155Y-98251070D02*
X166507155Y-98802613D01*
X166470385Y-98912921D01*
X166396846Y-98986460D01*
X166286538Y-99023230D01*
X166212998Y-99023230D01*
X166801311Y-98251070D02*
X167279315Y-98251070D01*
X167021928Y-98545226D01*
X167132237Y-98545226D01*
X167205776Y-98581996D01*
X167242545Y-98618765D01*
X167279315Y-98692304D01*
X167279315Y-98876152D01*
X167242545Y-98949691D01*
X167205776Y-98986460D01*
X167132237Y-99023230D01*
X166911619Y-99023230D01*
X166838080Y-98986460D01*
X166801311Y-98949691D01*
X166507155Y-98251070D02*
X166507155Y-98802613D01*
X166470385Y-98912921D01*
X166396846Y-98986460D01*
X166286538Y-99023230D01*
X166212998Y-99023230D01*
X166801311Y-98251070D02*
X167279315Y-98251070D01*
X167021928Y-98545226D01*
X167132237Y-98545226D01*
X167205776Y-98581996D01*
X167242545Y-98618765D01*
X167279315Y-98692304D01*
X167279315Y-98876152D01*
X167242545Y-98949691D01*
X167205776Y-98986460D01*
X167132237Y-99023230D01*
X166911619Y-99023230D01*
X166838080Y-98986460D01*
X166801311Y-98949691D01*
X166507155Y-98251070D02*
X166507155Y-98802613D01*
X166470385Y-98912921D01*
X166396846Y-98986460D01*
X166286538Y-99023230D01*
X166212998Y-99023230D01*
X166801311Y-98251070D02*
X167279315Y-98251070D01*
X167021928Y-98545226D01*
X167132237Y-98545226D01*
X167205776Y-98581996D01*
X167242545Y-98618765D01*
X167279315Y-98692304D01*
X167279315Y-98876152D01*
X167242545Y-98949691D01*
X167205776Y-98986460D01*
X167132237Y-99023230D01*
X166911619Y-99023230D01*
X166838080Y-98986460D01*
X166801311Y-98949691D01*
X166507155Y-98251070D02*
X166507155Y-98802613D01*
X166470385Y-98912921D01*
X166396846Y-98986460D01*
X166286538Y-99023230D01*
X166212998Y-99023230D01*
X166801311Y-98251070D02*
X167279315Y-98251070D01*
X167021928Y-98545226D01*
X167132237Y-98545226D01*
X167205776Y-98581996D01*
X167242545Y-98618765D01*
X167279315Y-98692304D01*
X167279315Y-98876152D01*
X167242545Y-98949691D01*
X167205776Y-98986460D01*
X167132237Y-99023230D01*
X166911619Y-99023230D01*
X166838080Y-98986460D01*
X166801311Y-98949691D01*
%TO.C,J1*%
X142377155Y-98759070D02*
X142377155Y-99310613D01*
X142340385Y-99420921D01*
X142266846Y-99494460D01*
X142156538Y-99531230D01*
X142082998Y-99531230D01*
X143149315Y-99531230D02*
X142708080Y-99531230D01*
X142928698Y-99531230D02*
X142928698Y-98759070D01*
X142855158Y-98869379D01*
X142781619Y-98942918D01*
X142708080Y-98979687D01*
%TO.C,J2*%
X154188155Y-98759070D02*
X154188155Y-99310613D01*
X154151385Y-99420921D01*
X154077846Y-99494460D01*
X153967538Y-99531230D01*
X153893998Y-99531230D01*
X154519080Y-98832609D02*
X154555850Y-98795840D01*
X154629389Y-98759070D01*
X154813237Y-98759070D01*
X154886776Y-98795840D01*
X154923545Y-98832609D01*
X154960315Y-98906148D01*
X154960315Y-98979687D01*
X154923545Y-99089996D01*
X154482311Y-99531230D01*
X154960315Y-99531230D01*
%TO.C,J3*%
X166507155Y-98251070D02*
X166507155Y-98802613D01*
X166470385Y-98912921D01*
X166396846Y-98986460D01*
X166286538Y-99023230D01*
X166212998Y-99023230D01*
X166801311Y-98251070D02*
X167279315Y-98251070D01*
X167021928Y-98545226D01*
X167132237Y-98545226D01*
X167205776Y-98581996D01*
X167242545Y-98618765D01*
X167279315Y-98692304D01*
X167279315Y-98876152D01*
X167242545Y-98949691D01*
X167205776Y-98986460D01*
X167132237Y-99023230D01*
X166911619Y-99023230D01*
X166838080Y-98986460D01*
X166801311Y-98949691D01*
%TD*%
%TO.C,U5*%
G36*
G01*
X128816100Y-106502200D02*
X130263900Y-106502200D01*
G75*
G02*
X130314700Y-106553000I0J-50800D01*
G01*
X130314700Y-108305600D01*
G75*
G02*
X130263900Y-108356400I-50800J0D01*
G01*
X128816100Y-108356400D01*
G75*
G02*
X128765300Y-108305600I0J50800D01*
G01*
X128765300Y-106553000D01*
G75*
G02*
X128816100Y-106502200I50800J0D01*
G01*
G37*
G36*
G01*
X129912999Y-108419900D02*
X130166999Y-108419900D01*
G75*
G02*
X130217799Y-108470700I0J-50800D01*
G01*
X130217799Y-109283500D01*
G75*
G02*
X130166999Y-109334300I-50800J0D01*
G01*
X129912999Y-109334300D01*
G75*
G02*
X129862199Y-109283500I0J50800D01*
G01*
X129862199Y-108470700D01*
G75*
G02*
X129912999Y-108419900I50800J0D01*
G01*
G37*
G36*
G01*
X129413000Y-108419900D02*
X129667000Y-108419900D01*
G75*
G02*
X129717800Y-108470700I0J-50800D01*
G01*
X129717800Y-109283500D01*
G75*
G02*
X129667000Y-109334300I-50800J0D01*
G01*
X129413000Y-109334300D01*
G75*
G02*
X129362200Y-109283500I0J50800D01*
G01*
X129362200Y-108470700D01*
G75*
G02*
X129413000Y-108419900I50800J0D01*
G01*
G37*
G36*
G01*
X128913001Y-108419900D02*
X129167001Y-108419900D01*
G75*
G02*
X129217801Y-108470700I0J-50800D01*
G01*
X129217801Y-109283500D01*
G75*
G02*
X129167001Y-109334300I-50800J0D01*
G01*
X128913001Y-109334300D01*
G75*
G02*
X128862201Y-109283500I0J50800D01*
G01*
X128862201Y-108470700D01*
G75*
G02*
X128913001Y-108419900I50800J0D01*
G01*
G37*
G36*
G01*
X128913001Y-105524300D02*
X129167001Y-105524300D01*
G75*
G02*
X129217801Y-105575100I0J-50800D01*
G01*
X129217801Y-106387900D01*
G75*
G02*
X129167001Y-106438700I-50800J0D01*
G01*
X128913001Y-106438700D01*
G75*
G02*
X128862201Y-106387900I0J50800D01*
G01*
X128862201Y-105575100D01*
G75*
G02*
X128913001Y-105524300I50800J0D01*
G01*
G37*
G36*
G01*
X129413000Y-105524300D02*
X129667000Y-105524300D01*
G75*
G02*
X129717800Y-105575100I0J-50800D01*
G01*
X129717800Y-106387900D01*
G75*
G02*
X129667000Y-106438700I-50800J0D01*
G01*
X129413000Y-106438700D01*
G75*
G02*
X129362200Y-106387900I0J50800D01*
G01*
X129362200Y-105575100D01*
G75*
G02*
X129413000Y-105524300I50800J0D01*
G01*
G37*
G36*
G01*
X129912999Y-105524300D02*
X130166999Y-105524300D01*
G75*
G02*
X130217799Y-105575100I0J-50800D01*
G01*
X130217799Y-106387900D01*
G75*
G02*
X130166999Y-106438700I-50800J0D01*
G01*
X129912999Y-106438700D01*
G75*
G02*
X129862199Y-106387900I0J50800D01*
G01*
X129862199Y-105575100D01*
G75*
G02*
X129912999Y-105524300I50800J0D01*
G01*
G37*
%TD*%
%TO.C,R8*%
G36*
G01*
X148635800Y-110900300D02*
X148635800Y-110374500D01*
G75*
G02*
X148898700Y-110111600I262900J0D01*
G01*
X149449500Y-110111600D01*
G75*
G02*
X149712400Y-110374500I0J-262900D01*
G01*
X149712400Y-110900300D01*
G75*
G02*
X149449500Y-111163200I-262900J0D01*
G01*
X148898700Y-111163200D01*
G75*
G02*
X148635800Y-110900300I0J262900D01*
G01*
G37*
G36*
G01*
X146810800Y-110900300D02*
X146810800Y-110374500D01*
G75*
G02*
X147073700Y-110111600I262900J0D01*
G01*
X147624500Y-110111600D01*
G75*
G02*
X147887400Y-110374500I0J-262900D01*
G01*
X147887400Y-110900300D01*
G75*
G02*
X147624500Y-111163200I-262900J0D01*
G01*
X147073700Y-111163200D01*
G75*
G02*
X146810800Y-110900300I0J262900D01*
G01*
G37*
%TD*%
D11*
%TO.C,U2*%
X149326500Y-108757800D03*
X149326500Y-106217800D03*
X149326500Y-103677800D03*
%TD*%
D12*
%TO.C,J1*%
X133601100Y-98775600D03*
X135601100Y-98775600D03*
X137601100Y-98775600D03*
G36*
G01*
X140337700Y-98140600D02*
X140337700Y-99410600D01*
G75*
G02*
X140236100Y-99512200I-101600J0D01*
G01*
X138966100Y-99512200D01*
G75*
G02*
X138864500Y-99410600I0J101600D01*
G01*
X138864500Y-98140600D01*
G75*
G02*
X138966100Y-98039000I101600J0D01*
G01*
X140236100Y-98039000D01*
G75*
G02*
X140337700Y-98140600I0J-101600D01*
G01*
G37*
%TD*%
%TO.C,LED1*%
G36*
G01*
X155841700Y-110531000D02*
X155841700Y-111331000D01*
G75*
G02*
X155790900Y-111381800I-50800J0D01*
G01*
X154190900Y-111381800D01*
G75*
G02*
X154140100Y-111331000I0J50800D01*
G01*
X154140100Y-110531000D01*
G75*
G02*
X154190900Y-110480200I50800J0D01*
G01*
X155790900Y-110480200D01*
G75*
G02*
X155841700Y-110531000I0J-50800D01*
G01*
G37*
G36*
G01*
X159041700Y-109131000D02*
X159041700Y-109931000D01*
G75*
G02*
X158990900Y-109981800I-50800J0D01*
G01*
X157390900Y-109981800D01*
G75*
G02*
X157340100Y-109931000I0J50800D01*
G01*
X157340100Y-109131000D01*
G75*
G02*
X157390900Y-109080200I50800J0D01*
G01*
X158990900Y-109080200D01*
G75*
G02*
X159041700Y-109131000I0J-50800D01*
G01*
G37*
G36*
G01*
X155841700Y-109131000D02*
X155841700Y-109931000D01*
G75*
G02*
X155790900Y-109981800I-50800J0D01*
G01*
X154190900Y-109981800D01*
G75*
G02*
X154140100Y-109931000I0J50800D01*
G01*
X154140100Y-109131000D01*
G75*
G02*
X154190900Y-109080200I50800J0D01*
G01*
X155790900Y-109080200D01*
G75*
G02*
X155841700Y-109131000I0J-50800D01*
G01*
G37*
G36*
G01*
X159041700Y-110531000D02*
X159041700Y-111331000D01*
G75*
G02*
X158990900Y-111381800I-50800J0D01*
G01*
X157390900Y-111381800D01*
G75*
G02*
X157340100Y-111331000I0J50800D01*
G01*
X157340100Y-110531000D01*
G75*
G02*
X157390900Y-110480200I50800J0D01*
G01*
X158990900Y-110480200D01*
G75*
G02*
X159041700Y-110531000I0J-50800D01*
G01*
G37*
%TD*%
%TO.C,R7*%
G36*
G01*
X152443900Y-108461900D02*
X152443900Y-107936100D01*
G75*
G02*
X152706800Y-107673200I262900J0D01*
G01*
X153257600Y-107673200D01*
G75*
G02*
X153520500Y-107936100I0J-262900D01*
G01*
X153520500Y-108461900D01*
G75*
G02*
X153257600Y-108724800I-262900J0D01*
G01*
X152706800Y-108724800D01*
G75*
G02*
X152443900Y-108461900I0J262900D01*
G01*
G37*
G36*
G01*
X150618900Y-108461900D02*
X150618900Y-107936100D01*
G75*
G02*
X150881800Y-107673200I262900J0D01*
G01*
X151432600Y-107673200D01*
G75*
G02*
X151695500Y-107936100I0J-262900D01*
G01*
X151695500Y-108461900D01*
G75*
G02*
X151432600Y-108724800I-262900J0D01*
G01*
X150881800Y-108724800D01*
G75*
G02*
X150618900Y-108461900I0J262900D01*
G01*
G37*
%TD*%
%TO.C,R6*%
G36*
G01*
X152039400Y-111154300D02*
X152039400Y-110628500D01*
G75*
G02*
X152302300Y-110365600I262900J0D01*
G01*
X152853100Y-110365600D01*
G75*
G02*
X153116000Y-110628500I0J-262900D01*
G01*
X153116000Y-111154300D01*
G75*
G02*
X152853100Y-111417200I-262900J0D01*
G01*
X152302300Y-111417200D01*
G75*
G02*
X152039400Y-111154300I0J262900D01*
G01*
G37*
G36*
G01*
X150214400Y-111154300D02*
X150214400Y-110628500D01*
G75*
G02*
X150477300Y-110365600I262900J0D01*
G01*
X151028100Y-110365600D01*
G75*
G02*
X151291000Y-110628500I0J-262900D01*
G01*
X151291000Y-111154300D01*
G75*
G02*
X151028100Y-111417200I-262900J0D01*
G01*
X150477300Y-111417200D01*
G75*
G02*
X150214400Y-111154300I0J262900D01*
G01*
G37*
%TD*%
D13*
%TO.C,J10*%
X166275000Y-115506500D03*
G36*
G01*
X167600000Y-114780700D02*
X168950000Y-114780700D01*
G75*
G02*
X169000800Y-114831500I0J-50800D01*
G01*
X169000800Y-116181500D01*
G75*
G02*
X168950000Y-116232300I-50800J0D01*
G01*
X167600000Y-116232300D01*
G75*
G02*
X167549200Y-116181500I0J50800D01*
G01*
X167549200Y-114831500D01*
G75*
G02*
X167600000Y-114780700I50800J0D01*
G01*
G37*
%TD*%
%TO.C,C7*%
G36*
G01*
X145140800Y-108690600D02*
X145140800Y-109241400D01*
G75*
G02*
X144890400Y-109491800I-250400J0D01*
G01*
X144389600Y-109491800D01*
G75*
G02*
X144139200Y-109241400I0J250400D01*
G01*
X144139200Y-108690600D01*
G75*
G02*
X144389600Y-108440200I250400J0D01*
G01*
X144890400Y-108440200D01*
G75*
G02*
X145140800Y-108690600I0J-250400D01*
G01*
G37*
G36*
G01*
X146690800Y-108690600D02*
X146690800Y-109241400D01*
G75*
G02*
X146440400Y-109491800I-250400J0D01*
G01*
X145939600Y-109491800D01*
G75*
G02*
X145689200Y-109241400I0J250400D01*
G01*
X145689200Y-108690600D01*
G75*
G02*
X145939600Y-108440200I250400J0D01*
G01*
X146440400Y-108440200D01*
G75*
G02*
X146690800Y-108690600I0J-250400D01*
G01*
G37*
%TD*%
%TO.C,U4*%
G36*
G01*
X143427000Y-108503298D02*
X142577000Y-108503298D01*
G75*
G02*
X142526200Y-108452498I0J50800D01*
G01*
X142526200Y-108052500D01*
G75*
G02*
X142577000Y-108001700I50800J0D01*
G01*
X143427000Y-108001700D01*
G75*
G02*
X143477800Y-108052500I0J-50800D01*
G01*
X143477800Y-108452498D01*
G75*
G02*
X143427000Y-108503298I-50800J0D01*
G01*
G37*
G36*
G01*
X143427000Y-109153299D02*
X142577000Y-109153299D01*
G75*
G02*
X142526200Y-109102499I0J50800D01*
G01*
X142526200Y-108702501D01*
G75*
G02*
X142577000Y-108651701I50800J0D01*
G01*
X143427000Y-108651701D01*
G75*
G02*
X143477800Y-108702501I0J-50800D01*
G01*
X143477800Y-109102499D01*
G75*
G02*
X143427000Y-109153299I-50800J0D01*
G01*
G37*
G36*
G01*
X143427000Y-109803298D02*
X142577000Y-109803298D01*
G75*
G02*
X142526200Y-109752498I0J50800D01*
G01*
X142526200Y-109352500D01*
G75*
G02*
X142577000Y-109301700I50800J0D01*
G01*
X143427000Y-109301700D01*
G75*
G02*
X143477800Y-109352500I0J-50800D01*
G01*
X143477800Y-109752498D01*
G75*
G02*
X143427000Y-109803298I-50800J0D01*
G01*
G37*
G36*
G01*
X141176999Y-109803298D02*
X140326999Y-109803298D01*
G75*
G02*
X140276199Y-109752498I0J50800D01*
G01*
X140276199Y-109352500D01*
G75*
G02*
X140326999Y-109301700I50800J0D01*
G01*
X141176999Y-109301700D01*
G75*
G02*
X141227799Y-109352500I0J-50800D01*
G01*
X141227799Y-109752498D01*
G75*
G02*
X141176999Y-109803298I-50800J0D01*
G01*
G37*
G36*
G01*
X141176999Y-109153299D02*
X140326999Y-109153299D01*
G75*
G02*
X140276199Y-109102499I0J50800D01*
G01*
X140276199Y-108702501D01*
G75*
G02*
X140326999Y-108651701I50800J0D01*
G01*
X141176999Y-108651701D01*
G75*
G02*
X141227799Y-108702501I0J-50800D01*
G01*
X141227799Y-109102499D01*
G75*
G02*
X141176999Y-109153299I-50800J0D01*
G01*
G37*
G36*
G01*
X141176999Y-108503298D02*
X140326999Y-108503298D01*
G75*
G02*
X140276199Y-108452498I0J50800D01*
G01*
X140276199Y-108052500D01*
G75*
G02*
X140326999Y-108001700I50800J0D01*
G01*
X141176999Y-108001700D01*
G75*
G02*
X141227799Y-108052500I0J-50800D01*
G01*
X141227799Y-108452498D01*
G75*
G02*
X141176999Y-108503298I-50800J0D01*
G01*
G37*
%TD*%
%TO.C,C6*%
G36*
G01*
X129954200Y-104097900D02*
X129954200Y-103547100D01*
G75*
G02*
X130204600Y-103296700I250400J0D01*
G01*
X130705400Y-103296700D01*
G75*
G02*
X130955800Y-103547100I0J-250400D01*
G01*
X130955800Y-104097900D01*
G75*
G02*
X130705400Y-104348300I-250400J0D01*
G01*
X130204600Y-104348300D01*
G75*
G02*
X129954200Y-104097900I0J250400D01*
G01*
G37*
G36*
G01*
X128404200Y-104097900D02*
X128404200Y-103547100D01*
G75*
G02*
X128654600Y-103296700I250400J0D01*
G01*
X129155400Y-103296700D01*
G75*
G02*
X129405800Y-103547100I0J-250400D01*
G01*
X129405800Y-104097900D01*
G75*
G02*
X129155400Y-104348300I-250400J0D01*
G01*
X128654600Y-104348300D01*
G75*
G02*
X128404200Y-104097900I0J250400D01*
G01*
G37*
%TD*%
%TO.C,R5*%
G36*
G01*
X132850900Y-107027800D02*
X132325100Y-107027800D01*
G75*
G02*
X132062200Y-106764900I0J262900D01*
G01*
X132062200Y-106214100D01*
G75*
G02*
X132325100Y-105951200I262900J0D01*
G01*
X132850900Y-105951200D01*
G75*
G02*
X133113800Y-106214100I0J-262900D01*
G01*
X133113800Y-106764900D01*
G75*
G02*
X132850900Y-107027800I-262900J0D01*
G01*
G37*
G36*
G01*
X132850900Y-108852800D02*
X132325100Y-108852800D01*
G75*
G02*
X132062200Y-108589900I0J262900D01*
G01*
X132062200Y-108039100D01*
G75*
G02*
X132325100Y-107776200I262900J0D01*
G01*
X132850900Y-107776200D01*
G75*
G02*
X133113800Y-108039100I0J-262900D01*
G01*
X133113800Y-108589900D01*
G75*
G02*
X132850900Y-108852800I-262900J0D01*
G01*
G37*
%TD*%
%TO.C,C5*%
G36*
G01*
X166856600Y-101734200D02*
X167407400Y-101734200D01*
G75*
G02*
X167657800Y-101984600I0J-250400D01*
G01*
X167657800Y-102485400D01*
G75*
G02*
X167407400Y-102735800I-250400J0D01*
G01*
X166856600Y-102735800D01*
G75*
G02*
X166606200Y-102485400I0J250400D01*
G01*
X166606200Y-101984600D01*
G75*
G02*
X166856600Y-101734200I250400J0D01*
G01*
G37*
G36*
G01*
X166856600Y-100184200D02*
X167407400Y-100184200D01*
G75*
G02*
X167657800Y-100434600I0J-250400D01*
G01*
X167657800Y-100935400D01*
G75*
G02*
X167407400Y-101185800I-250400J0D01*
G01*
X166856600Y-101185800D01*
G75*
G02*
X166606200Y-100935400I0J250400D01*
G01*
X166606200Y-100434600D01*
G75*
G02*
X166856600Y-100184200I250400J0D01*
G01*
G37*
%TD*%
%TO.C,C4*%
G36*
G01*
X163913300Y-110658800D02*
X163913300Y-110108000D01*
G75*
G02*
X164163700Y-109857600I250400J0D01*
G01*
X164664500Y-109857600D01*
G75*
G02*
X164914900Y-110108000I0J-250400D01*
G01*
X164914900Y-110658800D01*
G75*
G02*
X164664500Y-110909200I-250400J0D01*
G01*
X164163700Y-110909200D01*
G75*
G02*
X163913300Y-110658800I0J250400D01*
G01*
G37*
G36*
G01*
X162363300Y-110658800D02*
X162363300Y-110108000D01*
G75*
G02*
X162613700Y-109857600I250400J0D01*
G01*
X163114500Y-109857600D01*
G75*
G02*
X163364900Y-110108000I0J-250400D01*
G01*
X163364900Y-110658800D01*
G75*
G02*
X163114500Y-110909200I-250400J0D01*
G01*
X162613700Y-110909200D01*
G75*
G02*
X162363300Y-110658800I0J250400D01*
G01*
G37*
%TD*%
%TO.C,C3*%
G36*
G01*
X137279800Y-106023600D02*
X137279800Y-106574400D01*
G75*
G02*
X137029400Y-106824800I-250400J0D01*
G01*
X136528600Y-106824800D01*
G75*
G02*
X136278200Y-106574400I0J250400D01*
G01*
X136278200Y-106023600D01*
G75*
G02*
X136528600Y-105773200I250400J0D01*
G01*
X137029400Y-105773200D01*
G75*
G02*
X137279800Y-106023600I0J-250400D01*
G01*
G37*
G36*
G01*
X138829800Y-106023600D02*
X138829800Y-106574400D01*
G75*
G02*
X138579400Y-106824800I-250400J0D01*
G01*
X138078600Y-106824800D01*
G75*
G02*
X137828200Y-106574400I0J250400D01*
G01*
X137828200Y-106023600D01*
G75*
G02*
X138078600Y-105773200I250400J0D01*
G01*
X138579400Y-105773200D01*
G75*
G02*
X138829800Y-106023600I0J-250400D01*
G01*
G37*
%TD*%
%TO.C,C2*%
G36*
G01*
X133709600Y-104173200D02*
X134260400Y-104173200D01*
G75*
G02*
X134510800Y-104423600I0J-250400D01*
G01*
X134510800Y-104924400D01*
G75*
G02*
X134260400Y-105174800I-250400J0D01*
G01*
X133709600Y-105174800D01*
G75*
G02*
X133459200Y-104924400I0J250400D01*
G01*
X133459200Y-104423600D01*
G75*
G02*
X133709600Y-104173200I250400J0D01*
G01*
G37*
G36*
G01*
X133709600Y-102623200D02*
X134260400Y-102623200D01*
G75*
G02*
X134510800Y-102873600I0J-250400D01*
G01*
X134510800Y-103374400D01*
G75*
G02*
X134260400Y-103624800I-250400J0D01*
G01*
X133709600Y-103624800D01*
G75*
G02*
X133459200Y-103374400I0J250400D01*
G01*
X133459200Y-102873600D01*
G75*
G02*
X133709600Y-102623200I250400J0D01*
G01*
G37*
%TD*%
%TO.C,R4*%
G36*
G01*
X163503600Y-115459700D02*
X164029400Y-115459700D01*
G75*
G02*
X164292300Y-115722600I0J-262900D01*
G01*
X164292300Y-116273400D01*
G75*
G02*
X164029400Y-116536300I-262900J0D01*
G01*
X163503600Y-116536300D01*
G75*
G02*
X163240700Y-116273400I0J262900D01*
G01*
X163240700Y-115722600D01*
G75*
G02*
X163503600Y-115459700I262900J0D01*
G01*
G37*
G36*
G01*
X163503600Y-113634700D02*
X164029400Y-113634700D01*
G75*
G02*
X164292300Y-113897600I0J-262900D01*
G01*
X164292300Y-114448400D01*
G75*
G02*
X164029400Y-114711300I-262900J0D01*
G01*
X163503600Y-114711300D01*
G75*
G02*
X163240700Y-114448400I0J262900D01*
G01*
X163240700Y-113897600D01*
G75*
G02*
X163503600Y-113634700I262900J0D01*
G01*
G37*
%TD*%
%TO.C,R3*%
G36*
G01*
X167711300Y-113470700D02*
X167711300Y-112944900D01*
G75*
G02*
X167974200Y-112682000I262900J0D01*
G01*
X168525000Y-112682000D01*
G75*
G02*
X168787900Y-112944900I0J-262900D01*
G01*
X168787900Y-113470700D01*
G75*
G02*
X168525000Y-113733600I-262900J0D01*
G01*
X167974200Y-113733600D01*
G75*
G02*
X167711300Y-113470700I0J262900D01*
G01*
G37*
G36*
G01*
X165886300Y-113470700D02*
X165886300Y-112944900D01*
G75*
G02*
X166149200Y-112682000I262900J0D01*
G01*
X166700000Y-112682000D01*
G75*
G02*
X166962900Y-112944900I0J-262900D01*
G01*
X166962900Y-113470700D01*
G75*
G02*
X166700000Y-113733600I-262900J0D01*
G01*
X166149200Y-113733600D01*
G75*
G02*
X165886300Y-113470700I0J262900D01*
G01*
G37*
%TD*%
%TO.C,R2*%
G36*
G01*
X167760200Y-111299000D02*
X167760200Y-110773200D01*
G75*
G02*
X168023100Y-110510300I262900J0D01*
G01*
X168573900Y-110510300D01*
G75*
G02*
X168836800Y-110773200I0J-262900D01*
G01*
X168836800Y-111299000D01*
G75*
G02*
X168573900Y-111561900I-262900J0D01*
G01*
X168023100Y-111561900D01*
G75*
G02*
X167760200Y-111299000I0J262900D01*
G01*
G37*
G36*
G01*
X165935200Y-111299000D02*
X165935200Y-110773200D01*
G75*
G02*
X166198100Y-110510300I262900J0D01*
G01*
X166748900Y-110510300D01*
G75*
G02*
X167011800Y-110773200I0J-262900D01*
G01*
X167011800Y-111299000D01*
G75*
G02*
X166748900Y-111561900I-262900J0D01*
G01*
X166198100Y-111561900D01*
G75*
G02*
X165935200Y-111299000I0J262900D01*
G01*
G37*
%TD*%
D14*
%TO.C,J11*%
X168833700Y-93924200D03*
%TD*%
D15*
%TO.C,J9*%
X128244500Y-97937400D03*
X128244500Y-99937402D03*
%TD*%
D16*
%TO.C,C1*%
X143078100Y-103728600D03*
X143078100Y-106268600D03*
%TD*%
D15*
%TO.C,J8*%
X131089300Y-113006199D03*
X131089300Y-115006201D03*
%TD*%
%TO.C,U1*%
G36*
G01*
X165709600Y-104419400D02*
X165709600Y-103860600D01*
G75*
G02*
X165760400Y-103809800I50800J0D01*
G01*
X167233600Y-103809800D01*
G75*
G02*
X167284400Y-103860600I0J-50800D01*
G01*
X167284400Y-104419400D01*
G75*
G02*
X167233600Y-104470200I-50800J0D01*
G01*
X165760400Y-104470200D01*
G75*
G02*
X165709600Y-104419400I0J50800D01*
G01*
G37*
G36*
G01*
X165709600Y-105689400D02*
X165709600Y-105130600D01*
G75*
G02*
X165760400Y-105079800I50800J0D01*
G01*
X167233600Y-105079800D01*
G75*
G02*
X167284400Y-105130600I0J-50800D01*
G01*
X167284400Y-105689400D01*
G75*
G02*
X167233600Y-105740200I-50800J0D01*
G01*
X165760400Y-105740200D01*
G75*
G02*
X165709600Y-105689400I0J50800D01*
G01*
G37*
G36*
G01*
X165709600Y-106959400D02*
X165709600Y-106400600D01*
G75*
G02*
X165760400Y-106349800I50800J0D01*
G01*
X167233600Y-106349800D01*
G75*
G02*
X167284400Y-106400600I0J-50800D01*
G01*
X167284400Y-106959400D01*
G75*
G02*
X167233600Y-107010200I-50800J0D01*
G01*
X165760400Y-107010200D01*
G75*
G02*
X165709600Y-106959400I0J50800D01*
G01*
G37*
G36*
G01*
X165709600Y-108229400D02*
X165709600Y-107670600D01*
G75*
G02*
X165760400Y-107619800I50800J0D01*
G01*
X167233600Y-107619800D01*
G75*
G02*
X167284400Y-107670600I0J-50800D01*
G01*
X167284400Y-108229400D01*
G75*
G02*
X167233600Y-108280200I-50800J0D01*
G01*
X165760400Y-108280200D01*
G75*
G02*
X165709600Y-108229400I0J50800D01*
G01*
G37*
G36*
G01*
X158394400Y-108229400D02*
X158394400Y-107670600D01*
G75*
G02*
X158445200Y-107619800I50800J0D01*
G01*
X159918400Y-107619800D01*
G75*
G02*
X159969200Y-107670600I0J-50800D01*
G01*
X159969200Y-108229400D01*
G75*
G02*
X159918400Y-108280200I-50800J0D01*
G01*
X158445200Y-108280200D01*
G75*
G02*
X158394400Y-108229400I0J50800D01*
G01*
G37*
G36*
G01*
X158394400Y-106959400D02*
X158394400Y-106400600D01*
G75*
G02*
X158445200Y-106349800I50800J0D01*
G01*
X159918400Y-106349800D01*
G75*
G02*
X159969200Y-106400600I0J-50800D01*
G01*
X159969200Y-106959400D01*
G75*
G02*
X159918400Y-107010200I-50800J0D01*
G01*
X158445200Y-107010200D01*
G75*
G02*
X158394400Y-106959400I0J50800D01*
G01*
G37*
G36*
G01*
X158394400Y-105689400D02*
X158394400Y-105130600D01*
G75*
G02*
X158445200Y-105079800I50800J0D01*
G01*
X159918400Y-105079800D01*
G75*
G02*
X159969200Y-105130600I0J-50800D01*
G01*
X159969200Y-105689400D01*
G75*
G02*
X159918400Y-105740200I-50800J0D01*
G01*
X158445200Y-105740200D01*
G75*
G02*
X158394400Y-105689400I0J50800D01*
G01*
G37*
G36*
G01*
X158394400Y-104419400D02*
X158394400Y-103860600D01*
G75*
G02*
X158445200Y-103809800I50800J0D01*
G01*
X159918400Y-103809800D01*
G75*
G02*
X159969200Y-103860600I0J-50800D01*
G01*
X159969200Y-104419400D01*
G75*
G02*
X159918400Y-104470200I-50800J0D01*
G01*
X158445200Y-104470200D01*
G75*
G02*
X158394400Y-104419400I0J50800D01*
G01*
G37*
%TD*%
%TO.C,U3*%
G36*
G01*
X137093800Y-104463000D02*
X137093800Y-104863000D01*
G75*
G02*
X137043000Y-104913800I-50800J0D01*
G01*
X136393000Y-104913800D01*
G75*
G02*
X136342200Y-104863000I0J50800D01*
G01*
X136342200Y-104463000D01*
G75*
G02*
X136393000Y-104412200I50800J0D01*
G01*
X137043000Y-104412200D01*
G75*
G02*
X137093800Y-104463000I0J-50800D01*
G01*
G37*
G36*
G01*
X137093800Y-103163000D02*
X137093800Y-103563000D01*
G75*
G02*
X137043000Y-103613800I-50800J0D01*
G01*
X136393000Y-103613800D01*
G75*
G02*
X136342200Y-103563000I0J50800D01*
G01*
X136342200Y-103163000D01*
G75*
G02*
X136393000Y-103112200I50800J0D01*
G01*
X137043000Y-103112200D01*
G75*
G02*
X137093800Y-103163000I0J-50800D01*
G01*
G37*
G36*
G01*
X138993800Y-103813000D02*
X138993800Y-104213000D01*
G75*
G02*
X138943000Y-104263800I-50800J0D01*
G01*
X138293000Y-104263800D01*
G75*
G02*
X138242200Y-104213000I0J50800D01*
G01*
X138242200Y-103813000D01*
G75*
G02*
X138293000Y-103762200I50800J0D01*
G01*
X138943000Y-103762200D01*
G75*
G02*
X138993800Y-103813000I0J-50800D01*
G01*
G37*
G36*
G01*
X137093800Y-103813000D02*
X137093800Y-104213000D01*
G75*
G02*
X137043000Y-104263800I-50800J0D01*
G01*
X136393000Y-104263800D01*
G75*
G02*
X136342200Y-104213000I0J50800D01*
G01*
X136342200Y-103813000D01*
G75*
G02*
X136393000Y-103762200I50800J0D01*
G01*
X137043000Y-103762200D01*
G75*
G02*
X137093800Y-103813000I0J-50800D01*
G01*
G37*
G36*
G01*
X138993800Y-103163000D02*
X138993800Y-103563000D01*
G75*
G02*
X138943000Y-103613800I-50800J0D01*
G01*
X138293000Y-103613800D01*
G75*
G02*
X138242200Y-103563000I0J50800D01*
G01*
X138242200Y-103163000D01*
G75*
G02*
X138293000Y-103112200I50800J0D01*
G01*
X138943000Y-103112200D01*
G75*
G02*
X138993800Y-103163000I0J-50800D01*
G01*
G37*
G36*
G01*
X138993800Y-104463000D02*
X138993800Y-104863000D01*
G75*
G02*
X138943000Y-104913800I-50800J0D01*
G01*
X138293000Y-104913800D01*
G75*
G02*
X138242200Y-104863000I0J50800D01*
G01*
X138242200Y-104463000D01*
G75*
G02*
X138293000Y-104412200I50800J0D01*
G01*
X138943000Y-104412200D01*
G75*
G02*
X138993800Y-104463000I0J-50800D01*
G01*
G37*
%TD*%
D12*
%TO.C,J2*%
X145539100Y-98775600D03*
X147539100Y-98775600D03*
X149539100Y-98775600D03*
G36*
G01*
X152275700Y-98140600D02*
X152275700Y-99410600D01*
G75*
G02*
X152174100Y-99512200I-101600J0D01*
G01*
X150904100Y-99512200D01*
G75*
G02*
X150802500Y-99410600I0J101600D01*
G01*
X150802500Y-98140600D01*
G75*
G02*
X150904100Y-98039000I101600J0D01*
G01*
X152174100Y-98039000D01*
G75*
G02*
X152275700Y-98140600I0J-101600D01*
G01*
G37*
%TD*%
D17*
%TO.C,J4*%
X159842100Y-115666600D03*
X159842100Y-113126600D03*
X157302100Y-115666600D03*
X157302100Y-113126600D03*
X154762100Y-115666600D03*
X154762100Y-113126600D03*
X152222100Y-115666600D03*
X152222100Y-113126600D03*
X149682100Y-115666600D03*
X149682100Y-113126600D03*
X147142100Y-115666600D03*
X147142100Y-113126600D03*
X144602100Y-115666600D03*
X144602100Y-113126600D03*
X142062100Y-115666600D03*
X142062100Y-113126600D03*
X139522100Y-115666600D03*
X139522100Y-113126600D03*
X136982100Y-115666600D03*
X136982100Y-113126600D03*
%TD*%
D12*
%TO.C,J3*%
X157477100Y-98775600D03*
X159477100Y-98775600D03*
X161477100Y-98775600D03*
G36*
G01*
X164213700Y-98140600D02*
X164213700Y-99410600D01*
G75*
G02*
X164112100Y-99512200I-101600J0D01*
G01*
X162842100Y-99512200D01*
G75*
G02*
X162740500Y-99410600I0J101600D01*
G01*
X162740500Y-98140600D01*
G75*
G02*
X162842100Y-98039000I101600J0D01*
G01*
X164112100Y-98039000D01*
G75*
G02*
X164213700Y-98140600I0J-101600D01*
G01*
G37*
%TD*%
D11*
%TO.C,J5*%
X132791100Y-95854600D03*
X135331100Y-95854600D03*
X137871100Y-95854600D03*
X140411100Y-95854600D03*
%TD*%
%TO.C,J6*%
X144729100Y-95854600D03*
X147269100Y-95854600D03*
X149809100Y-95854600D03*
X152349100Y-95854600D03*
%TD*%
%TO.C,J7*%
X156667100Y-95854600D03*
X159207100Y-95854600D03*
X161747100Y-95854600D03*
X164287100Y-95854600D03*
%TD*%
%TO.C,R1*%
G36*
G01*
X153620300Y-103750100D02*
X153620300Y-104275900D01*
G75*
G02*
X153357400Y-104538800I-262900J0D01*
G01*
X152806600Y-104538800D01*
G75*
G02*
X152543700Y-104275900I0J262900D01*
G01*
X152543700Y-103750100D01*
G75*
G02*
X152806600Y-103487200I262900J0D01*
G01*
X153357400Y-103487200D01*
G75*
G02*
X153620300Y-103750100I0J-262900D01*
G01*
G37*
G36*
G01*
X151795300Y-103750100D02*
X151795300Y-104275900D01*
G75*
G02*
X151532400Y-104538800I-262900J0D01*
G01*
X150981600Y-104538800D01*
G75*
G02*
X150718700Y-104275900I0J262900D01*
G01*
X150718700Y-103750100D01*
G75*
G02*
X150981600Y-103487200I262900J0D01*
G01*
X151532400Y-103487200D01*
G75*
G02*
X151795300Y-103750100I0J-262900D01*
G01*
G37*
%TD*%
D18*
G36*
X129270032Y-108355400D02*
G01*
X129270032Y-108357400D01*
X129268496Y-108358390D01*
X129258843Y-108359340D01*
X129249744Y-108362101D01*
X129241360Y-108366582D01*
X129234013Y-108372612D01*
X129227983Y-108379959D01*
X129223502Y-108388343D01*
X129220741Y-108397442D01*
X129219801Y-108406993D01*
X129219801Y-108419900D01*
X129218801Y-108421632D01*
X129217801Y-108421900D01*
X128862201Y-108421900D01*
X128860469Y-108420900D01*
X128860201Y-108419900D01*
X128860201Y-108406993D01*
X128859261Y-108397442D01*
X128856500Y-108388343D01*
X128852019Y-108379959D01*
X128845989Y-108372612D01*
X128838642Y-108366582D01*
X128830258Y-108362101D01*
X128821159Y-108359340D01*
X128811506Y-108358390D01*
X128809880Y-108357225D01*
X128810076Y-108355235D01*
X128811702Y-108354400D01*
X129268300Y-108354400D01*
X129270032Y-108355400D01*
G37*
G36*
X130270030Y-108355400D02*
G01*
X130270030Y-108357400D01*
X130268494Y-108358390D01*
X130258841Y-108359340D01*
X130249742Y-108362101D01*
X130241358Y-108366582D01*
X130234011Y-108372612D01*
X130227981Y-108379959D01*
X130223500Y-108388343D01*
X130220739Y-108397442D01*
X130219799Y-108406993D01*
X130219799Y-108419900D01*
X130218799Y-108421632D01*
X130217799Y-108421900D01*
X129862199Y-108421900D01*
X129860467Y-108420900D01*
X129860199Y-108419900D01*
X129860199Y-108406993D01*
X129859259Y-108397442D01*
X129856498Y-108388343D01*
X129852017Y-108379959D01*
X129845987Y-108372612D01*
X129838640Y-108366582D01*
X129830256Y-108362101D01*
X129821157Y-108359340D01*
X129811504Y-108358390D01*
X129809878Y-108357225D01*
X129810074Y-108355235D01*
X129811700Y-108354400D01*
X130268298Y-108354400D01*
X130270030Y-108355400D01*
G37*
G36*
X129770031Y-108355400D02*
G01*
X129770031Y-108357400D01*
X129768495Y-108358390D01*
X129758842Y-108359340D01*
X129749743Y-108362101D01*
X129741359Y-108366582D01*
X129734012Y-108372612D01*
X129727982Y-108379959D01*
X129723501Y-108388343D01*
X129720740Y-108397442D01*
X129719800Y-108406993D01*
X129719800Y-108419900D01*
X129718800Y-108421632D01*
X129717800Y-108421900D01*
X129362200Y-108421900D01*
X129360468Y-108420900D01*
X129360200Y-108419900D01*
X129360200Y-108406993D01*
X129359260Y-108397442D01*
X129356499Y-108388343D01*
X129352018Y-108379959D01*
X129345988Y-108372612D01*
X129338641Y-108366582D01*
X129330257Y-108362101D01*
X129321158Y-108359340D01*
X129311505Y-108358390D01*
X129309879Y-108357225D01*
X129310075Y-108355235D01*
X129311701Y-108354400D01*
X129768299Y-108354400D01*
X129770031Y-108355400D01*
G37*
G36*
X130219531Y-106437700D02*
G01*
X130219799Y-106438700D01*
X130219799Y-106451607D01*
X130220739Y-106461158D01*
X130223500Y-106470257D01*
X130227981Y-106478641D01*
X130234011Y-106485988D01*
X130241358Y-106492018D01*
X130249742Y-106496499D01*
X130258841Y-106499260D01*
X130268494Y-106500210D01*
X130270120Y-106501375D01*
X130269924Y-106503365D01*
X130268298Y-106504200D01*
X129811700Y-106504200D01*
X129809968Y-106503200D01*
X129809968Y-106501200D01*
X129811504Y-106500210D01*
X129821157Y-106499260D01*
X129830256Y-106496499D01*
X129838640Y-106492018D01*
X129845987Y-106485988D01*
X129852017Y-106478641D01*
X129856498Y-106470257D01*
X129859259Y-106461158D01*
X129860199Y-106451607D01*
X129860199Y-106438700D01*
X129861199Y-106436968D01*
X129862199Y-106436700D01*
X130217799Y-106436700D01*
X130219531Y-106437700D01*
G37*
G36*
X129219533Y-106437700D02*
G01*
X129219801Y-106438700D01*
X129219801Y-106451607D01*
X129220741Y-106461158D01*
X129223502Y-106470257D01*
X129227983Y-106478641D01*
X129234013Y-106485988D01*
X129241360Y-106492018D01*
X129249744Y-106496499D01*
X129258843Y-106499260D01*
X129268496Y-106500210D01*
X129270122Y-106501375D01*
X129269926Y-106503365D01*
X129268300Y-106504200D01*
X128811702Y-106504200D01*
X128809970Y-106503200D01*
X128809970Y-106501200D01*
X128811506Y-106500210D01*
X128821159Y-106499260D01*
X128830258Y-106496499D01*
X128838642Y-106492018D01*
X128845989Y-106485988D01*
X128852019Y-106478641D01*
X128856500Y-106470257D01*
X128859261Y-106461158D01*
X128860201Y-106451607D01*
X128860201Y-106438700D01*
X128861201Y-106436968D01*
X128862201Y-106436700D01*
X129217801Y-106436700D01*
X129219533Y-106437700D01*
G37*
G36*
X129719532Y-106437700D02*
G01*
X129719800Y-106438700D01*
X129719800Y-106451607D01*
X129720740Y-106461158D01*
X129723501Y-106470257D01*
X129727982Y-106478641D01*
X129734012Y-106485988D01*
X129741359Y-106492018D01*
X129749743Y-106496499D01*
X129758842Y-106499260D01*
X129768495Y-106500210D01*
X129770121Y-106501375D01*
X129769925Y-106503365D01*
X129768299Y-106504200D01*
X129311701Y-106504200D01*
X129309969Y-106503200D01*
X129309969Y-106501200D01*
X129311505Y-106500210D01*
X129321158Y-106499260D01*
X129330257Y-106496499D01*
X129338641Y-106492018D01*
X129345988Y-106485988D01*
X129352018Y-106478641D01*
X129356499Y-106470257D01*
X129359260Y-106461158D01*
X129360200Y-106451607D01*
X129360200Y-106438700D01*
X129361200Y-106436968D01*
X129362200Y-106436700D01*
X129717800Y-106436700D01*
X129719532Y-106437700D01*
G37*
M02*
