%TF.GenerationSoftware,KiCad,Pcbnew,(5.1.9)-1*%
%TF.CreationDate,2021-02-11T09:32:33-08:00*%
%TF.ProjectId,KNH002rev4,4b4e4830-3032-4726-9576-342e6b696361,rev?*%
%TF.SameCoordinates,Original*%
%TF.FileFunction,Copper,L1,Top*%
%TF.FilePolarity,Positive*%
%FSLAX46Y46*%
G04 Gerber Fmt 4.6, Leading zero omitted, Abs format (unit mm)*
G04 Created by KiCad (PCBNEW (5.1.9)-1) date 2021-02-11 09:32:33*
%MOMM*%
%LPD*%
G01*
G04 APERTURE LIST*
%TA.AperFunction,SMDPad,CuDef*%
%ADD10R,1.447800X1.752600*%
%TD*%
%TA.AperFunction,SMDPad,CuDef*%
%ADD11R,0.254000X0.812800*%
%TD*%
%TA.AperFunction,ComponentPad*%
%ADD12C,1.524000*%
%TD*%
%TA.AperFunction,ComponentPad*%
%ADD13C,1.270000*%
%TD*%
%TA.AperFunction,ComponentPad*%
%ADD14R,1.270000X1.270000*%
%TD*%
%TA.AperFunction,SMDPad,CuDef*%
%ADD15R,1.600000X0.800000*%
%TD*%
%TA.AperFunction,ComponentPad*%
%ADD16O,1.350000X1.350000*%
%TD*%
%TA.AperFunction,ComponentPad*%
%ADD17R,1.350000X1.350000*%
%TD*%
%TA.AperFunction,SMDPad,CuDef*%
%ADD18R,0.850001X0.399999*%
%TD*%
%TA.AperFunction,ComponentPad*%
%ADD19C,2.400000*%
%TD*%
%TA.AperFunction,ComponentPad*%
%ADD20C,1.320800*%
%TD*%
%TA.AperFunction,ComponentPad*%
%ADD21C,1.574800*%
%TD*%
%TA.AperFunction,SMDPad,CuDef*%
%ADD22R,1.473200X0.558800*%
%TD*%
%TA.AperFunction,SMDPad,CuDef*%
%ADD23R,0.650000X0.400000*%
%TD*%
%TA.AperFunction,ComponentPad*%
%ADD24C,1.879600*%
%TD*%
%TA.AperFunction,ViaPad*%
%ADD25C,0.800000*%
%TD*%
%TA.AperFunction,Conductor*%
%ADD26C,1.016000*%
%TD*%
%TA.AperFunction,Conductor*%
%ADD27C,0.500000*%
%TD*%
%TA.AperFunction,Conductor*%
%ADD28C,1.000000*%
%TD*%
%TA.AperFunction,Conductor*%
%ADD29C,0.400000*%
%TD*%
%TA.AperFunction,Conductor*%
%ADD30C,0.250000*%
%TD*%
%TA.AperFunction,Conductor*%
%ADD31C,0.800000*%
%TD*%
%TA.AperFunction,Conductor*%
%ADD32C,0.750000*%
%TD*%
%TA.AperFunction,Conductor*%
%ADD33C,0.406400*%
%TD*%
%TA.AperFunction,Conductor*%
%ADD34C,0.304800*%
%TD*%
G04 APERTURE END LIST*
D10*
%TO.P,U5,7*%
%TO.N,N/C*%
X129540000Y-107429300D03*
D11*
%TO.P,U5,6*%
%TO.N,/VbatIn*%
X130039999Y-108877100D03*
%TO.P,U5,5*%
%TO.N,/D4_AL*%
X129540000Y-108877100D03*
%TO.P,U5,4*%
%TO.N,/SDA*%
X129040001Y-108877100D03*
%TO.P,U5,3*%
%TO.N,/SCL*%
X129040001Y-105981500D03*
%TO.P,U5,2*%
%TO.N,GND*%
X129540000Y-105981500D03*
%TO.P,U5,1*%
%TO.N,/Vbat*%
X130039999Y-105981500D03*
%TD*%
%TO.P,R8,2*%
%TO.N,Net-(JP1-Pad1)*%
%TA.AperFunction,SMDPad,CuDef*%
G36*
G01*
X148686600Y-110874900D02*
X148686600Y-110399900D01*
G75*
G02*
X148924100Y-110162400I237500J0D01*
G01*
X149424100Y-110162400D01*
G75*
G02*
X149661600Y-110399900I0J-237500D01*
G01*
X149661600Y-110874900D01*
G75*
G02*
X149424100Y-111112400I-237500J0D01*
G01*
X148924100Y-111112400D01*
G75*
G02*
X148686600Y-110874900I0J237500D01*
G01*
G37*
%TD.AperFunction*%
%TO.P,R8,1*%
%TO.N,/12V*%
%TA.AperFunction,SMDPad,CuDef*%
G36*
G01*
X146861600Y-110874900D02*
X146861600Y-110399900D01*
G75*
G02*
X147099100Y-110162400I237500J0D01*
G01*
X147599100Y-110162400D01*
G75*
G02*
X147836600Y-110399900I0J-237500D01*
G01*
X147836600Y-110874900D01*
G75*
G02*
X147599100Y-111112400I-237500J0D01*
G01*
X147099100Y-111112400D01*
G75*
G02*
X146861600Y-110874900I0J237500D01*
G01*
G37*
%TD.AperFunction*%
%TD*%
D12*
%TO.P,U2,VOUT*%
%TO.N,Net-(JP1-Pad1)*%
X149326500Y-108757800D03*
%TO.P,U2,GND*%
%TO.N,GND*%
X149326500Y-106217800D03*
%TO.P,U2,VIN*%
%TO.N,/Vbstin*%
X149326500Y-103677800D03*
%TD*%
D13*
%TO.P,J1,4*%
%TO.N,GND*%
X133601100Y-98775600D03*
%TO.P,J1,3*%
%TO.N,/12V*%
X135601100Y-98775600D03*
%TO.P,J1,2*%
%TO.N,/B-*%
X137601100Y-98775600D03*
D14*
%TO.P,J1,1*%
%TO.N,/A+*%
X139601100Y-98775600D03*
%TD*%
D15*
%TO.P,LED1,2*%
%TO.N,Net-(LED1-Pad2)*%
X154990900Y-110931000D03*
%TO.P,LED1,3*%
%TO.N,+3V0*%
X158190900Y-109531000D03*
%TO.P,LED1,4*%
%TO.N,Net-(LED1-Pad4)*%
X154990900Y-109531000D03*
%TO.P,LED1,1*%
%TO.N,+3V0*%
X158190900Y-110931000D03*
%TD*%
%TO.P,R7,2*%
%TO.N,Net-(LED1-Pad4)*%
%TA.AperFunction,SMDPad,CuDef*%
G36*
G01*
X152494700Y-108436500D02*
X152494700Y-107961500D01*
G75*
G02*
X152732200Y-107724000I237500J0D01*
G01*
X153232200Y-107724000D01*
G75*
G02*
X153469700Y-107961500I0J-237500D01*
G01*
X153469700Y-108436500D01*
G75*
G02*
X153232200Y-108674000I-237500J0D01*
G01*
X152732200Y-108674000D01*
G75*
G02*
X152494700Y-108436500I0J237500D01*
G01*
G37*
%TD.AperFunction*%
%TO.P,R7,1*%
%TO.N,/RXb*%
%TA.AperFunction,SMDPad,CuDef*%
G36*
G01*
X150669700Y-108436500D02*
X150669700Y-107961500D01*
G75*
G02*
X150907200Y-107724000I237500J0D01*
G01*
X151407200Y-107724000D01*
G75*
G02*
X151644700Y-107961500I0J-237500D01*
G01*
X151644700Y-108436500D01*
G75*
G02*
X151407200Y-108674000I-237500J0D01*
G01*
X150907200Y-108674000D01*
G75*
G02*
X150669700Y-108436500I0J237500D01*
G01*
G37*
%TD.AperFunction*%
%TD*%
%TO.P,R6,2*%
%TO.N,Net-(LED1-Pad2)*%
%TA.AperFunction,SMDPad,CuDef*%
G36*
G01*
X152090200Y-111128900D02*
X152090200Y-110653900D01*
G75*
G02*
X152327700Y-110416400I237500J0D01*
G01*
X152827700Y-110416400D01*
G75*
G02*
X153065200Y-110653900I0J-237500D01*
G01*
X153065200Y-111128900D01*
G75*
G02*
X152827700Y-111366400I-237500J0D01*
G01*
X152327700Y-111366400D01*
G75*
G02*
X152090200Y-111128900I0J237500D01*
G01*
G37*
%TD.AperFunction*%
%TO.P,R6,1*%
%TO.N,/TXb*%
%TA.AperFunction,SMDPad,CuDef*%
G36*
G01*
X150265200Y-111128900D02*
X150265200Y-110653900D01*
G75*
G02*
X150502700Y-110416400I237500J0D01*
G01*
X151002700Y-110416400D01*
G75*
G02*
X151240200Y-110653900I0J-237500D01*
G01*
X151240200Y-111128900D01*
G75*
G02*
X151002700Y-111366400I-237500J0D01*
G01*
X150502700Y-111366400D01*
G75*
G02*
X150265200Y-111128900I0J237500D01*
G01*
G37*
%TD.AperFunction*%
%TD*%
D16*
%TO.P,J10,2*%
%TO.N,Net-(J10-Pad2)*%
X166275000Y-115506500D03*
D17*
%TO.P,J10,1*%
%TO.N,/B-*%
X168275000Y-115506500D03*
%TD*%
%TO.P,C7,2*%
%TO.N,+3V0*%
%TA.AperFunction,SMDPad,CuDef*%
G36*
G01*
X145090000Y-108716000D02*
X145090000Y-109216000D01*
G75*
G02*
X144865000Y-109441000I-225000J0D01*
G01*
X144415000Y-109441000D01*
G75*
G02*
X144190000Y-109216000I0J225000D01*
G01*
X144190000Y-108716000D01*
G75*
G02*
X144415000Y-108491000I225000J0D01*
G01*
X144865000Y-108491000D01*
G75*
G02*
X145090000Y-108716000I0J-225000D01*
G01*
G37*
%TD.AperFunction*%
%TO.P,C7,1*%
%TO.N,GND*%
%TA.AperFunction,SMDPad,CuDef*%
G36*
G01*
X146640000Y-108716000D02*
X146640000Y-109216000D01*
G75*
G02*
X146415000Y-109441000I-225000J0D01*
G01*
X145965000Y-109441000D01*
G75*
G02*
X145740000Y-109216000I0J225000D01*
G01*
X145740000Y-108716000D01*
G75*
G02*
X145965000Y-108491000I225000J0D01*
G01*
X146415000Y-108491000D01*
G75*
G02*
X146640000Y-108716000I0J-225000D01*
G01*
G37*
%TD.AperFunction*%
%TD*%
D18*
%TO.P,U4,6*%
%TO.N,/TXb*%
X143002000Y-108252499D03*
%TO.P,U4,5*%
%TO.N,+3V0*%
X143002000Y-108902500D03*
%TO.P,U4,4*%
%TO.N,/RXp*%
X143002000Y-109552499D03*
%TO.P,U4,3*%
%TO.N,/RXb*%
X140751999Y-109552499D03*
%TO.P,U4,2*%
%TO.N,GND*%
X140751999Y-108902500D03*
%TO.P,U4,1*%
%TO.N,/TXp*%
X140751999Y-108252499D03*
%TD*%
%TO.P,C6,2*%
%TO.N,/Vbat*%
%TA.AperFunction,SMDPad,CuDef*%
G36*
G01*
X130005000Y-104072500D02*
X130005000Y-103572500D01*
G75*
G02*
X130230000Y-103347500I225000J0D01*
G01*
X130680000Y-103347500D01*
G75*
G02*
X130905000Y-103572500I0J-225000D01*
G01*
X130905000Y-104072500D01*
G75*
G02*
X130680000Y-104297500I-225000J0D01*
G01*
X130230000Y-104297500D01*
G75*
G02*
X130005000Y-104072500I0J225000D01*
G01*
G37*
%TD.AperFunction*%
%TO.P,C6,1*%
%TO.N,GND*%
%TA.AperFunction,SMDPad,CuDef*%
G36*
G01*
X128455000Y-104072500D02*
X128455000Y-103572500D01*
G75*
G02*
X128680000Y-103347500I225000J0D01*
G01*
X129130000Y-103347500D01*
G75*
G02*
X129355000Y-103572500I0J-225000D01*
G01*
X129355000Y-104072500D01*
G75*
G02*
X129130000Y-104297500I-225000J0D01*
G01*
X128680000Y-104297500D01*
G75*
G02*
X128455000Y-104072500I0J225000D01*
G01*
G37*
%TD.AperFunction*%
%TD*%
%TO.P,R5,2*%
%TO.N,/Vbat*%
%TA.AperFunction,SMDPad,CuDef*%
G36*
G01*
X132825500Y-106977000D02*
X132350500Y-106977000D01*
G75*
G02*
X132113000Y-106739500I0J237500D01*
G01*
X132113000Y-106239500D01*
G75*
G02*
X132350500Y-106002000I237500J0D01*
G01*
X132825500Y-106002000D01*
G75*
G02*
X133063000Y-106239500I0J-237500D01*
G01*
X133063000Y-106739500D01*
G75*
G02*
X132825500Y-106977000I-237500J0D01*
G01*
G37*
%TD.AperFunction*%
%TO.P,R5,1*%
%TO.N,/VbatIn*%
%TA.AperFunction,SMDPad,CuDef*%
G36*
G01*
X132825500Y-108802000D02*
X132350500Y-108802000D01*
G75*
G02*
X132113000Y-108564500I0J237500D01*
G01*
X132113000Y-108064500D01*
G75*
G02*
X132350500Y-107827000I237500J0D01*
G01*
X132825500Y-107827000D01*
G75*
G02*
X133063000Y-108064500I0J-237500D01*
G01*
X133063000Y-108564500D01*
G75*
G02*
X132825500Y-108802000I-237500J0D01*
G01*
G37*
%TD.AperFunction*%
%TD*%
%TO.P,C5,2*%
%TO.N,/5Vsw*%
%TA.AperFunction,SMDPad,CuDef*%
G36*
G01*
X166882000Y-101785000D02*
X167382000Y-101785000D01*
G75*
G02*
X167607000Y-102010000I0J-225000D01*
G01*
X167607000Y-102460000D01*
G75*
G02*
X167382000Y-102685000I-225000J0D01*
G01*
X166882000Y-102685000D01*
G75*
G02*
X166657000Y-102460000I0J225000D01*
G01*
X166657000Y-102010000D01*
G75*
G02*
X166882000Y-101785000I225000J0D01*
G01*
G37*
%TD.AperFunction*%
%TO.P,C5,1*%
%TO.N,GND*%
%TA.AperFunction,SMDPad,CuDef*%
G36*
G01*
X166882000Y-100235000D02*
X167382000Y-100235000D01*
G75*
G02*
X167607000Y-100460000I0J-225000D01*
G01*
X167607000Y-100910000D01*
G75*
G02*
X167382000Y-101135000I-225000J0D01*
G01*
X166882000Y-101135000D01*
G75*
G02*
X166657000Y-100910000I0J225000D01*
G01*
X166657000Y-100460000D01*
G75*
G02*
X166882000Y-100235000I225000J0D01*
G01*
G37*
%TD.AperFunction*%
%TD*%
%TO.P,C4,2*%
%TO.N,GND*%
%TA.AperFunction,SMDPad,CuDef*%
G36*
G01*
X163964100Y-110633400D02*
X163964100Y-110133400D01*
G75*
G02*
X164189100Y-109908400I225000J0D01*
G01*
X164639100Y-109908400D01*
G75*
G02*
X164864100Y-110133400I0J-225000D01*
G01*
X164864100Y-110633400D01*
G75*
G02*
X164639100Y-110858400I-225000J0D01*
G01*
X164189100Y-110858400D01*
G75*
G02*
X163964100Y-110633400I0J225000D01*
G01*
G37*
%TD.AperFunction*%
%TO.P,C4,1*%
%TO.N,+3V0*%
%TA.AperFunction,SMDPad,CuDef*%
G36*
G01*
X162414100Y-110633400D02*
X162414100Y-110133400D01*
G75*
G02*
X162639100Y-109908400I225000J0D01*
G01*
X163089100Y-109908400D01*
G75*
G02*
X163314100Y-110133400I0J-225000D01*
G01*
X163314100Y-110633400D01*
G75*
G02*
X163089100Y-110858400I-225000J0D01*
G01*
X162639100Y-110858400D01*
G75*
G02*
X162414100Y-110633400I0J225000D01*
G01*
G37*
%TD.AperFunction*%
%TD*%
%TO.P,C3,2*%
%TO.N,GND*%
%TA.AperFunction,SMDPad,CuDef*%
G36*
G01*
X137229000Y-106049000D02*
X137229000Y-106549000D01*
G75*
G02*
X137004000Y-106774000I-225000J0D01*
G01*
X136554000Y-106774000D01*
G75*
G02*
X136329000Y-106549000I0J225000D01*
G01*
X136329000Y-106049000D01*
G75*
G02*
X136554000Y-105824000I225000J0D01*
G01*
X137004000Y-105824000D01*
G75*
G02*
X137229000Y-106049000I0J-225000D01*
G01*
G37*
%TD.AperFunction*%
%TO.P,C3,1*%
%TO.N,/Vbstin*%
%TA.AperFunction,SMDPad,CuDef*%
G36*
G01*
X138779000Y-106049000D02*
X138779000Y-106549000D01*
G75*
G02*
X138554000Y-106774000I-225000J0D01*
G01*
X138104000Y-106774000D01*
G75*
G02*
X137879000Y-106549000I0J225000D01*
G01*
X137879000Y-106049000D01*
G75*
G02*
X138104000Y-105824000I225000J0D01*
G01*
X138554000Y-105824000D01*
G75*
G02*
X138779000Y-106049000I0J-225000D01*
G01*
G37*
%TD.AperFunction*%
%TD*%
%TO.P,C2,2*%
%TO.N,GND*%
%TA.AperFunction,SMDPad,CuDef*%
G36*
G01*
X133735000Y-104224000D02*
X134235000Y-104224000D01*
G75*
G02*
X134460000Y-104449000I0J-225000D01*
G01*
X134460000Y-104899000D01*
G75*
G02*
X134235000Y-105124000I-225000J0D01*
G01*
X133735000Y-105124000D01*
G75*
G02*
X133510000Y-104899000I0J225000D01*
G01*
X133510000Y-104449000D01*
G75*
G02*
X133735000Y-104224000I225000J0D01*
G01*
G37*
%TD.AperFunction*%
%TO.P,C2,1*%
%TO.N,/Vbat*%
%TA.AperFunction,SMDPad,CuDef*%
G36*
G01*
X133735000Y-102674000D02*
X134235000Y-102674000D01*
G75*
G02*
X134460000Y-102899000I0J-225000D01*
G01*
X134460000Y-103349000D01*
G75*
G02*
X134235000Y-103574000I-225000J0D01*
G01*
X133735000Y-103574000D01*
G75*
G02*
X133510000Y-103349000I0J225000D01*
G01*
X133510000Y-102899000D01*
G75*
G02*
X133735000Y-102674000I225000J0D01*
G01*
G37*
%TD.AperFunction*%
%TD*%
%TO.P,R4,2*%
%TO.N,Net-(J10-Pad2)*%
%TA.AperFunction,SMDPad,CuDef*%
G36*
G01*
X163529000Y-115510500D02*
X164004000Y-115510500D01*
G75*
G02*
X164241500Y-115748000I0J-237500D01*
G01*
X164241500Y-116248000D01*
G75*
G02*
X164004000Y-116485500I-237500J0D01*
G01*
X163529000Y-116485500D01*
G75*
G02*
X163291500Y-116248000I0J237500D01*
G01*
X163291500Y-115748000D01*
G75*
G02*
X163529000Y-115510500I237500J0D01*
G01*
G37*
%TD.AperFunction*%
%TO.P,R4,1*%
%TO.N,/A+*%
%TA.AperFunction,SMDPad,CuDef*%
G36*
G01*
X163529000Y-113685500D02*
X164004000Y-113685500D01*
G75*
G02*
X164241500Y-113923000I0J-237500D01*
G01*
X164241500Y-114423000D01*
G75*
G02*
X164004000Y-114660500I-237500J0D01*
G01*
X163529000Y-114660500D01*
G75*
G02*
X163291500Y-114423000I0J237500D01*
G01*
X163291500Y-113923000D01*
G75*
G02*
X163529000Y-113685500I237500J0D01*
G01*
G37*
%TD.AperFunction*%
%TD*%
%TO.P,R3,2*%
%TO.N,/A+*%
%TA.AperFunction,SMDPad,CuDef*%
G36*
G01*
X167762100Y-113445300D02*
X167762100Y-112970300D01*
G75*
G02*
X167999600Y-112732800I237500J0D01*
G01*
X168499600Y-112732800D01*
G75*
G02*
X168737100Y-112970300I0J-237500D01*
G01*
X168737100Y-113445300D01*
G75*
G02*
X168499600Y-113682800I-237500J0D01*
G01*
X167999600Y-113682800D01*
G75*
G02*
X167762100Y-113445300I0J237500D01*
G01*
G37*
%TD.AperFunction*%
%TO.P,R3,1*%
%TO.N,/5Vsw*%
%TA.AperFunction,SMDPad,CuDef*%
G36*
G01*
X165937100Y-113445300D02*
X165937100Y-112970300D01*
G75*
G02*
X166174600Y-112732800I237500J0D01*
G01*
X166674600Y-112732800D01*
G75*
G02*
X166912100Y-112970300I0J-237500D01*
G01*
X166912100Y-113445300D01*
G75*
G02*
X166674600Y-113682800I-237500J0D01*
G01*
X166174600Y-113682800D01*
G75*
G02*
X165937100Y-113445300I0J237500D01*
G01*
G37*
%TD.AperFunction*%
%TD*%
%TO.P,R2,2*%
%TO.N,/B-*%
%TA.AperFunction,SMDPad,CuDef*%
G36*
G01*
X167811000Y-111273600D02*
X167811000Y-110798600D01*
G75*
G02*
X168048500Y-110561100I237500J0D01*
G01*
X168548500Y-110561100D01*
G75*
G02*
X168786000Y-110798600I0J-237500D01*
G01*
X168786000Y-111273600D01*
G75*
G02*
X168548500Y-111511100I-237500J0D01*
G01*
X168048500Y-111511100D01*
G75*
G02*
X167811000Y-111273600I0J237500D01*
G01*
G37*
%TD.AperFunction*%
%TO.P,R2,1*%
%TO.N,GND*%
%TA.AperFunction,SMDPad,CuDef*%
G36*
G01*
X165986000Y-111273600D02*
X165986000Y-110798600D01*
G75*
G02*
X166223500Y-110561100I237500J0D01*
G01*
X166723500Y-110561100D01*
G75*
G02*
X166961000Y-110798600I0J-237500D01*
G01*
X166961000Y-111273600D01*
G75*
G02*
X166723500Y-111511100I-237500J0D01*
G01*
X166223500Y-111511100D01*
G75*
G02*
X165986000Y-111273600I0J237500D01*
G01*
G37*
%TD.AperFunction*%
%TD*%
D19*
%TO.P,J11,1*%
%TO.N,GND*%
X168833700Y-93924200D03*
%TD*%
D20*
%TO.P,J9,2*%
%TO.N,GND*%
X128244500Y-97937400D03*
%TO.P,J9,1*%
%TO.N,/Vbat*%
X128244500Y-99937402D03*
%TD*%
D21*
%TO.P,C1,+*%
%TO.N,/Vbstin*%
X143078100Y-103728600D03*
%TO.P,C1,-*%
%TO.N,GND*%
X143078100Y-106268600D03*
%TD*%
D20*
%TO.P,J8,2*%
%TO.N,GND*%
X131089300Y-113006199D03*
%TO.P,J8,1*%
%TO.N,/VbatIn*%
X131089300Y-115006201D03*
%TD*%
D22*
%TO.P,U1,8*%
%TO.N,/5Vsw*%
X166497000Y-104140000D03*
%TO.P,U1,7*%
%TO.N,/B-*%
X166497000Y-105410000D03*
%TO.P,U1,6*%
%TO.N,/A+*%
X166497000Y-106680000D03*
%TO.P,U1,5*%
%TO.N,GND*%
X166497000Y-107950000D03*
%TO.P,U1,4*%
X159181800Y-107950000D03*
%TO.P,U1,3*%
%TO.N,+3V0*%
X159181800Y-106680000D03*
%TO.P,U1,2*%
%TO.N,/TXb*%
X159181800Y-105410000D03*
%TO.P,U1,1*%
%TO.N,/RXb*%
X159181800Y-104140000D03*
%TD*%
D23*
%TO.P,U3,6*%
%TO.N,Net-(U3-Pad6)*%
X136718000Y-104663000D03*
%TO.P,U3,4*%
%TO.N,/Vbat*%
X136718000Y-103363000D03*
%TO.P,U3,2*%
%TO.N,GND*%
X138618000Y-104013000D03*
%TO.P,U3,5*%
X136718000Y-104013000D03*
%TO.P,U3,3*%
%TO.N,+3V0*%
X138618000Y-103363000D03*
%TO.P,U3,1*%
%TO.N,/Vbstin*%
X138618000Y-104663000D03*
%TD*%
D13*
%TO.P,J2,4*%
%TO.N,GND*%
X145539100Y-98775600D03*
%TO.P,J2,3*%
%TO.N,/12V*%
X147539100Y-98775600D03*
%TO.P,J2,2*%
%TO.N,/B-*%
X149539100Y-98775600D03*
D14*
%TO.P,J2,1*%
%TO.N,/A+*%
X151539100Y-98775600D03*
%TD*%
D24*
%TO.P,J4,20*%
%TO.N,+3V0*%
X159842100Y-115666600D03*
%TO.P,J4,19*%
%TO.N,/5Vsw*%
X159842100Y-113126600D03*
%TO.P,J4,18*%
%TO.N,Net-(J4-Pad18)*%
X157302100Y-115666600D03*
%TO.P,J4,17*%
%TO.N,Net-(J4-Pad17)*%
X157302100Y-113126600D03*
%TO.P,J4,16*%
%TO.N,/SDA*%
X154762100Y-115666600D03*
%TO.P,J4,15*%
%TO.N,/SCL*%
X154762100Y-113126600D03*
%TO.P,J4,14*%
%TO.N,Net-(J4-Pad14)*%
X152222100Y-115666600D03*
%TO.P,J4,13*%
%TO.N,Net-(J4-Pad13)*%
X152222100Y-113126600D03*
%TO.P,J4,12*%
%TO.N,Net-(J4-Pad12)*%
X149682100Y-115666600D03*
%TO.P,J4,11*%
%TO.N,/LEDB*%
X149682100Y-113126600D03*
%TO.P,J4,10*%
%TO.N,Net-(J4-Pad10)*%
X147142100Y-115666600D03*
%TO.P,J4,9*%
%TO.N,Net-(J4-Pad9)*%
X147142100Y-113126600D03*
%TO.P,J4,8*%
%TO.N,Net-(J4-Pad8)*%
X144602100Y-115666600D03*
%TO.P,J4,7*%
%TO.N,Net-(J4-Pad7)*%
X144602100Y-113126600D03*
%TO.P,J4,6*%
%TO.N,/RXp*%
X142062100Y-115666600D03*
%TO.P,J4,5*%
%TO.N,Net-(J4-Pad5)*%
X142062100Y-113126600D03*
%TO.P,J4,4*%
%TO.N,/D4_AL*%
X139522100Y-115666600D03*
%TO.P,J4,3*%
%TO.N,/TXp*%
X139522100Y-113126600D03*
%TO.P,J4,2*%
%TO.N,/3Von*%
X136982100Y-115666600D03*
%TO.P,J4,1*%
%TO.N,GND*%
X136982100Y-113126600D03*
%TD*%
D13*
%TO.P,J3,4*%
%TO.N,GND*%
X157477100Y-98775600D03*
%TO.P,J3,3*%
%TO.N,/12V*%
X159477100Y-98775600D03*
%TO.P,J3,2*%
%TO.N,/B-*%
X161477100Y-98775600D03*
D14*
%TO.P,J3,1*%
%TO.N,/A+*%
X163477100Y-98775600D03*
%TD*%
D12*
%TO.P,J5,4*%
%TO.N,GND*%
X132791100Y-95854600D03*
%TO.P,J5,3*%
%TO.N,/12V*%
X135331100Y-95854600D03*
%TO.P,J5,2*%
%TO.N,/B-*%
X137871100Y-95854600D03*
%TO.P,J5,1*%
%TO.N,/A+*%
X140411100Y-95854600D03*
%TD*%
%TO.P,J6,4*%
%TO.N,GND*%
X144729100Y-95854600D03*
%TO.P,J6,3*%
%TO.N,/12V*%
X147269100Y-95854600D03*
%TO.P,J6,2*%
%TO.N,/B-*%
X149809100Y-95854600D03*
%TO.P,J6,1*%
%TO.N,/A+*%
X152349100Y-95854600D03*
%TD*%
%TO.P,J7,4*%
%TO.N,GND*%
X156667100Y-95854600D03*
%TO.P,J7,3*%
%TO.N,/12V*%
X159207100Y-95854600D03*
%TO.P,J7,2*%
%TO.N,/B-*%
X161747100Y-95854600D03*
%TO.P,J7,1*%
%TO.N,/A+*%
X164287100Y-95854600D03*
%TD*%
%TO.P,R1,1*%
%TO.N,/5Vsw*%
%TA.AperFunction,SMDPad,CuDef*%
G36*
G01*
X153569500Y-103775500D02*
X153569500Y-104250500D01*
G75*
G02*
X153332000Y-104488000I-237500J0D01*
G01*
X152832000Y-104488000D01*
G75*
G02*
X152594500Y-104250500I0J237500D01*
G01*
X152594500Y-103775500D01*
G75*
G02*
X152832000Y-103538000I237500J0D01*
G01*
X153332000Y-103538000D01*
G75*
G02*
X153569500Y-103775500I0J-237500D01*
G01*
G37*
%TD.AperFunction*%
%TO.P,R1,2*%
%TO.N,/Vbstin*%
%TA.AperFunction,SMDPad,CuDef*%
G36*
G01*
X151744500Y-103775500D02*
X151744500Y-104250500D01*
G75*
G02*
X151507000Y-104488000I-237500J0D01*
G01*
X151007000Y-104488000D01*
G75*
G02*
X150769500Y-104250500I0J237500D01*
G01*
X150769500Y-103775500D01*
G75*
G02*
X151007000Y-103538000I237500J0D01*
G01*
X151507000Y-103538000D01*
G75*
G02*
X151744500Y-103775500I0J-237500D01*
G01*
G37*
%TD.AperFunction*%
%TD*%
D25*
%TO.N,GND*%
X167259000Y-109220000D03*
X135445500Y-104267000D03*
X167259000Y-109220000D03*
X167322500Y-99377500D03*
X128346100Y-102001400D03*
%TO.N,/12V*%
X147396100Y-107995800D03*
%TO.N,/B-*%
X167851600Y-104952800D03*
X168211500Y-107467400D03*
X167484690Y-112042310D03*
%TO.N,/SDA*%
X138430000Y-110236000D03*
X144780000Y-110553500D03*
X134556500Y-109855000D03*
X128701700Y-110180200D03*
%TO.N,/SCL*%
X138366500Y-111442500D03*
X128600100Y-105100200D03*
X135318500Y-111442500D03*
%TO.N,/5Vsw*%
X164084000Y-105156000D03*
X164465000Y-112395000D03*
X154686000Y-104013000D03*
%TO.N,+3V0*%
X161417000Y-106680000D03*
X160528000Y-101473000D03*
X145414900Y-102204600D03*
X145288000Y-107696000D03*
X163093300Y-109215000D03*
%TO.N,/TXb*%
X155422500Y-105557400D03*
X150952100Y-109672200D03*
X143891000Y-107759500D03*
%TO.N,/RXb*%
X141859000Y-110109000D03*
X154051000Y-105219500D03*
X152069700Y-109215000D03*
%TD*%
D26*
%TO.N,GND*%
X136601100Y-113507600D02*
X136982100Y-113126600D01*
X147924600Y-106268600D02*
X149428100Y-106268600D01*
D27*
X149428100Y-106268600D02*
X150505730Y-106268600D01*
X166497000Y-107950000D02*
X166497000Y-108204000D01*
D28*
X167259000Y-108966000D02*
X167259000Y-109220000D01*
X166497000Y-108204000D02*
X167259000Y-108966000D01*
D29*
X135699500Y-104013000D02*
X135445500Y-104267000D01*
X136017000Y-104013000D02*
X135699500Y-104013000D01*
D28*
X166473500Y-110005500D02*
X167259000Y-109220000D01*
X166473500Y-111036100D02*
X166473500Y-110005500D01*
D30*
X141426999Y-108902500D02*
X141859000Y-108470499D01*
X140751999Y-108902500D02*
X141426999Y-108902500D01*
X141859000Y-107487700D02*
X143078100Y-106268600D01*
X141859000Y-108470499D02*
X141859000Y-107487700D01*
X146190000Y-108966000D02*
X146190000Y-108953000D01*
D26*
X146969400Y-106268600D02*
X147924600Y-106268600D01*
X143078100Y-106268600D02*
X146969400Y-106268600D01*
D31*
X136779000Y-106299000D02*
X135699500Y-106299000D01*
X135699500Y-106299000D02*
X135445500Y-106045000D01*
D29*
X136017000Y-104013000D02*
X137604500Y-104013000D01*
X137604500Y-104013000D02*
X138811000Y-104013000D01*
D27*
X167132000Y-100685000D02*
X167132000Y-99504500D01*
X167195500Y-99504500D02*
X167322500Y-99377500D01*
X167132000Y-99504500D02*
X167195500Y-99504500D01*
D28*
X135217500Y-104674000D02*
X135445500Y-104902000D01*
D31*
X133985000Y-104674000D02*
X135217500Y-104674000D01*
X135445500Y-104902000D02*
X135445500Y-104267000D01*
X135445500Y-106045000D02*
X135445500Y-104902000D01*
D27*
X160845500Y-107950000D02*
X166497000Y-107950000D01*
X159181800Y-107950000D02*
X160845500Y-107950000D01*
D31*
X166259500Y-109791500D02*
X166473500Y-110005500D01*
X164515700Y-110383400D02*
X166754700Y-110383400D01*
D28*
X128905000Y-103822500D02*
X128905000Y-103779500D01*
X128905000Y-103779500D02*
X128295300Y-103169800D01*
X128295300Y-102052200D02*
X128346100Y-102001400D01*
X128295300Y-103169800D02*
X128295300Y-102052200D01*
D27*
X157652700Y-107950000D02*
X158119900Y-107950000D01*
X158119900Y-107950000D02*
X159181800Y-107950000D01*
D28*
X152374500Y-106725800D02*
X151866500Y-106217800D01*
X156692500Y-106725800D02*
X152374500Y-106725800D01*
X151866500Y-106217800D02*
X149326500Y-106217800D01*
X157916700Y-107950000D02*
X156692500Y-106725800D01*
X158119900Y-107950000D02*
X157916700Y-107950000D01*
D30*
X129540000Y-104457500D02*
X128905000Y-103822500D01*
X129540000Y-105981500D02*
X129540000Y-104457500D01*
X146176900Y-108952900D02*
X146190000Y-108966000D01*
X146176900Y-106243200D02*
X146176900Y-108952900D01*
D32*
%TO.N,/12V*%
X147349100Y-110637400D02*
X147349100Y-109973200D01*
D28*
X147349100Y-109973200D02*
X147548500Y-109773800D01*
X147548500Y-108148200D02*
X147396100Y-107995800D01*
X147548500Y-109773800D02*
X147548500Y-108148200D01*
D33*
%TO.N,/A+*%
X140411100Y-97505600D02*
X152349100Y-97505600D01*
X152349100Y-97505600D02*
X162207100Y-97505600D01*
X139601100Y-98775600D02*
X140411100Y-97965600D01*
X140411100Y-97965600D02*
X140411100Y-97505600D01*
X140411100Y-97505600D02*
X140411100Y-95854600D01*
X151539100Y-98775600D02*
X152349100Y-97965600D01*
X152349100Y-97965600D02*
X152349100Y-97505600D01*
X164287100Y-95854600D02*
X163858100Y-95854600D01*
X163858100Y-95854600D02*
X162207100Y-97505600D01*
X152349100Y-95854600D02*
X152349100Y-97505600D01*
X167894000Y-106680000D02*
X168529000Y-106045000D01*
X166497000Y-106680000D02*
X167894000Y-106680000D01*
D30*
X168249600Y-113207800D02*
X168986200Y-113207800D01*
X168986200Y-113207800D02*
X169312410Y-112881590D01*
X169206820Y-106045000D02*
X169312410Y-105939410D01*
D33*
X168529000Y-106045000D02*
X169206820Y-106045000D01*
X169312410Y-105939410D02*
X169312410Y-100478410D01*
D30*
X169312410Y-112881590D02*
X169312410Y-105939410D01*
X168249600Y-113207800D02*
X168249600Y-113309400D01*
X168249600Y-113309400D02*
X167259000Y-114300000D01*
D27*
X162557500Y-97856000D02*
X168404500Y-97856000D01*
D33*
X162207100Y-97505600D02*
X162557500Y-97856000D01*
X162557500Y-97856000D02*
X163477100Y-98775600D01*
D27*
X169312410Y-98763910D02*
X169312410Y-100478410D01*
X168404500Y-97856000D02*
X169312410Y-98763910D01*
D30*
X163893500Y-114300000D02*
X163766500Y-114173000D01*
X167259000Y-114300000D02*
X163893500Y-114300000D01*
D33*
%TO.N,/B-*%
X161477100Y-100664600D02*
X161477100Y-98775600D01*
X139490100Y-100203000D02*
X149555100Y-100203000D01*
X149555100Y-100664600D02*
X161477100Y-100664600D01*
X149539100Y-98775600D02*
X149539100Y-100648600D01*
X149539100Y-100648600D02*
X149555100Y-100664600D01*
X137601100Y-98775600D02*
X137601100Y-96124600D01*
X137601100Y-96124600D02*
X137871100Y-95854600D01*
D30*
X166497000Y-105410000D02*
X167640000Y-105410000D01*
X167640000Y-105164400D02*
X167851600Y-104952800D01*
X167640000Y-105410000D02*
X167640000Y-105164400D01*
X168298500Y-111036100D02*
X168298500Y-110593500D01*
X168298500Y-111228500D02*
X167484690Y-112042310D01*
X168298500Y-111036100D02*
X168298500Y-111228500D01*
X168298500Y-107554400D02*
X168211500Y-107467400D01*
X168298500Y-111036100D02*
X168298500Y-107554400D01*
D27*
X139490100Y-100203000D02*
X137858500Y-100203000D01*
X137601100Y-99945600D02*
X137601100Y-98775600D01*
X137858500Y-100203000D02*
X137601100Y-99945600D01*
D26*
%TO.N,/Vbstin*%
X143078100Y-103728600D02*
X149428100Y-103728600D01*
D29*
X138618000Y-104663000D02*
X139685000Y-104663000D01*
D28*
X139685000Y-104663000D02*
X140589000Y-103759000D01*
X143047700Y-103759000D02*
X143078100Y-103728600D01*
X140589000Y-103759000D02*
X143047700Y-103759000D01*
X151257000Y-104013000D02*
X150749000Y-103505000D01*
X150525400Y-103728600D02*
X149428100Y-103728600D01*
X150749000Y-103505000D02*
X150525400Y-103728600D01*
D31*
X138329000Y-106299000D02*
X139382500Y-106299000D01*
X139685000Y-105996500D02*
X139685000Y-104663000D01*
X139382500Y-106299000D02*
X139685000Y-105996500D01*
D28*
%TO.N,/Vbat*%
X132588000Y-105410000D02*
X132588000Y-106489500D01*
D30*
X132524500Y-103822500D02*
X132588000Y-103759000D01*
D31*
X130455000Y-103822500D02*
X132524500Y-103822500D01*
D28*
X132588000Y-105410000D02*
X132588000Y-103759000D01*
D30*
X130455000Y-105566499D02*
X130039999Y-105981500D01*
X130455000Y-103822500D02*
X130455000Y-105566499D01*
D28*
X132778500Y-103124000D02*
X132588000Y-103314500D01*
D31*
X133985000Y-103124000D02*
X132778500Y-103124000D01*
D28*
X132588000Y-103759000D02*
X132588000Y-103314500D01*
D27*
X134112000Y-103251000D02*
X133985000Y-103124000D01*
X136779000Y-103251000D02*
X134112000Y-103251000D01*
D28*
X130904902Y-99937402D02*
X128244500Y-99937402D01*
X132588000Y-101620500D02*
X130904902Y-99937402D01*
X132588000Y-103314500D02*
X132588000Y-101620500D01*
D30*
%TO.N,/SDA*%
X153439301Y-114427000D02*
X146093801Y-114427000D01*
X154738799Y-115749799D02*
X153416000Y-114427000D01*
X146091902Y-114427000D02*
X145923000Y-114258098D01*
X138303000Y-110236000D02*
X138430000Y-110236000D01*
X138112500Y-110426500D02*
X138303000Y-110236000D01*
X145924899Y-111698399D02*
X145924899Y-112142899D01*
X144780000Y-110553500D02*
X145924899Y-111698399D01*
X145924899Y-112142899D02*
X145924899Y-112015899D01*
X145924899Y-114174899D02*
X145924899Y-112142899D01*
X136271000Y-110426500D02*
X138112500Y-110426500D01*
X136144000Y-110426500D02*
X136271000Y-110426500D01*
X136271000Y-110426500D02*
X135318500Y-110426500D01*
X134747000Y-109855000D02*
X134556500Y-109855000D01*
X135318500Y-110426500D02*
X134747000Y-109855000D01*
X129040001Y-109841899D02*
X128701700Y-110180200D01*
X129040001Y-108877100D02*
X129040001Y-109841899D01*
%TO.N,/SCL*%
X138366500Y-111506000D02*
X138366500Y-111442500D01*
X138112500Y-111760000D02*
X138366500Y-111506000D01*
X129040001Y-105981500D02*
X129040001Y-105926001D01*
X129040001Y-105926001D02*
X128397000Y-105283000D01*
X135318500Y-111442500D02*
X138366500Y-111442500D01*
D27*
%TO.N,/5Vsw*%
X163703000Y-103505000D02*
X164211000Y-104013000D01*
X166370000Y-104013000D02*
X166497000Y-104140000D01*
X163703000Y-102793800D02*
X163525200Y-102616000D01*
X163703000Y-103505000D02*
X163703000Y-102793800D01*
X155575000Y-102616000D02*
X163525200Y-102616000D01*
X164846000Y-104013000D02*
X164846000Y-104140000D01*
X164211000Y-104013000D02*
X164846000Y-104013000D01*
X164846000Y-104013000D02*
X166370000Y-104013000D01*
X164084000Y-104902000D02*
X164084000Y-105156000D01*
X164846000Y-104140000D02*
X164084000Y-104902000D01*
X165277800Y-113207800D02*
X166424600Y-113207800D01*
X160065700Y-112903000D02*
X159842100Y-113126600D01*
X164465000Y-112395000D02*
X164973000Y-112903000D01*
X164973000Y-112903000D02*
X160065700Y-112903000D01*
X164973000Y-112903000D02*
X165277800Y-113207800D01*
X166497000Y-102870000D02*
X167132000Y-102235000D01*
X166497000Y-104140000D02*
X166497000Y-102870000D01*
X154686000Y-103505000D02*
X154686000Y-104013000D01*
X155003500Y-103187500D02*
X155003500Y-103251000D01*
X154686000Y-103505000D02*
X155003500Y-103187500D01*
X155003500Y-103187500D02*
X155575000Y-102616000D01*
D31*
X154241500Y-104013000D02*
X153082000Y-104013000D01*
D27*
X155003500Y-103251000D02*
X154241500Y-104013000D01*
D30*
X159842100Y-112661600D02*
X159842100Y-113126600D01*
%TO.N,+3V0*%
X159181800Y-106680000D02*
X161417000Y-106680000D01*
X138618000Y-102682000D02*
X138618000Y-103363000D01*
X139827000Y-101473000D02*
X138618000Y-102682000D01*
X145465700Y-101506100D02*
X145465700Y-102204600D01*
X160528000Y-101473000D02*
X146177000Y-101473000D01*
X146177000Y-101473000D02*
X139827000Y-101473000D01*
X145288000Y-107696000D02*
X144907000Y-108077000D01*
X144907000Y-108699000D02*
X144640000Y-108966000D01*
X144907000Y-108077000D02*
X144907000Y-108699000D01*
X144576500Y-108902500D02*
X144640000Y-108966000D01*
X143002000Y-108902500D02*
X144576500Y-108902500D01*
X159481600Y-115666600D02*
X159842100Y-115666600D01*
D28*
X162864100Y-109444200D02*
X163093300Y-109215000D01*
X162864100Y-110383400D02*
X162864100Y-109444200D01*
D30*
X162280500Y-110383400D02*
X161213700Y-109316600D01*
X162864100Y-110383400D02*
X162280500Y-110383400D01*
X158328900Y-110716600D02*
X158266900Y-110778600D01*
X161947300Y-110716600D02*
X158328900Y-110716600D01*
X162280500Y-110383400D02*
X161947300Y-110716600D01*
X160502500Y-109316600D02*
X158328900Y-109316600D01*
X158328900Y-109316600D02*
X158266900Y-109378600D01*
X161213700Y-109316600D02*
X160502500Y-109316600D01*
X160502500Y-109316600D02*
X160248500Y-109316600D01*
%TO.N,/VbatIn*%
X132025400Y-108877100D02*
X132588000Y-108314500D01*
X130039999Y-108877100D02*
X132025400Y-108877100D01*
D28*
X132588000Y-111221500D02*
X132588000Y-111221700D01*
X132588000Y-108314500D02*
X132588000Y-111221500D01*
X132588000Y-111221700D02*
X133222900Y-111856600D01*
X133222900Y-111856600D02*
X133222900Y-114142600D01*
X132359299Y-115006201D02*
X131089300Y-115006201D01*
X133222900Y-114142600D02*
X132359299Y-115006201D01*
D34*
%TO.N,/RXp*%
X141282231Y-115666600D02*
X142062100Y-115666600D01*
D30*
X143279301Y-114449399D02*
X142062100Y-115666600D01*
X143002000Y-109552499D02*
X143002000Y-111506000D01*
X143279301Y-111783301D02*
X143279301Y-114449399D01*
X143002000Y-111506000D02*
X143279301Y-111783301D01*
%TO.N,/TXp*%
X139522100Y-113126600D02*
X139522100Y-108445400D01*
X139715001Y-108252499D02*
X140751999Y-108252499D01*
X139522100Y-108445400D02*
X139715001Y-108252499D01*
%TO.N,/TXb*%
X159372300Y-105219500D02*
X159181800Y-105410000D01*
X150850500Y-110586600D02*
X150850500Y-109773800D01*
X143002000Y-108252499D02*
X143207501Y-108252499D01*
X143700500Y-107759500D02*
X143891000Y-107759500D01*
X143207501Y-108252499D02*
X143700500Y-107759500D01*
X158109900Y-105410000D02*
X157500300Y-105410000D01*
X159181800Y-105410000D02*
X158109900Y-105410000D01*
X158109900Y-105410000D02*
X157861000Y-105410000D01*
X157352900Y-105557400D02*
X155422500Y-105557400D01*
X157500300Y-105410000D02*
X157352900Y-105557400D01*
%TO.N,/RXb*%
X140751999Y-109552499D02*
X141619999Y-109552499D01*
X141619999Y-109552499D02*
X141784850Y-109717350D01*
X141784850Y-110034850D02*
X141859000Y-110109000D01*
X141784850Y-109717350D02*
X141784850Y-110034850D01*
X154432000Y-104838500D02*
X157162500Y-104838500D01*
X154051000Y-105219500D02*
X154432000Y-104838500D01*
X157861000Y-104140000D02*
X159181800Y-104140000D01*
X157162500Y-104838500D02*
X157861000Y-104140000D01*
X151968100Y-109062600D02*
X151968100Y-108961000D01*
X152222100Y-109316600D02*
X151968100Y-109062600D01*
X152171300Y-109113400D02*
X152069700Y-109215000D01*
X151413100Y-108558400D02*
X152069700Y-109215000D01*
X151413100Y-108046600D02*
X151413100Y-108558400D01*
%TO.N,/D4_AL*%
X129540000Y-108877100D02*
X129540000Y-109474000D01*
X129540000Y-109474000D02*
X130048000Y-109982000D01*
X130048000Y-109982000D02*
X130048000Y-111188500D01*
X130048000Y-111188500D02*
X129413000Y-111823500D01*
X135211199Y-114363500D02*
X138219801Y-114363500D01*
X133460198Y-116094802D02*
X135211199Y-114343801D01*
X139522100Y-115646100D02*
X139522100Y-115666600D01*
X138219801Y-114343801D02*
X139522100Y-115646100D01*
X129413000Y-115717500D02*
X129790302Y-116094802D01*
X129413000Y-111823500D02*
X129413000Y-115717500D01*
X129790302Y-116094802D02*
X133460198Y-116094802D01*
%TO.N,Net-(J10-Pad2)*%
X165783500Y-115998000D02*
X166275000Y-115506500D01*
X163766500Y-115998000D02*
X165783500Y-115998000D01*
%TO.N,Net-(J4-Pad13)*%
X152222100Y-113126600D02*
X152222100Y-113017400D01*
X152289500Y-113059200D02*
X152222100Y-113126600D01*
%TO.N,Net-(LED1-Pad2)*%
X154903300Y-110942200D02*
X155066900Y-110778600D01*
X153285100Y-110942200D02*
X154903300Y-110942200D01*
X152617300Y-110931000D02*
X152577700Y-110891400D01*
X154990900Y-110931000D02*
X152617300Y-110931000D01*
%TO.N,Net-(LED1-Pad4)*%
X155066900Y-109218800D02*
X153996300Y-108148200D01*
X155066900Y-109378600D02*
X155066900Y-109218800D01*
X153339700Y-108148200D02*
X153238100Y-108046600D01*
X153996300Y-108148200D02*
X153339700Y-108148200D01*
%TO.N,Net-(JP1-Pad1)*%
X149174100Y-108910200D02*
X149326500Y-108757800D01*
D32*
X149174100Y-110637400D02*
X149174100Y-108910200D01*
%TD*%
M02*
